<svg width="59" height="76" viewBox="0 0 59 76" fill="none" xmlns="http://www.w3.org/2000/svg">
<g clip-path="url(#clip0_140_3047)">
<path d="M58.87 41.1C58.87 36.16 55.12 32.1 50.31 31.62C49.99 31.59 49.66 31.57 49.34 31.57H19.07V9.53C19.07 4.27 14.8 0 9.53 0C4.26 0 0 4.27 0 9.53V66.44C0 71.71 4.27 75.97 9.53 75.97C14.79 75.97 19.06 71.7 19.06 66.44V50.62H39.8V66.44C39.8 71.71 44.07 75.97 49.33 75.97C54.6 75.97 58.86 71.7 58.86 66.44V41.09L58.87 41.1Z" fill="#2A4948"/>
<path d="M49.34 19.06C54.6033 19.06 58.87 14.7933 58.87 9.53C58.87 4.26673 54.6033 0 49.34 0C44.0767 0 39.81 4.26673 39.81 9.53C39.81 14.7933 44.0767 19.06 49.34 19.06Z" fill="#D2693F"/>
</g>
<defs>
<clipPath id="clip0_140_3047">
<rect width="58.87" height="75.98" fill="white"/>
</clipPath>
</defs>
</svg>
