<svg width="29" height="29" viewBox="0 0 29 29" fill="none" xmlns="http://www.w3.org/2000/svg">
<path d="M9.1 17.2C9.1 17.2 11.125 19.9 14.5 19.9C17.875 19.9 19.9 17.2 19.9 17.2M18.55 10.45H18.5635M10.45 10.45H10.4635M28 14.5C28 21.9558 21.9558 28 14.5 28C7.04416 28 1 21.9558 1 14.5C1 7.04416 7.04416 1 14.5 1C21.9558 1 28 7.04416 28 14.5ZM19.225 10.45C19.225 10.8228 18.9228 11.125 18.55 11.125C18.1772 11.125 17.875 10.8228 17.875 10.45C17.875 10.0772 18.1772 9.775 18.55 9.775C18.9228 9.775 19.225 10.0772 19.225 10.45ZM11.125 10.45C11.125 10.8228 10.8228 11.125 10.45 11.125C10.0772 11.125 9.775 10.8228 9.775 10.45C9.775 10.0772 10.0772 9.775 10.45 9.775C10.8228 9.775 11.125 10.0772 11.125 10.45Z" stroke="white" stroke-width="2" stroke-linecap="round" stroke-linejoin="round"/>
</svg>
