<svg width="25" height="30" viewBox="0 0 25 30" fill="none" xmlns="http://www.w3.org/2000/svg">
<path d="M22.4361 0H2.45994C1.1036 0 -3.34706e-08 1.10267 0 2.45901V27.5401C0 28.8964 1.10356 30 2.45994 30H22.4361C23.7925 30 24.8956 28.8964 24.8956 27.5401V2.45901C24.8956 1.10267 23.7925 -3.34706e-08 22.4361 0ZM23.02 27.5401C23.02 27.8624 22.7581 28.1244 22.4361 28.1244H2.45994C2.13756 28.1244 1.87563 27.8624 1.87563 27.5401V2.45901C1.87563 2.13756 2.13756 1.87563 2.45994 1.87563H22.4361C22.7581 1.87563 23.02 2.13756 23.02 2.45901V27.5401Z" fill="white"/>
<path d="M19.4372 6.823H10.4011C9.88323 6.823 9.46332 7.24246 9.46332 7.76083C9.46332 8.2792 9.88323 8.69866 10.4011 8.69866H19.4372C19.9551 8.69866 20.375 8.2792 20.375 7.76083C20.375 7.24246 19.9551 6.823 19.4372 6.823ZM19.4372 14.1515H10.4011C9.88323 14.1515 9.46332 14.571 9.46332 15.0893C9.46332 15.6077 9.88323 16.0272 10.4011 16.0272H19.4372C19.9551 16.0272 20.375 15.6077 20.375 15.0893C20.375 14.571 19.9551 14.1515 19.4372 14.1515ZM19.4372 21.3005H10.4011C9.88323 21.3005 9.46332 21.72 9.46332 22.2384C9.46332 22.7567 9.88323 23.1762 10.4011 23.1762H19.4372C19.9551 23.1762 20.375 22.7567 20.375 22.2384C20.375 21.72 19.9551 21.3005 19.4372 21.3005Z" fill="white"/>
<path d="M4.61707 7.76103C4.61707 8.17094 4.7799 8.56407 5.06975 8.85392C5.35961 9.14377 5.75273 9.30661 6.16264 9.30661C6.57256 9.30661 6.96568 9.14377 7.25553 8.85392C7.54538 8.56407 7.70822 8.17094 7.70822 7.76103C7.70822 7.35112 7.54538 6.958 7.25553 6.66814C6.96568 6.37829 6.57256 6.21545 6.16264 6.21545C5.75273 6.21545 5.35961 6.37829 5.06975 6.66814C4.7799 6.958 4.61707 7.35112 4.61707 7.76103Z" fill="white"/>
<path d="M4.61707 15.0898C4.61707 15.4997 4.7799 15.8928 5.06975 16.1827C5.35961 16.4725 5.75273 16.6353 6.16264 16.6353C6.57256 16.6353 6.96568 16.4725 7.25553 16.1827C7.54538 15.8928 7.70822 15.4997 7.70822 15.0898C7.70822 14.6799 7.54538 14.2867 7.25553 13.9969C6.96568 13.707 6.57256 13.5442 6.16264 13.5442C5.75273 13.5442 5.35961 13.707 5.06975 13.9969C4.7799 14.2867 4.61707 14.6799 4.61707 15.0898Z" fill="white"/>
<path d="M4.61707 22.2387C4.61707 22.6486 4.7799 23.0417 5.06975 23.3316C5.35961 23.6214 5.75273 23.7843 6.16264 23.7843C6.57256 23.7843 6.96568 23.6214 7.25553 23.3316C7.54538 23.0417 7.70822 22.6486 7.70822 22.2387C7.70822 21.8288 7.54538 21.4357 7.25553 21.1458C6.96568 20.856 6.57256 20.6931 6.16264 20.6931C5.75273 20.6931 5.35961 20.856 5.06975 21.1458C4.7799 21.4357 4.61707 21.8288 4.61707 22.2387Z" fill="white"/>
</svg>
