<svg width="12" height="17" viewBox="0 0 12 17" fill="currentColor" xmlns="http://www.w3.org/2000/svg">
<path d="M2.83366 5.66665C2.83366 5.37325 3.05752 5.1354 3.33366 5.1354H6.00033C6.27647 5.1354 6.50033 5.37325 6.50033 5.66665C6.50033 5.96005 6.27647 6.1979 6.00033 6.1979H3.33366C3.05752 6.1979 2.83366 5.96005 2.83366 5.66665Z" fill="white"/>
<path d="M3.33366 7.96873C3.05752 7.96873 2.83366 8.20658 2.83366 8.49998C2.83366 8.79338 3.05752 9.03123 3.33366 9.03123H8.66699C8.94313 9.03123 9.16699 8.79338 9.16699 8.49998C9.16699 8.20658 8.94313 7.96873 8.66699 7.96873H3.33366Z" fill="white"/>
<path d="M2.83366 11.3333C2.83366 11.0399 3.05752 10.8021 3.33366 10.8021H8.66699C8.94313 10.8021 9.16699 11.0399 9.16699 11.3333C9.16699 11.6267 8.94313 11.8646 8.66699 11.8646H3.33366C3.05752 11.8646 2.83366 11.6267 2.83366 11.3333Z" fill="white"/>
<path fill-rule="evenodd" clip-rule="evenodd" d="M6.80515 0.885384C7.16703 0.885291 7.41734 0.885227 7.65962 0.936431C7.98162 1.00448 8.28785 1.13925 8.56082 1.33305C8.76622 1.47887 8.94318 1.66698 9.19899 1.93892L10.8421 3.68472C11.098 3.95653 11.2751 4.14455 11.4123 4.36278C11.5947 4.65282 11.7216 4.97818 11.7856 5.3203C11.8338 5.57773 11.8338 5.84369 11.8337 6.22819L11.8337 12.4147C11.8337 12.8937 11.8337 13.2802 11.8135 13.5947C11.7927 13.9181 11.7489 14.204 11.6434 14.4748C11.3896 15.1257 10.9029 15.6428 10.2904 15.9124C10.0355 16.0245 9.76638 16.071 9.462 16.0931C9.166 16.1146 8.8023 16.1146 8.35142 16.1146H3.64923C3.19835 16.1146 2.83465 16.1146 2.53865 16.0931C2.23427 16.071 1.96513 16.0245 1.71028 15.9124C1.09771 15.6428 0.611028 15.1257 0.357294 14.4748C0.251731 14.204 0.207949 13.9181 0.187182 13.5947C0.166986 13.2802 0.166989 12.8937 0.166992 12.4147V4.58528C0.166989 4.10622 0.166986 3.71978 0.187182 3.40527C0.207949 3.08188 0.251731 2.79592 0.357294 2.52514C0.611028 1.87428 1.09771 1.35718 1.71028 1.08759C1.96513 0.975427 2.23427 0.928909 2.53865 0.906844C2.83465 0.885385 3.19836 0.885388 3.64924 0.885392L6.80515 0.885384ZM7.46453 1.97852C7.33087 1.95027 7.18489 1.94789 6.75768 1.94789H3.66699C3.19421 1.94789 2.86466 1.94818 2.60672 1.96688C2.35326 1.98525 2.20566 2.01961 2.09297 2.06921C1.72543 2.23096 1.43341 2.54123 1.28117 2.93174C1.23449 3.05148 1.20216 3.2083 1.18486 3.4776C1.16726 3.75167 1.16699 4.10181 1.16699 4.60414V12.3958C1.16699 12.8981 1.16726 13.2483 1.18486 13.5224C1.20216 13.7916 1.23449 13.9485 1.28117 14.0682C1.43341 14.4587 1.72543 14.769 2.09297 14.9307C2.20566 14.9803 2.35326 15.0147 2.60672 15.0331C2.86466 15.0518 3.19421 15.0521 3.66699 15.0521H8.33366C8.80644 15.0521 9.13599 15.0518 9.39393 15.0331C9.64739 15.0147 9.79499 14.9803 9.90768 14.9307C10.2752 14.769 10.5672 14.4587 10.7195 14.0682C10.7662 13.9485 10.7985 13.7916 10.8158 13.5224C10.8334 13.2483 10.8337 12.8981 10.8337 12.3958V6.27861C10.8337 5.82471 10.8314 5.6696 10.8048 5.52759C10.8025 5.51487 10.7999 5.5022 10.7973 5.48956H8.00033C7.72418 5.48956 7.50033 5.25172 7.50033 4.95831V1.98656C7.48843 1.98373 7.4765 1.98104 7.46453 1.97852ZM8.50033 2.6992V4.42706H10.1265C10.1183 4.41833 10.11 4.40943 10.1014 4.40036L8.52545 2.72589C8.51692 2.71682 8.50855 2.70793 8.50033 2.6992Z" fill="white"/>
</svg>
