<svg width="10" height="9" viewBox="0 0 10 9" fill="none" xmlns="http://www.w3.org/2000/svg">
<path d="M9.89764 1.12655C9.92797 1.18825 9.95261 1.26024 9.97157 1.3425C9.99052 1.42477 10 1.51047 10 1.59959C10 1.68871 9.98104 1.77784 9.94313 1.86696C9.90522 1.95608 9.84456 2.04178 9.76116 2.12405C9.67017 2.20631 9.58866 2.2783 9.51662 2.34C9.44459 2.4017 9.38204 2.45654 9.32896 2.50453C9.2683 2.55938 9.21143 2.60737 9.15836 2.6485L7.0315 0.725497C7.12248 0.650085 7.23053 0.559248 7.35564 0.452986C7.48075 0.346724 7.58501 0.262742 7.66842 0.201041C7.77457 0.125629 7.88451 0.0724983 7.99825 0.041648C8.11199 0.0107976 8.22383 -0.00291365 8.33377 0.000514173C8.44372 0.00394199 8.54987 0.0193672 8.65223 0.0467897C8.75459 0.0742122 8.84369 0.105063 8.91951 0.139341C9.07874 0.214753 9.25503 0.346724 9.44838 0.535253C9.64173 0.723783 9.79148 0.920883 9.89764 1.12655ZM1.03762 6.14487C1.08311 6.10374 1.18927 6.00605 1.35608 5.8518C1.52289 5.69754 1.73141 5.5073 1.98163 5.28106L2.8119 4.53037L3.73316 3.69741L6.17848 1.48647L8.30534 3.41976L5.86002 5.6307L4.95013 6.46366C4.64684 6.73103 4.37387 6.97612 4.13123 7.19893C3.8886 7.42174 3.68766 7.60512 3.52843 7.74909C3.3692 7.89306 3.27442 7.97533 3.24409 7.99589C3.16827 8.0576 3.08107 8.12272 2.9825 8.19128C2.88393 8.25984 2.78157 8.31468 2.67542 8.35581C2.56926 8.4038 2.41382 8.46208 2.2091 8.53063C2.00437 8.59919 1.79017 8.66603 1.56649 8.73116C1.34281 8.79629 1.1305 8.85285 0.929571 8.90084C0.728638 8.94883 0.578886 8.97968 0.480315 8.99339C0.275591 9.01396 0.139108 8.98653 0.0708662 8.91112C0.00262469 8.83571 -0.0163313 8.70888 0.0139982 8.53063C0.029163 8.43466 0.0651792 8.29583 0.122047 8.11415C0.178915 7.93248 0.239574 7.74395 0.304024 7.54856C0.368475 7.35318 0.431029 7.17322 0.491689 7.00868C0.552348 6.84415 0.601633 6.73103 0.639545 6.66933C0.685039 6.57335 0.73622 6.48594 0.793088 6.4071C0.849956 6.32826 0.931467 6.24085 1.03762 6.14487Z" fill="#2A4948"/>
</svg>
