<svg width="15" height="12" viewBox="0 0 15 12" fill="none" xmlns="http://www.w3.org/2000/svg">
<g clip-path="url(#clip0_348_8508)">
<path d="M0 0H15V11.25H0V0Z" fill="#00008B"/>
<path d="M0.878906 0L3.73828 2.12109L6.58594 0H7.5V0.726562L4.6875 2.82422L7.5 4.91016V5.625H6.5625L3.75 3.52734L0.949219 5.625H0V4.92188L2.80078 2.83594L0 0.75V0H0.878906Z" fill="white"/>
<path d="M4.96875 3.29297L7.5 5.15625V5.625L4.32422 3.29297H4.96875ZM2.8125 3.52734L2.88281 3.9375L0.632812 5.625H0L2.8125 3.52734ZM7.5 0V0.0351562L4.58203 2.23828L4.60547 1.72266L6.91406 0H7.5ZM0 0L2.80078 2.0625H2.09766L0 0.492188V0Z" fill="#FF0000"/>
<path d="M2.82422 0V5.625H4.69922V0H2.82422ZM0 1.875V3.75H7.5V1.875H0Z" fill="white"/>
<path d="M0 2.26172V3.38672H7.5V2.26172H0ZM3.19922 0V5.625H4.32422V0H3.19922Z" fill="#FF0000"/>
<path d="M12.3515 9.29805L11.8711 9.35898L11.9226 9.83945L11.5758 9.50195L11.2312 9.8418L11.2781 9.36133L10.7976 9.30508L11.2031 9.04258L10.9476 8.63242L11.407 8.78477L11.5687 8.32773L11.7351 8.78242L12.1922 8.62539L11.9414 9.03789L12.3492 9.29805H12.3515ZM12.2648 6.55117L12.3281 6.24648L12.0984 6.03555L12.4078 6.00039L12.5367 5.7168L12.6656 6.00039L12.975 6.03555L12.7453 6.24648L12.8086 6.55117L12.5367 6.39648L12.2648 6.55117ZM9.82498 5.14492L9.34919 5.19648L9.39138 5.67227L9.05388 5.33242L8.70701 5.66289L8.76326 5.18711L8.28982 5.12383L8.69529 4.8707L8.44919 4.46055L8.90154 4.61992L9.07029 4.17227L9.22732 4.62461L9.68201 4.47695L9.42654 4.88242L9.82732 5.14492H9.82498ZM14.6015 4.37617L14.1117 4.43945L14.1656 4.9293L13.8117 4.58477L13.4601 4.93164L13.5094 4.43945L13.0195 4.3832L13.4344 4.11367L13.1742 3.69414L13.6429 3.85117L13.807 3.38711L13.9758 3.85117L14.4422 3.68945L14.1844 4.11133L14.6015 4.37617ZM12.3492 2.41914L11.864 2.47305L11.9086 2.96055L11.564 2.61367L11.2101 2.95117L11.2664 2.46602L10.7812 2.40039L11.1961 2.14258L10.9453 1.72305L11.407 1.88477L11.5781 1.42773L11.7375 1.88945L12.2015 1.73711L11.9414 2.14961L12.3492 2.41914ZM5.48435 9.04023L4.41091 9.1668L4.51873 10.2426L3.74998 9.4832L2.97654 10.2379L3.09138 9.16211L2.01794 9.02617L2.92966 8.44492L2.36716 7.52148L3.38904 7.87305L3.75935 6.85586L4.12263 7.87539L5.14685 7.53086L4.57732 8.44961L5.48669 9.03789L5.48435 9.04023Z" fill="white"/>
</g>
<defs>
<clipPath id="clip0_348_8508">
<rect width="15" height="11.25" rx="2" fill="white"/>
</clipPath>
</defs>
</svg>
