<svg width="40" height="40" viewBox="0 0 40 40" fill="none" xmlns="http://www.w3.org/2000/svg">
<path d="M33.0674 11.2822H28.6597L26.7661 6.72378C26.3264 5.66505 25.3014 4.98096 24.1549 4.98096H15.9671C14.8207 4.98096 13.7957 5.66505 13.3559 6.72377L11.4624 11.2822H7.05462C4.60464 11.2822 2.61143 13.2754 2.61143 15.7254V30.5091C2.61143 32.9591 4.60464 34.9523 7.05462 34.9523H33.0674C35.5174 34.9523 37.5106 32.9591 37.5106 30.5091V15.7254C37.5106 13.2753 35.5174 11.2822 33.0674 11.2822ZM35.8949 30.509C35.8949 32.0681 34.6265 33.3365 33.0674 33.3365H7.05462C5.49552 33.3365 4.22714 32.0681 4.22714 30.509V15.7254C4.22714 14.1663 5.49552 12.8979 7.05462 12.8979H12.0015C12.328 12.8979 12.6224 12.7014 12.7476 12.3999L14.848 7.34351C15.0365 6.88982 15.4758 6.59662 15.9671 6.59662H24.1549C24.6463 6.59662 25.0856 6.88978 25.274 7.34355L27.3744 12.3999C27.4997 12.7014 27.7941 12.8979 28.1205 12.8979H33.0675C34.6265 12.8979 35.8949 14.1663 35.8949 15.7254V30.509H35.8949Z" fill="#2A4948" fill-opacity="0.2"/>
<path d="M20.061 13.6655C15.5359 13.6655 11.8544 17.347 11.8544 21.8722C11.8544 26.3973 15.5358 30.0788 20.061 30.0788C24.5862 30.0788 28.2676 26.3973 28.2676 21.8722C28.2676 17.347 24.5862 13.6655 20.061 13.6655ZM20.061 28.4631C16.4268 28.4631 13.4701 25.5064 13.4701 21.8722C13.4701 18.2379 16.4268 15.2812 20.061 15.2812C23.6952 15.2812 26.6519 18.2379 26.6519 21.8722C26.6519 25.5064 23.6953 28.4631 20.061 28.4631Z" fill="#2A4948" fill-opacity="0.2"/>
<path d="M17.8219 25.1945C16.7157 24.4471 16.0552 23.2052 16.0552 21.8723C16.0552 21.4262 15.6936 21.0645 15.2474 21.0645C14.8012 21.0645 14.4395 21.4262 14.4395 21.8723C14.4395 23.7426 15.3658 25.485 16.9174 26.5332C17.0561 26.6269 17.2133 26.6718 17.3689 26.6718C17.6282 26.6718 17.883 26.5471 18.039 26.3161C18.2888 25.9464 18.1916 25.4442 17.8219 25.1945Z" fill="#2A4948" fill-opacity="0.2"/>
<path d="M10.3027 14.8867H6.90967C6.4635 14.8867 6.10182 15.2484 6.10182 15.6946C6.10182 16.1407 6.4635 16.5024 6.90967 16.5024H10.3027C10.7488 16.5024 11.1105 16.1407 11.1105 15.6946C11.1105 15.2484 10.7488 14.8867 10.3027 14.8867Z" fill="#2A4948" fill-opacity="0.2"/>
</svg>
