<svg width="90" height="150" viewBox="0 0 90 150" fill="none" xmlns="http://www.w3.org/2000/svg">
  <rect width="90" height="150" rx="5" fill="white" />
  <rect x="0.5" y="0.5" width="89" height="149" rx="4.5" stroke="#2A4948" stroke-opacity="0.1" />
  <circle cx="28.5" cy="39.5" r="6.5" fill="#EBEBEB" />
  <circle cx="61.5" cy="39.5" r="6.5" fill="#EBEBEB" />
  <rect x="15" y="50" width="27" height="17" rx="3" fill="#EBEBEB" />
  <rect x="48" y="50" width="27" height="17" rx="3" fill="#EBEBEB" />
  <rect x="31" y="11" width="27" height="7" rx="1" fill="#EBEBEB" />
  <rect x="15" y="69" width="27" height="17" rx="3" fill="#EBEBEB" />
  <rect x="48" y="69" width="27" height="17" rx="3" fill="#EBEBEB" />
  <rect x="15" y="88" width="27" height="17" rx="3" fill="#EBEBEB" />
  <rect x="48" y="88" width="27" height="17" rx="3" fill="#EBEBEB" />
  <rect x="15" y="107" width="27" height="17" rx="3" fill="#EBEBEB" />
  <rect x="48" y="107" width="27" height="17" rx="3" fill="#EBEBEB" />
  <rect x="15" y="126" width="27" height="17" rx="3" fill="#EBEBEB" />
  <rect x="48" y="126" width="27" height="17" rx="3" fill="#EBEBEB" />
  <circle cx="77" cy="15" r="7.5" stroke="#2A4948" />
  <circle cx="77" cy="15" r="5" fill="#2A4948" fill-opacity="0.2" />
</svg>
