<svg width="25" height="27" viewBox="0 0 25 27" fill="none" xmlns="http://www.w3.org/2000/svg">
<g clip-path="url(#clip0_4418_9108)">
<path d="M22.4999 4.38H1.87988V11.44H22.4999V4.38Z" fill="black" stroke="white" stroke-width="2" stroke-miterlimit="10"/>
<path d="M10.9399 14.66C10.9399 13.99 11.4899 13.44 12.1599 13.44H12.2199C12.8899 13.44 13.4399 13.99 13.4399 14.66C13.4399 15.33 12.8899 15.88 12.2199 15.88H12.1599C11.4899 15.88 10.9399 15.34 10.9399 14.66Z" fill="#2A4948"/>
<path d="M12.1599 19.69C11.4899 19.69 10.9399 20.24 10.9399 20.91C10.9399 21.58 11.4899 22.13 12.1599 22.13H12.2199C12.8899 22.13 13.4399 21.58 13.4399 20.91C13.4399 20.24 12.8899 19.69 12.2199 19.69H12.1599Z" fill="#2A4948"/>
<path d="M17.1899 14.66C17.1899 13.99 17.7399 13.44 18.4099 13.44H18.4699C19.1399 13.44 19.6899 13.99 19.6899 14.66C19.6899 15.33 19.1399 15.88 18.4699 15.88H18.4099C17.7399 15.88 17.1899 15.34 17.1899 14.66Z" fill="#2A4948"/>
<path d="M18.4099 19.69C17.7399 19.69 17.1899 20.24 17.1899 20.91C17.1899 21.58 17.7399 22.13 18.4099 22.13H18.4699C19.1399 22.13 19.6899 21.58 19.6899 20.91C19.6899 20.24 19.1399 19.69 18.4699 19.69H18.4099Z" fill="#2A4948"/>
<path d="M4.68994 14.66C4.68994 13.99 5.23994 13.44 5.90994 13.44H5.96994C6.63994 13.44 7.18994 13.99 7.18994 14.66C7.18994 15.33 6.63994 15.88 5.96994 15.88H5.90994C5.23994 15.88 4.68994 15.34 4.68994 14.66Z" fill="#2A4948"/>
<path d="M5.90994 19.69C5.23994 19.69 4.68994 20.24 4.68994 20.91C4.68994 21.58 5.23994 22.13 5.90994 22.13H5.96994C6.63994 22.13 7.18994 21.58 7.18994 20.91C7.18994 20.24 6.63994 19.69 5.96994 19.69H5.90994Z" fill="#2A4948"/>
<path fill-rule="evenodd" clip-rule="evenodd" d="M5.94 0C6.46 0 6.88 0.42 6.88 0.94V2.5H17.5V0.94C17.5 0.42 17.92 0 18.44 0C18.96 0 19.38 0.42 19.38 0.94V2.51C19.58 2.51 19.76 2.52 19.93 2.54C20.5 2.58 21 2.66 21.48 2.86C22.63 3.34 23.54 4.25 24.02 5.4C24.22 5.88 24.3 6.38 24.34 6.95C24.38 7.51 24.38 8.19 24.38 9.03V20.35C24.38 21.2 24.38 21.88 24.34 22.43C24.3 23 24.22 23.51 24.02 23.98C23.54 25.13 22.63 26.04 21.48 26.52C21 26.72 20.5 26.8 19.93 26.84C19.38 26.88 18.69 26.88 17.85 26.88H6.53C5.68 26.88 5 26.88 4.45 26.84C3.88 26.8 3.38 26.72 2.9 26.52C1.75 26.04 0.84 25.13 0.36 23.98C0.16 23.5 0.08 23 0.04 22.43C0 21.87 0 21.19 0 20.35V9.03C0 8.18 0 7.5 0.04 6.95C0.08 6.38 0.16 5.87 0.36 5.4C0.84 4.25 1.75 3.34 2.9 2.86C3.38 2.66 3.88 2.58 4.45 2.54C4.62 2.53 4.81 2.52 5 2.51V0.94C5 0.42 5.42 0 5.94 0ZM17.5 4.38V5.94C17.5 6.46 17.92 6.88 18.44 6.88C18.96 6.88 19.38 6.46 19.38 5.94V4.39C19.53 4.39 19.67 4.4 19.81 4.41C20.28 4.44 20.56 4.5 20.77 4.59C21.46 4.87 22.01 5.42 22.29 6.11C22.38 6.32 22.44 6.6 22.47 7.07C22.5 7.55 22.5 8.17 22.5 9.06V10H1.88V9.06C1.88 8.17 1.88 7.56 1.91 7.07C1.94 6.6 2 6.32 2.09 6.11C2.38 5.42 2.92 4.87 3.61 4.59C3.82 4.5 4.1 4.44 4.57 4.41C4.7 4.41 4.84 4.4 5 4.39V5.94C5 6.46 5.42 6.88 5.94 6.88C6.46 6.88 6.88 6.46 6.88 5.94V4.38H17.5ZM1.88 11.88H22.5V20.32C22.5 21.21 22.5 21.82 22.47 22.31C22.44 22.78 22.38 23.06 22.29 23.27C22 23.96 21.46 24.51 20.77 24.79C20.56 24.88 20.28 24.94 19.81 24.97C19.33 25 18.71 25 17.82 25H6.56C5.67 25 5.06 25 4.57 24.97C4.1 24.94 3.82 24.88 3.61 24.79C2.92 24.51 2.37 23.96 2.09 23.27C2 23.06 1.94 22.78 1.91 22.31C1.88 21.83 1.88 21.21 1.88 20.32V11.88Z" fill="#2A4948"/>
<path fill-rule="evenodd" clip-rule="evenodd" d="M5.94 0C6.46 0 6.88 0.42 6.88 0.94V2.5H17.5V0.94C17.5 0.42 17.92 0 18.44 0C18.96 0 19.38 0.42 19.38 0.94V2.51C19.58 2.51 19.76 2.52 19.93 2.54C20.5 2.58 21 2.66 21.48 2.86C22.63 3.34 23.54 4.25 24.02 5.4C24.22 5.88 24.3 6.38 24.34 6.95C24.38 7.51 24.38 8.19 24.38 9.03V20.35C24.38 21.2 24.38 21.88 24.34 22.43C24.3 23 24.22 23.51 24.02 23.98C23.54 25.13 22.63 26.04 21.48 26.52C21 26.72 20.5 26.8 19.93 26.84C19.38 26.88 18.69 26.88 17.85 26.88H6.53C5.68 26.88 5 26.88 4.45 26.84C3.88 26.8 3.38 26.72 2.9 26.52C1.75 26.04 0.84 25.13 0.36 23.98C0.16 23.5 0.08 23 0.04 22.43C0 21.87 0 21.19 0 20.35V9.03C0 8.18 0 7.5 0.04 6.95C0.08 6.38 0.16 5.87 0.36 5.4C0.84 4.25 1.75 3.34 2.9 2.86C3.38 2.66 3.88 2.58 4.45 2.54C4.62 2.53 4.81 2.52 5 2.51V0.94C5 0.42 5.42 0 5.94 0ZM17.5 4.38V5.94C17.5 6.46 17.92 6.88 18.44 6.88C18.96 6.88 19.38 6.46 19.38 5.94V4.39C19.53 4.39 19.67 4.4 19.81 4.41C20.28 4.44 20.56 4.5 20.77 4.59C21.46 4.87 22.01 5.42 22.29 6.11C22.38 6.32 22.44 6.6 22.47 7.07C22.5 7.55 22.5 8.17 22.5 9.06V10H1.88V9.06C1.88 8.17 1.88 7.56 1.91 7.07C1.94 6.6 2 6.32 2.09 6.11C2.38 5.42 2.92 4.87 3.61 4.59C3.82 4.5 4.1 4.44 4.57 4.41C4.7 4.41 4.84 4.4 5 4.39V5.94C5 6.46 5.42 6.88 5.94 6.88C6.46 6.88 6.88 6.46 6.88 5.94V4.38H17.5ZM1.88 11.88H22.5V20.32C22.5 21.21 22.5 21.82 22.47 22.31C22.44 22.78 22.38 23.06 22.29 23.27C22 23.96 21.46 24.51 20.77 24.79C20.56 24.88 20.28 24.94 19.81 24.97C19.33 25 18.71 25 17.82 25H6.56C5.67 25 5.06 25 4.57 24.97C4.1 24.94 3.82 24.88 3.61 24.79C2.92 24.51 2.37 23.96 2.09 23.27C2 23.06 1.94 22.78 1.91 22.31C1.88 21.83 1.88 21.21 1.88 20.32V11.88Z" fill="#2A4948"/>
<path d="M19.44 3.69H4.53002C2.5915 3.69 1.02002 5.26148 1.02002 7.2V22.11C1.02002 24.0485 2.5915 25.62 4.53002 25.62H19.44C21.3785 25.62 22.95 24.0485 22.95 22.11V7.2C22.95 5.26148 21.3785 3.69 19.44 3.69Z" fill="#2A4948"/>
<path d="M4.70988 4.69H19.6599C21.2299 4.69 22.4999 5.96 22.4999 7.53V10.32H1.87988V7.53C1.87988 5.96 3.14988 4.69 4.71988 4.69H4.70988Z" fill="white"/>
<path d="M10.9399 14.66C10.9399 13.99 11.4899 13.44 12.1599 13.44H12.2199C12.8899 13.44 13.4399 13.99 13.4399 14.66C13.4399 15.33 12.8899 15.88 12.2199 15.88H12.1599C11.4899 15.88 10.9399 15.34 10.9399 14.66Z" fill="white"/>
<path d="M12.1599 19.69C11.4899 19.69 10.9399 20.24 10.9399 20.91C10.9399 21.58 11.4899 22.13 12.1599 22.13H12.2199C12.8899 22.13 13.4399 21.58 13.4399 20.91C13.4399 20.24 12.8899 19.69 12.2199 19.69H12.1599Z" fill="white"/>
<path d="M17.1899 14.66C17.1899 13.99 17.7399 13.44 18.4099 13.44H18.4699C19.1399 13.44 19.6899 13.99 19.6899 14.66C19.6899 15.33 19.1399 15.88 18.4699 15.88H18.4099C17.7399 15.88 17.1899 15.34 17.1899 14.66Z" fill="white"/>
<path d="M18.4099 19.69C17.7399 19.69 17.1899 20.24 17.1899 20.91C17.1899 21.58 17.7399 22.13 18.4099 22.13H18.4699C19.1399 22.13 19.6899 21.58 19.6899 20.91C19.6899 20.24 19.1399 19.69 18.4699 19.69H18.4099Z" fill="white"/>
<path d="M4.68994 14.66C4.68994 13.99 5.23994 13.44 5.90994 13.44H5.96994C6.63994 13.44 7.18994 13.99 7.18994 14.66C7.18994 15.33 6.63994 15.88 5.96994 15.88H5.90994C5.23994 15.88 4.68994 15.34 4.68994 14.66Z" fill="white"/>
<path d="M5.90994 19.69C5.23994 19.69 4.68994 20.24 4.68994 20.91C4.68994 21.58 5.23994 22.13 5.90994 22.13H5.96994C6.63994 22.13 7.18994 21.58 7.18994 20.91C7.18994 20.24 6.63994 19.69 5.96994 19.69H5.90994Z" fill="white"/>
</g>
<defs>
<clipPath id="clip0_4418_9108">
<rect width="24.38" height="26.88" fill="white"/>
</clipPath>
</defs>
</svg>
