<svg width="20" height="20" viewBox="0 0 20 20" fill="none" xmlns="http://www.w3.org/2000/svg">
  <path d="M7.37383 17.7847H2.21304C1.78205 17.7847 1.45601 17.4587 1.45601 17.0277V2.21304C1.45601 1.78205 1.78205 1.45601 2.21304 1.45601H14.0576C14.4886 1.45601 14.8147 1.78205 14.8147 2.21304V6.66816C14.8147 7.08352 15.1273 7.39616 15.5427 7.39616C15.958 7.39616 16.2707 7.08352 16.2707 6.66816V2.21304C16.2707 1.61903 16.0407 1.06298 15.6253 0.645378C15.2077 0.22778 14.6516 0 14.0576 0H2.21304C1.61903 0 1.06298 0.230014 0.645378 0.645378C0.22778 1.06298 0 1.61903 0 2.21304V17.0277C0 17.6217 0.230014 18.1778 0.645378 18.5954C1.06298 19.013 1.61903 19.2407 2.21304 19.2407H7.4118C7.82716 19.2407 8.1398 18.9281 8.1398 18.5127C8.1398 18.1063 7.8026 17.7847 7.37383 17.7847Z" fill="#2A4948" />
  <path d="M7.71328 9.60247C7.71328 9.1871 7.40065 8.87446 6.98528 8.87446H3.6981C3.28273 8.87446 2.97009 9.1871 2.97009 9.60247C2.97009 10.0178 3.28273 10.3305 3.6981 10.3305H6.98751C7.38725 10.3305 7.71328 10.0044 7.71328 9.60247ZM16.7285 15.9692L16.762 15.9223C17.2801 15.1697 17.5882 14.3278 17.653 13.4904C17.7892 12.1438 17.4096 10.8463 16.5811 9.83695C15.7548 8.82757 14.5579 8.19782 13.209 8.0616C13.0192 8.0415 12.845 8.03257 12.6731 8.03257C11.4382 8.03257 10.2658 8.4792 9.37028 9.28983C8.47032 10.1072 7.90533 11.2461 7.77805 12.5011C7.64182 13.8477 8.02146 15.1451 8.84995 16.1545C9.67622 17.1639 10.8732 17.7936 12.2198 17.9299C12.4297 17.9522 12.6195 17.9634 12.7981 17.9634C13.774 17.9634 14.7075 17.6797 15.498 17.1438L15.5427 17.1125L18.5731 20H18.5909L19.7209 18.8365V18.8186L16.7285 15.9692ZM16.0541 13.3184C15.8888 15 14.4239 16.3175 12.7178 16.3175C12.6106 16.3175 12.4989 16.3131 12.3962 16.3019C10.5762 16.1232 9.23629 14.4819 9.41494 12.6418C9.58019 10.9602 11.0429 9.64267 12.7468 9.64267C12.854 9.64267 12.9634 9.64713 13.0728 9.6583C14.8928 9.83918 16.2305 11.4805 16.0541 13.3184ZM3.6981 13.3296C3.28273 13.3296 2.97009 13.6422 2.97009 14.0576C2.97009 14.473 3.28273 14.7856 3.6981 14.7856H5.92677C6.34214 14.7856 6.65478 14.473 6.65478 14.0576C6.65478 13.6422 6.34214 13.3296 5.92677 13.3296H3.6981ZM13.3006 5.18308C13.3006 4.76772 12.988 4.45508 12.5726 4.45508H3.6981C3.28273 4.45508 2.97009 4.76772 2.97009 5.18308C2.97009 5.59845 3.28273 5.91109 3.6981 5.91109H12.5726C12.9545 5.91109 13.3006 5.56495 13.3006 5.18308Z" fill="#2A4948" />
</svg>
