<svg width="25" height="25" viewBox="0 0 25 25" fill="none" xmlns="http://www.w3.org/2000/svg">
<path d="M18.7498 4.16667C18.7498 4.7192 18.5303 5.2491 18.1396 5.63981C17.7489 6.03051 17.219 6.25 16.6665 6.25H8.33317C7.78064 6.25 7.25073 6.03051 6.86003 5.63981C6.46933 5.2491 6.24984 4.7192 6.24984 4.16667H3.12484V22.9167H21.8748V4.16667H18.7498ZM18.7498 2.08333H21.8748C22.1484 2.08333 22.4193 2.13722 22.6721 2.24192C22.9249 2.34662 23.1545 2.50007 23.348 2.69353C23.5414 2.88698 23.6949 3.11665 23.7996 3.36941C23.9043 3.62217 23.9582 3.89308 23.9582 4.16667V22.9167C23.9582 23.4692 23.7387 23.9991 23.348 24.3898C22.9573 24.7805 22.4274 25 21.8748 25H3.12484C2.5723 25 2.0424 24.7805 1.6517 24.3898C1.261 23.9991 1.0415 23.4692 1.0415 22.9167V4.16667C1.0415 3.89308 1.09539 3.62217 1.20009 3.36941C1.30479 3.11665 1.45824 2.88698 1.6517 2.69353C1.84515 2.50007 2.07482 2.34662 2.32758 2.24192C2.58034 2.13722 2.85125 2.08333 3.12484 2.08333H6.24984C6.24984 1.5308 6.46933 1.0009 6.86003 0.610194C7.25073 0.219493 7.78064 0 8.33317 0H16.6665C17.219 0 17.7489 0.219493 18.1396 0.610194C18.5303 1.0009 18.7498 1.5308 18.7498 2.08333ZM8.33317 2.08333V4.16667H16.6665V2.08333H8.33317ZM12.4998 13.1104L15.4457 10.1635C15.5425 10.0668 15.6573 9.98999 15.7838 9.93761C15.9103 9.88523 16.0458 9.85828 16.1826 9.85828C16.3195 9.85828 16.455 9.88523 16.5815 9.93761C16.7079 9.98999 16.8228 10.0668 16.9196 10.1635C17.0164 10.2603 17.0932 10.3752 17.1456 10.5017C17.1979 10.6281 17.2249 10.7637 17.2249 10.9005C17.2249 11.0374 17.1979 11.1729 17.1456 11.2994C17.0932 11.4258 17.0164 11.5407 16.9196 11.6375L13.9728 14.5833L16.9196 17.5292C17.1151 17.7246 17.2249 17.9897 17.2249 18.2661C17.2249 18.5426 17.1151 18.8077 16.9196 19.0031C16.7242 19.1986 16.4591 19.3084 16.1826 19.3084C15.9062 19.3084 15.6411 19.1986 15.4457 19.0031L12.4998 16.0562L9.554 19.0031C9.45722 19.0999 9.34233 19.1767 9.21587 19.2291C9.08942 19.2814 8.9539 19.3084 8.81703 19.3084C8.68016 19.3084 8.54463 19.2814 8.41817 19.2291C8.29172 19.1767 8.17683 19.0999 8.08005 19.0031C7.88459 18.8077 7.77478 18.5426 7.77478 18.2661C7.77478 18.1293 7.80174 17.9937 7.85412 17.8673C7.90649 17.7408 7.98326 17.6259 8.08005 17.5292L11.0269 14.5833L8.08005 11.6375C7.98326 11.5407 7.90649 11.4258 7.85412 11.2994C7.80174 11.1729 7.77478 11.0374 7.77478 10.9005C7.77478 10.7637 7.80174 10.6281 7.85412 10.5017C7.90649 10.3752 7.98326 10.2603 8.08005 10.1635C8.2755 9.96808 8.5406 9.85828 8.81703 9.85828C8.9539 9.85828 9.08942 9.88523 9.21587 9.93761C9.34233 9.98999 9.45722 10.0668 9.554 10.1635L12.4998 13.1104Z" fill="#2A4948"/>
</svg>
