<svg width="38" height="28" viewBox="0 0 38 28" fill="none" xmlns="http://www.w3.org/2000/svg">
<g clip-path="url(#clip0_715_5730)">
<path d="M33.1301 25.5751H8.62542C5.93525 25.5751 3.75537 23.3577 3.75537 20.6214V4.9537C3.75537 2.21732 5.93787 0 8.62542 0H33.1301C35.8202 0 38.0001 2.21732 38.0001 4.9537V20.6214C38.0001 23.3577 35.8202 25.5751 33.1301 25.5751Z" fill="#8C9D9D"/>
<path d="M33.1196 25.5749H7.82465C5.57673 25.5749 3.75537 23.7223 3.75537 21.4358V4.89504C3.75537 2.60851 5.57673 0.755859 7.82465 0.755859H33.1196C35.3675 0.755859 37.1889 2.60851 37.1889 4.89504V21.4358C37.1889 23.7223 35.3675 25.5749 33.1196 25.5749Z" fill="url(#paint0_linear_715_5730)"/>
<path opacity="0.86" d="M37.1889 7.26953H3.75537V10.5276H37.1889V7.26953Z" fill="white"/>
<path d="M7.41618 16.1336H6.37204C6.05277 16.1336 5.7937 15.8701 5.7937 15.5453V13.6288C5.7937 13.3041 6.05277 13.0405 6.37204 13.0405H7.41618C7.73544 13.0405 7.99451 13.3041 7.99451 13.6288V15.5453C7.99451 15.8701 7.73544 16.1336 7.41618 16.1336Z" fill="url(#paint1_linear_715_5730)"/>
<path d="M11.0485 16.1336H10.0044C9.6851 16.1336 9.42603 15.8701 9.42603 15.5453V13.6288C9.42603 13.3041 9.6851 13.0405 10.0044 13.0405H11.0485C11.3678 13.0405 11.6268 13.3041 11.6268 13.6288V15.5453C11.6268 15.8701 11.3678 16.1336 11.0485 16.1336Z" fill="url(#paint2_linear_715_5730)"/>
<path d="M14.6808 16.1336H13.6367C13.3174 16.1336 13.0583 15.8701 13.0583 15.5453V13.6288C13.0583 13.3041 13.3174 13.0405 13.6367 13.0405H14.6808C15.0001 13.0405 15.2592 13.3041 15.2592 13.6288V15.5453C15.2592 15.8701 15.0001 16.1336 14.6808 16.1336Z" fill="url(#paint3_linear_715_5730)"/>
<path d="M7.41618 15.91H6.37204C6.05277 15.91 5.7937 15.6465 5.7937 15.3217V13.6288C5.7937 13.3041 6.05277 13.0405 6.37204 13.0405H7.41618C7.73544 13.0405 7.99451 13.3041 7.99451 13.6288V15.3217C7.99451 15.6465 7.73544 15.91 7.41618 15.91Z" fill="white"/>
<path d="M11.0485 15.91H10.0044C9.6851 15.91 9.42603 15.6465 9.42603 15.3217V13.6288C9.42603 13.3041 9.6851 13.0405 10.0044 13.0405H11.0485C11.3678 13.0405 11.6268 13.3041 11.6268 13.6288V15.3217C11.6268 15.6465 11.3678 15.91 11.0485 15.91Z" fill="white"/>
<path d="M14.6808 15.91H13.6367C13.3174 15.91 13.0583 15.6465 13.0583 15.3217V13.6288C13.0583 13.3041 13.3174 13.0405 13.6367 13.0405H14.6808C15.0001 13.0405 15.2592 13.3041 15.2592 13.6288V15.3217C15.2592 15.6465 15.0001 15.91 14.6808 15.91Z" fill="white"/>
<path d="M33.4859 16.2188H26.8024C26.4753 16.2188 26.1953 16.4823 26.1508 16.8363L25.5567 21.3508C25.4992 21.7847 25.808 22.1706 26.2083 22.1706H32.8919C33.219 22.1706 33.499 21.9071 33.5435 21.5531L34.1375 17.0386C34.1951 16.6074 33.8863 16.2188 33.4859 16.2188Z" fill="url(#paint4_linear_715_5730)"/>
<path d="M33.4859 16.2188H26.8024C26.4753 16.2188 26.1953 16.4663 26.1508 16.799L25.5567 21.034C25.4992 21.4413 25.808 21.8033 26.2083 21.8033H32.8919C33.219 21.8033 33.499 21.5558 33.5435 21.223L34.1375 16.988C34.1951 16.5834 33.8863 16.2188 33.4859 16.2188Z" fill="white"/>
<path d="M27.7993 21.806H28.3803L29.1182 16.2188H28.5373L27.7993 21.806Z" fill="url(#paint5_linear_715_5730)"/>
<path d="M30.5967 21.806H31.1802L31.9182 16.2188H31.3346L30.5967 21.806Z" fill="url(#paint6_linear_715_5730)"/>
<path d="M29.3747 28.0001H4.87005C2.17988 28.0001 0 25.7828 0 23.0464V7.37873C0 4.64235 2.18249 2.42236 4.87005 2.42236H29.3747C32.0649 2.42236 34.2447 4.63968 34.2447 7.37607V23.0437C34.2447 25.7801 32.0649 27.9974 29.3747 27.9974V28.0001Z" fill="#8C9D9D"/>
<path d="M29.3642 28.0002H4.06928C1.82136 28.0002 0 26.1476 0 23.8611V7.32033C0 5.0338 1.82136 3.18115 4.06928 3.18115H29.3642C31.6121 3.18115 33.4335 5.0338 33.4335 7.32033V23.8611C33.4335 26.1476 31.6121 28.0002 29.3642 28.0002Z" fill="url(#paint7_linear_715_5730)"/>
<path opacity="0.86" d="M33.4335 9.69434H0V12.9524H33.4335V9.69434Z" fill="white"/>
<path d="M3.66374 18.556H2.61959C2.30033 18.556 2.04126 18.2924 2.04126 17.9677V16.0512C2.04126 15.7264 2.30033 15.4629 2.61959 15.4629H3.66374C3.983 15.4629 4.24207 15.7264 4.24207 16.0512V17.9677C4.24207 18.2924 3.983 18.556 3.66374 18.556Z" fill="url(#paint8_linear_715_5730)"/>
<path d="M7.2932 18.556H6.25167C5.93241 18.556 5.67334 18.2924 5.67334 17.9677V16.0512C5.67334 15.7264 5.93241 15.4629 6.25167 15.4629H7.29582C7.61508 15.4629 7.87415 15.7264 7.87415 16.0512V17.9677C7.87415 18.2924 7.61508 18.556 7.29582 18.556H7.2932Z" fill="url(#paint9_linear_715_5730)"/>
<path d="M10.923 18.556H9.87887C9.55961 18.556 9.30054 18.2924 9.30054 17.9677V16.0512C9.30054 15.7264 9.55961 15.4629 9.87887 15.4629H10.923C11.2423 15.4629 11.5013 15.7264 11.5013 16.0512V17.9677C11.5013 18.2924 11.2423 18.556 10.923 18.556Z" fill="url(#paint10_linear_715_5730)"/>
<path d="M3.66374 18.3348H2.61959C2.30033 18.3348 2.04126 18.0713 2.04126 17.7465V16.0536C2.04126 15.7289 2.30033 15.4653 2.61959 15.4653H3.66374C3.983 15.4653 4.24207 15.7289 4.24207 16.0536V17.7465C4.24207 18.0713 3.983 18.3348 3.66374 18.3348Z" fill="white"/>
<path d="M7.2932 18.3348H6.25167C5.93241 18.3348 5.67334 18.0713 5.67334 17.7465V16.0536C5.67334 15.7289 5.93241 15.4653 6.25167 15.4653H7.29582C7.61508 15.4653 7.87415 15.7289 7.87415 16.0536V17.7465C7.87415 18.0713 7.61508 18.3348 7.29582 18.3348H7.2932Z" fill="white"/>
<path d="M10.9255 18.3348H9.88131C9.56205 18.3348 9.30298 18.0713 9.30298 17.7465V16.0536C9.30298 15.7289 9.56205 15.4653 9.88131 15.4653H10.9255C11.2447 15.4653 11.5038 15.7289 11.5038 16.0536V17.7465C11.5038 18.0713 11.2447 18.3348 10.9255 18.3348Z" fill="white"/>
<path d="M29.7306 18.6436H23.047C22.7199 18.6436 22.4399 18.9071 22.3954 19.2611L21.8014 23.7756C21.7438 24.2095 22.0526 24.5955 22.453 24.5955H29.1365C29.4636 24.5955 29.7436 24.3319 29.7881 23.9779L30.3822 19.4634C30.4397 19.0295 30.131 18.6436 29.7306 18.6436Z" fill="#8C9D9D"/>
<path d="M29.7306 18.6436H23.047C22.7199 18.6436 22.4399 18.8911 22.3954 19.2238L21.8014 23.4588C21.7438 23.8661 22.0526 24.2281 22.453 24.2281H29.1365C29.4636 24.2281 29.7436 23.9806 29.7881 23.6478L30.3822 19.4128C30.4397 19.0056 30.131 18.6436 29.7306 18.6436Z" fill="white"/>
<path d="M24.0442 24.2281H24.6251L25.3631 18.6436H24.7822L24.0442 24.2281Z" fill="#8C9D9D"/>
<path d="M26.8416 24.2281H27.4251L28.1631 18.6436H27.5795L26.8416 24.2281Z" fill="#8C9D9D"/>
</g>
<defs>
<linearGradient id="paint0_linear_715_5730" x1="11.7552" y1="-2.19081" x2="29.6382" y2="28.2632" gradientUnits="userSpaceOnUse">
<stop offset="0.12" stop-color="#406564" stop-opacity="0.5"/>
<stop offset="0.86" stop-color="#2A4948"/>
</linearGradient>
<linearGradient id="paint1_linear_715_5730" x1="8.03638" y1="15.7476" x2="5.71563" y2="13.4687" gradientUnits="userSpaceOnUse">
<stop offset="0.15" stop-color="#AFC5D8"/>
<stop offset="1" stop-color="#DFE8F9"/>
</linearGradient>
<linearGradient id="paint2_linear_715_5730" x1="11.6687" y1="15.7476" x2="9.34796" y2="13.4687" gradientUnits="userSpaceOnUse">
<stop offset="0.15" stop-color="#AFC5D8"/>
<stop offset="1" stop-color="#DFE8F9"/>
</linearGradient>
<linearGradient id="paint3_linear_715_5730" x1="15.2984" y1="15.7476" x2="12.9803" y2="13.4686" gradientUnits="userSpaceOnUse">
<stop offset="0.15" stop-color="#AFC5D8"/>
<stop offset="1" stop-color="#DFE8F9"/>
</linearGradient>
<linearGradient id="paint4_linear_715_5730" x1="29.8458" y1="22.1733" x2="29.8458" y2="16.2214" gradientUnits="userSpaceOnUse">
<stop offset="0.15" stop-color="#AFC5D8"/>
<stop offset="1" stop-color="#DFE8F9"/>
</linearGradient>
<linearGradient id="paint5_linear_715_5730" x1="29.5893" y1="19.6765" x2="27.3092" y2="18.3819" gradientUnits="userSpaceOnUse">
<stop offset="0.15" stop-color="#AFC5D8"/>
<stop offset="1" stop-color="#DFE8F9"/>
</linearGradient>
<linearGradient id="paint6_linear_715_5730" x1="32.3866" y1="19.6765" x2="30.1065" y2="18.3819" gradientUnits="userSpaceOnUse">
<stop offset="0.15" stop-color="#AFC5D8"/>
<stop offset="1" stop-color="#DFE8F9"/>
</linearGradient>
<linearGradient id="paint7_linear_715_5730" x1="7.99986" y1="0.231823" x2="25.8855" y2="30.6857" gradientUnits="userSpaceOnUse">
<stop offset="0.12" stop-color="#406564" stop-opacity="0.5"/>
<stop offset="0.86" stop-color="#2A4948"/>
</linearGradient>
<linearGradient id="paint8_linear_715_5730" x1="4.28133" y1="18.1727" x2="1.96319" y2="15.8937" gradientUnits="userSpaceOnUse">
<stop offset="0.12" stop-color="#F0DFE2"/>
<stop offset="0.86" stop-color="#DBBFCD"/>
</linearGradient>
<linearGradient id="paint9_linear_715_5730" x1="7.91341" y1="18.1727" x2="5.59265" y2="15.8937" gradientUnits="userSpaceOnUse">
<stop offset="0.12" stop-color="#F0DFE2"/>
<stop offset="0.86" stop-color="#DBBFCD"/>
</linearGradient>
<linearGradient id="paint10_linear_715_5730" x1="11.5432" y1="18.1727" x2="9.22247" y2="15.8937" gradientUnits="userSpaceOnUse">
<stop offset="0.12" stop-color="#F0DFE2"/>
<stop offset="0.86" stop-color="#DBBFCD"/>
</linearGradient>
<clipPath id="clip0_715_5730">
<rect width="38" height="28" fill="white"/>
</clipPath>
</defs>
</svg>
