<svg width="9" height="6" viewBox="0 0 9 6" fill="none" xmlns="http://www.w3.org/2000/svg">
  <path d="M8.13243 0.772385L4.50017 4.61843L0.867573 0.772384C0.823033 0.725218 0.769425 0.687088 0.709808 0.660171C0.650191 0.633253 0.585733 0.618075 0.520114 0.615504C0.454495 0.612932 0.389001 0.623018 0.327371 0.645184C0.26574 0.667351 0.20918 0.701164 0.16092 0.744694C0.11266 0.788223 0.0736456 0.840617 0.0461035 0.898882C0.0185623 0.957148 0.00303169 1.02014 0.000401453 1.08428C-0.00222974 1.14841 0.00808996 1.21242 0.0307702 1.27265C0.0534505 1.33288 0.0880489 1.38816 0.132587 1.43533L4.13251 5.67035C4.17933 5.71995 4.23615 5.75953 4.2994 5.78661C4.36265 5.81368 4.43095 5.82766 4.5 5.82766C4.56905 5.82766 4.63735 5.81368 4.7006 5.78661C4.76385 5.75953 4.82067 5.71995 4.86749 5.67035L8.86741 1.43533C8.95736 1.34007 9.00491 1.2138 8.9996 1.08428C8.99428 0.954758 8.93654 0.832606 8.83908 0.744694C8.74161 0.656783 8.61241 0.610312 8.47988 0.615505C8.34736 0.620698 8.22238 0.677129 8.13243 0.772385Z" fill="currentColor" fill-opacity="0.8" />
</svg>
