<svg width="6" height="9" viewBox="0 0 6 9" fill="none" xmlns="http://www.w3.org/2000/svg">
  <path d="M0.157273 0.867573L4.00332 4.49983L0.157273 8.13243C0.110107 8.17697 0.0719766 8.23057 0.045059 8.29019C0.0181415 8.34981 0.00296356 8.41427 0.000392259 8.47989C-0.00217904 8.5455 0.00790658 8.611 0.030073 8.67263C0.0522394 8.73426 0.0860526 8.79082 0.129582 8.83908C0.173112 8.88734 0.225505 8.92635 0.283771 8.9539C0.342036 8.98144 0.405033 8.99697 0.469164 8.9996C0.533296 9.00223 0.597306 8.99191 0.657539 8.96923C0.717773 8.94655 0.77305 8.91195 0.820216 8.86741L5.05524 4.86749C5.10484 4.82067 5.14442 4.76385 5.1715 4.7006C5.19857 4.63735 5.21255 4.56905 5.21255 4.5C5.21255 4.43095 5.19857 4.36265 5.1715 4.2994C5.14442 4.23615 5.10484 4.17933 5.05524 4.13251L0.820216 0.132588C0.724961 0.0426373 0.598683 -0.00491153 0.469164 0.000401895C0.339645 0.00571532 0.217494 0.0634558 0.129582 0.160921C0.0416704 0.258386 -0.00480017 0.387592 0.000392803 0.520115C0.00558578 0.652638 0.0620169 0.777623 0.157273 0.867573Z" fill="#2A4948" fill-opacity="0.9" />
</svg>
