<svg width="17" height="17" viewBox="0 0 17 17" fill="none" xmlns="http://www.w3.org/2000/svg">
<path d="M10.2818 6.34853C10.1556 6.22238 10.0211 6.10866 9.88247 6.00322L9.88222 6.00345C9.73956 5.86624 9.54585 5.78174 9.33228 5.78174C8.89396 5.78174 8.53866 6.13706 8.53866 6.57537C8.53866 6.76931 8.60832 6.94695 8.7239 7.0848H8.72388C8.7239 7.08482 8.72394 7.08486 8.72399 7.08488C8.77951 7.15111 8.84556 7.2082 8.91972 7.25339C8.99455 7.3151 9.06801 7.37587 9.13669 7.44456L9.20212 7.51C10.0246 8.33151 9.77909 9.74687 8.95656 10.5694L5.44667 14.0783C4.62416 14.8998 3.28695 14.8998 2.4644 14.0783L2.39845 14.0123C1.57588 13.1898 1.57588 11.8516 2.39845 11.0311L3.9491 9.48094C4.14805 9.32302 4.27577 9.07929 4.27577 8.80559C4.27577 8.32952 3.88986 7.94361 3.41379 7.94361C3.23414 7.94361 3.06739 7.9986 2.92931 8.09262C2.92887 8.0917 2.92841 8.09082 2.92795 8.08988L2.91142 8.10534C2.85038 8.14923 2.79519 8.20069 2.74753 8.2587L1.13607 9.76659C-0.378691 11.2824 -0.378691 13.7615 1.13607 15.2752L1.2015 15.3406C2.71627 16.8543 5.19432 16.8543 6.70908 15.3406L10.2179 11.8307C11.7306 10.316 11.8589 7.92664 10.3462 6.41292L10.2818 6.34853Z" fill="currentColor"/>
<path d="M15.3395 1.2015L15.2741 1.13607C13.7594 -0.378691 11.2813 -0.378691 9.76654 1.13607L6.25768 4.64595C4.74292 6.16072 4.6595 8.34812 6.17427 9.86387L6.23865 9.92727C6.30744 9.99604 6.37884 10.0609 6.45173 10.1231C6.50449 10.182 6.56647 10.2324 6.63537 10.2723C6.63589 10.2728 6.63643 10.2732 6.63696 10.2736L6.63719 10.2734C6.747 10.3365 6.87424 10.3729 7.01002 10.3729C7.42381 10.3729 7.75924 10.0374 7.75924 9.62364C7.75924 9.50685 7.7325 9.39631 7.68481 9.29776C7.58576 9.07536 7.40035 8.93997 7.27211 8.81171L7.2077 8.74835C6.3852 7.92584 6.69754 6.73088 7.52004 5.90837L11.031 2.3995C11.8514 1.57695 13.1891 1.57695 14.0117 2.3995L14.0771 2.46388C14.8997 3.28645 14.8997 4.62516 14.0771 5.44666L12.5316 6.99328C12.3213 7.14906 12.185 7.39894 12.185 7.68069C12.185 8.15289 12.5678 8.53571 13.04 8.53571C13.2043 8.53571 13.3578 8.48923 13.4881 8.40887C13.4891 8.41054 13.49 8.41209 13.491 8.41378L13.515 8.39165C13.5888 8.34221 13.6544 8.2815 13.7095 8.21211L15.3384 6.70908C16.8543 5.19434 16.8543 2.71625 15.3395 1.2015Z" fill="currentColor"/>
</svg>
