<svg width="24" height="28" viewBox="0 0 24 28" fill="none" xmlns="http://www.w3.org/2000/svg">
<path d="M4.13 1H19.02C20.74 1 22.15 2.53 22.15 4.41V18.04C22.15 19.91 20.74 21.45 19.02 21.45H4.13C2.41 21.45 1 19.92 1 18.04V4.41C1 2.54 2.41 1 4.13 1Z" fill="#2A4948" stroke="#2A4948" stroke-width="2"/>
<path d="M2.87988 25.92H20.6799" stroke="#2A4948" stroke-width="2.5" stroke-linecap="round" stroke-linejoin="round"/>
<path d="M6.77988 17.78C6.27988 17.78 5.87988 17.38 5.87988 16.88V11.88C5.87988 11.38 6.27988 10.98 6.77988 10.98C7.27988 10.98 7.67988 11.38 7.67988 11.88V16.88C7.67988 17.38 7.27988 17.78 6.77988 17.78Z" fill="white"/>
<path d="M10.8799 16.88C10.8799 17.38 11.2799 17.78 11.7799 17.78C12.2799 17.78 12.6799 17.38 12.6799 16.88V6.88C12.6799 6.38 12.2799 5.98 11.7799 5.98C11.2799 5.98 10.8799 6.38 10.8799 6.88V16.88Z" fill="white"/>
<path d="M16.7799 17.78C16.2799 17.78 15.8799 17.49 15.8799 17.12V9.81C15.8799 9.44 16.2799 9.15 16.7799 9.15C17.2799 9.15 17.6799 9.44 17.6799 9.81V17.12C17.6799 17.49 17.2799 17.78 16.7799 17.78Z" fill="white"/>
</svg>
