<svg width="21" height="21" viewBox="0 0 21 21" fill="none" xmlns="http://www.w3.org/2000/svg">
<path d="M18.2463 0H2.06553C0.926591 0 0 0.926591 0 2.06553V18.9345C0 20.0734 0.926591 21 2.06553 21H9.26497C9.64532 21 9.95341 20.6917 9.95341 20.3116C9.95341 19.9312 9.64509 19.6231 9.26497 19.6231H2.06553C1.68588 19.6231 1.3771 19.3144 1.3771 18.9347V2.06553C1.3771 1.68588 1.68612 1.3771 2.06553 1.3771H18.2463C18.6259 1.3771 18.9347 1.68588 18.9347 2.06553V9.98626C18.9347 10.3666 19.243 10.6747 19.6231 10.6747C20.0035 10.6747 20.3116 10.3664 20.3116 9.98626V2.06553C20.3118 0.926591 19.3852 0 18.2463 0Z" fill="#2A4949"/>
<path d="M3.03487 6.19687H15.2265C15.6069 6.19687 15.9149 5.88856 15.9149 5.50844C15.9149 5.12809 15.6066 4.82001 15.2265 4.82001H3.03487C2.65452 4.82001 2.34644 5.12832 2.34644 5.50844C2.34644 5.88856 2.65475 6.19687 3.03487 6.19687ZM12.0448 10.1559C12.0448 9.77559 11.7365 9.46751 11.3564 9.46751H3.03487C2.65452 9.46751 2.34644 9.77583 2.34644 10.1559C2.34644 10.5361 2.65475 10.8444 3.03487 10.8444H11.3561C11.7365 10.8444 12.0448 10.5361 12.0448 10.1559ZM3.03487 13.7708C2.65452 13.7708 2.34644 14.0791 2.34644 14.4592C2.34644 14.8393 2.65475 15.1477 3.03487 15.1477H7.79242C8.17277 15.1477 8.48085 14.8393 8.48085 14.4592C8.48085 14.0791 8.17253 13.7708 7.79242 13.7708H3.03487ZM15.4961 11.5354C12.9334 11.5354 10.8486 13.6204 10.8486 16.1829C10.8486 18.7454 12.9334 20.8304 15.4961 20.8304C18.0588 20.8304 20.1436 18.7454 20.1436 16.1829C20.1436 13.6204 18.0588 11.5354 15.4961 11.5354ZM15.4961 19.798C13.5028 19.798 11.8812 18.1764 11.8812 16.1831C11.8812 14.1899 13.5028 12.5683 15.4961 12.5683C17.4894 12.5683 19.111 14.1899 19.111 16.1831C19.111 18.1764 17.4894 19.798 15.4961 19.798Z" fill="#2A4949"/>
<path d="M17.4579 14.4078L15.0026 16.8631L13.5345 15.3949C13.3327 15.1932 13.0061 15.1932 12.8043 15.3949C12.6025 15.5965 12.6025 15.9236 12.8043 16.1251L14.6375 17.9584C14.7384 18.0593 14.8705 18.1097 15.0026 18.1097C15.1347 18.1097 15.2668 18.0593 15.3677 17.9584L18.1881 15.138C18.3899 14.9365 18.3899 14.6094 18.1881 14.4078C17.9863 14.206 17.6595 14.206 17.4579 14.4078Z" fill="#2A4949"/>
</svg>
