<svg width="13" height="13" viewBox="0 0 13 13" fill="currentColor" xmlns="http://www.w3.org/2000/svg">
  <path d="M6.49997 0.837646C3.37753 0.837646 0.837646 3.37753 0.837646 6.49997C0.837646 9.62241 3.37753 12.1623 6.49997 12.1623C9.62241 12.1623 12.1623 9.62241 12.1623 6.49997C12.1623 3.37753 9.62241 0.837646 6.49997 0.837646ZM6.90623 9.34373C6.90623 9.56838 6.72464 9.74999 6.49997 9.74999C6.27529 9.74999 6.09371 9.5684 6.09371 9.34373V5.68747C6.09371 5.46281 6.27529 5.28121 6.49997 5.28121C6.72462 5.28121 6.90623 5.46279 6.90623 5.68747V9.34373ZM6.49997 4.46873C6.16359 4.46873 5.89059 4.19531 5.89059 3.85935C5.89059 3.52258 6.16359 3.24997 6.49997 3.24997C6.83634 3.24997 7.10935 3.52255 7.10935 3.85935C7.10935 4.19531 6.83634 4.46873 6.49997 4.46873Z" fill="currentColor" />
</svg>
