<svg width="11" height="13" viewBox="0 0 11 13" fill="none" xmlns="http://www.w3.org/2000/svg">
<path d="M7.4747 6.49252L10.7876 1.80976C10.9598 1.56635 11.0316 1.26224 10.9872 0.964167C10.9428 0.666095 10.7858 0.398413 10.5508 0.219862C10.3625 0.0770215 10.1351 9.53856e-07 9.90162 0H1.09843C0.49186 0 0 0.509275 0 1.1375C0 1.3793 0.0743289 1.61476 0.212301 1.80976L3.52536 6.49252V12.5125C3.52536 12.7818 3.73609 13 3.99616 13C4.12108 12.9999 4.24084 12.9484 4.3291 12.857C4.41736 12.7656 4.46689 12.6417 4.46681 12.5125V6.33295C4.46681 6.22944 4.43491 6.12852 4.37582 6.04484L0.971776 1.23354C0.954683 1.20931 0.944398 1.18067 0.94206 1.15078C0.939722 1.12088 0.945421 1.0909 0.958527 1.06415C0.971633 1.0374 0.991637 1.01491 1.01633 0.999181C1.04102 0.983447 1.06943 0.975079 1.09843 0.975H9.90162C9.93063 0.97505 9.95907 0.983404 9.98377 0.999137C10.0085 1.01487 10.0285 1.03737 10.0416 1.06414C10.0547 1.0909 10.0604 1.1209 10.058 1.1508C10.0556 1.1807 10.0453 1.20934 10.0281 1.23354L6.62408 6.04484C6.56494 6.12845 6.53308 6.22936 6.53309 6.33295V11.1381C6.53309 11.4073 6.74382 11.6256 7.00389 11.6256C7.06576 11.6255 7.12702 11.6129 7.18416 11.5884C7.2413 11.5638 7.29321 11.5279 7.33693 11.4827C7.38065 11.4374 7.41532 11.3837 7.43895 11.3245C7.46259 11.2654 7.47474 11.2021 7.4747 11.1381V6.49252Z" fill="#2A4949"/>
</svg>
