<svg width="15" height="15" viewBox="0 0 15 15" fill="none" xmlns="http://www.w3.org/2000/svg">
<g clip-path="url(#clip0_348_9497)">
<path d="M14.0632 7.64573C14.0632 7.10615 14.0185 6.7124 13.9218 6.30408H7.63464V8.73946H11.3251C11.2507 9.34469 10.8489 10.2562 9.95605 10.8686L9.94354 10.9502L11.9314 12.4594L12.0692 12.4728C13.334 11.328 14.0632 9.64364 14.0632 7.64573Z" fill="#4285F4"/>
<path d="M7.63424 14.0625C9.44224 14.0625 10.9601 13.4791 12.0687 12.4729L9.95564 10.8687C9.39018 11.2551 8.63123 11.5249 7.63424 11.5249C5.86342 11.5249 4.36046 10.3802 3.8247 8.79785L3.74617 8.80439L1.67913 10.3721L1.6521 10.4458C2.75327 12.5895 5.01518 14.0625 7.63424 14.0625Z" fill="#34A853"/>
<path d="M3.82498 8.79792C3.68362 8.38959 3.6018 7.95206 3.6018 7.5C3.6018 7.04789 3.68362 6.6104 3.81755 6.20208L3.8138 6.11511L1.72086 4.52222L1.65238 4.55414C1.19853 5.44373 0.93811 6.44271 0.93811 7.5C0.93811 8.55729 1.19853 9.55621 1.65238 10.4458L3.82498 8.79792Z" fill="#FBBC05"/>
<path d="M7.63427 3.47498C8.89169 3.47498 9.73989 4.00727 10.2235 4.45209L12.1134 2.64375C10.9527 1.58646 9.44228 0.9375 7.63427 0.9375C5.01519 0.9375 2.75328 2.41041 1.6521 4.55414L3.81727 6.20208C4.36048 4.61979 5.86344 3.47498 7.63427 3.47498Z" fill="#EB4335"/>
</g>
<defs>
<clipPath id="clip0_348_9497">
<rect width="15" height="15" fill="white"/>
</clipPath>
</defs>
</svg>
