<svg width="11" height="11" viewBox="0 0 11 11" fill="none" xmlns="http://www.w3.org/2000/svg">
<path d="M7.57351 0.494473C6.91617 0.222191 6.21151 0.0824743 5.50001 0.0833476C2.50838 0.0833476 0.0833435 2.50839 0.0833435 5.50001C0.0833435 8.49164 2.50838 10.9167 5.50001 10.9167C8.49163 10.9167 10.9167 8.49164 10.9167 5.50001C10.9167 4.7796 10.7758 4.07814 10.5056 3.42651C10.477 3.36169 10.4242 3.31062 10.3585 3.28424C10.2928 3.25787 10.2193 3.2583 10.1539 3.28543C10.0885 3.31256 10.0363 3.36424 10.0085 3.42939C9.98075 3.49454 9.9796 3.56798 10.0053 3.63397C10.2503 4.22556 10.3759 4.85972 10.375 5.50001C10.375 8.19237 8.19236 10.375 5.50001 10.375C2.80766 10.375 0.62501 8.19237 0.62501 5.50001C0.62501 2.80766 2.80766 0.625014 5.50001 0.625014C6.14893 0.625014 6.7797 0.751764 7.36605 0.994702C7.43204 1.02043 7.50548 1.01928 7.57063 0.991505C7.63578 0.96373 7.68746 0.91154 7.71459 0.846118C7.74173 0.780696 7.74215 0.707249 7.71578 0.641517C7.68941 0.575785 7.63834 0.523 7.57351 0.494473ZM6.07905 6.19687C6.02511 6.21732 5.97215 6.24027 5.92034 6.26566C5.87397 6.28665 5.8347 6.32065 5.8073 6.36354C5.77989 6.40642 5.76553 6.45635 5.76597 6.50724C5.76461 6.55356 5.76651 6.60149 5.75622 6.64618C5.7267 6.77699 5.60184 6.86637 5.47509 6.85283C5.40829 6.84752 5.34586 6.81754 5.29995 6.76873C5.25404 6.71992 5.22794 6.65576 5.22674 6.58876C5.21211 6.20743 5.37082 5.92956 5.71695 5.76354C5.76355 5.74056 5.81127 5.71995 5.85995 5.70179C6.3293 5.53251 6.62288 5.06804 6.57088 4.57647C6.51861 4.08247 6.12943 3.68056 5.64138 3.61664C5.49097 3.59663 5.33802 3.60843 5.19245 3.65129C5.04689 3.69414 4.91194 3.76709 4.79636 3.86541C4.68078 3.96373 4.58714 4.08524 4.5215 4.22205C4.45586 4.35886 4.41969 4.50794 4.41532 4.65962C4.41424 4.69483 4.41261 4.73139 4.40313 4.76524C4.38558 4.82687 4.34654 4.88016 4.29308 4.91549C4.23963 4.95081 4.17529 4.96582 4.11172 4.95781C4.04505 4.94961 3.98385 4.91683 3.94007 4.86589C3.89629 4.81495 3.87309 4.74951 3.87501 4.68237C3.87988 4.28424 4.00447 3.92647 4.27043 3.63018C4.70728 3.14322 5.25626 2.95851 5.88947 3.11885C6.52863 3.28081 6.92486 3.70791 7.07924 4.35168C7.10551 4.46164 7.11038 4.57674 7.12501 4.68968C7.11066 5.36568 6.7063 5.95258 6.07905 6.19687ZM5.22918 7.66668C5.22907 7.63108 5.236 7.59582 5.24957 7.56291C5.26315 7.53 5.28309 7.5001 5.30826 7.47493C5.33343 7.44976 5.36333 7.42982 5.39624 7.41624C5.42915 7.40267 5.46441 7.39574 5.50001 7.39585C5.64951 7.39585 5.77084 7.51583 5.77084 7.66641V7.93779C5.77091 7.97336 5.76396 8.0086 5.75037 8.04147C5.73678 8.07435 5.71683 8.10422 5.69166 8.12936C5.66649 8.1545 5.63661 8.17442 5.60372 8.18798C5.57083 8.20153 5.53558 8.20845 5.50001 8.20835C5.35051 8.20835 5.22918 8.08837 5.22918 7.93779V7.66641V7.66668Z" fill="#2A4948"/>
</svg>
