<svg width="21" height="18" viewBox="0 0 21 18" fill="none" xmlns="http://www.w3.org/2000/svg">
<path d="M18.5231 0.153809H1.54359C1.1342 0.153809 0.741586 0.316436 0.452107 0.605916C0.162628 0.895395 0 1.28801 0 1.6974V15.5897C0 15.9991 0.162628 16.3917 0.452107 16.6812C0.741586 16.9707 1.1342 17.1333 1.54359 17.1333H18.5231C18.9325 17.1333 19.3251 16.9707 19.6146 16.6812C19.904 16.3917 20.0667 15.9991 20.0667 15.5897V1.6974C20.0667 1.28801 19.904 0.895395 19.6146 0.605916C19.3251 0.316436 18.9325 0.153809 18.5231 0.153809ZM1.54359 1.6974H18.5231V15.5897H1.54359V1.6974Z" fill="#2A4949"/>
<path d="M6.56001 5.55637C6.56001 5.86341 6.43804 6.15788 6.22093 6.37499C6.00382 6.5921 5.70936 6.71407 5.40232 6.71407C5.09528 6.71407 4.80082 6.5921 4.58371 6.37499C4.3666 6.15788 4.24463 5.86341 4.24463 5.55637C4.24463 5.24934 4.3666 4.95487 4.58371 4.73776C4.80082 4.52065 5.09528 4.39868 5.40232 4.39868C5.70936 4.39868 6.00382 4.52065 6.22093 4.73776C6.43804 4.95487 6.56001 5.24934 6.56001 5.55637Z" fill="#2A4949"/>
<path d="M15.436 6.32825L16.5273 7.41956L11.8965 12.0503C11.7518 12.195 11.5555 12.2763 11.3509 12.2763C11.1462 12.2763 10.9499 12.195 10.8052 12.0503L8.26368 9.5092L4.56446 13.208L3.47314 12.1167L7.71802 7.87184C7.86275 7.72715 8.05902 7.64587 8.26368 7.64587C8.46833 7.64587 8.6646 7.72715 8.80933 7.87184L11.3509 10.413L15.436 6.32825Z" fill="#2A4949"/>
</svg>
