<svg width="21" height="22" viewBox="0 0 21 22" fill="none" xmlns="http://www.w3.org/2000/svg">
<g clip-path="url(#clip0_296_11643)">
<path d="M7.19783 11.0043L11.2108 8.25749V9.90556H19.4339V12.1081H11.1544V13.7579L7.19783 11.0043ZM4.66113 11.0043L12.7222 16.5974V13.5622H21.0017V8.42573H12.7222V5.41113L4.66113 11.0043Z" fill="url(#paint0_linear_296_11643)"/>
<path d="M13.4058 20.491H2.06988C1.92675 20.491 1.78946 20.4357 1.68809 20.3372C1.58672 20.2388 1.52953 20.1051 1.52907 19.9657V2.02575C1.5339 1.88747 1.59242 1.75613 1.69282 1.65829C1.79321 1.56046 1.92798 1.50342 2.06988 1.49871H13.4058C13.5159 1.51505 13.6283 1.50801 13.7354 1.47807C13.8425 1.44813 13.9417 1.39601 14.0261 1.32525C14.1106 1.2545 14.1784 1.1668 14.2249 1.06814C14.2714 0.969486 14.2955 0.862208 14.2955 0.753648C14.2955 0.645089 14.2714 0.53781 14.2249 0.439155C14.1784 0.340499 14.1106 0.252794 14.0261 0.182043C13.9417 0.111291 13.8425 0.0591629 13.7354 0.0292249C13.6283 -0.000713166 13.5159 -0.00775415 13.4058 0.00858373H2.06988C1.52233 0.013068 0.998523 0.22703 0.611339 0.604355C0.224155 0.981679 0.00460144 1.49215 1.32524e-09 2.02575L1.32524e-09 19.9657C-1.96041e-05 20.5022 0.217492 21.0171 0.605171 21.3981C0.99285 21.7791 1.5193 21.9955 2.06988 22H13.4058C13.6047 21.9907 13.7924 21.9072 13.9298 21.7667C14.0672 21.6263 14.1439 21.4396 14.1439 21.2455C14.1439 21.0514 14.0672 20.8647 13.9298 20.7243C13.7924 20.5838 13.6047 20.5002 13.4058 20.491Z" fill="url(#paint1_linear_296_11643)"/>
</g>
<defs>
<linearGradient id="paint0_linear_296_11643" x1="4.66113" y1="11.0043" x2="20.9999" y2="11.0043" gradientUnits="userSpaceOnUse">
<stop stop-color="#2A4948"/>
<stop offset="1" stop-color="#2A4948" stop-opacity="0.5"/>
</linearGradient>
<linearGradient id="paint1_linear_296_11643" x1="1.32524e-09" y1="10.9991" x2="14.2971" y2="10.9991" gradientUnits="userSpaceOnUse">
<stop stop-color="#2A4948"/>
<stop offset="1" stop-color="#2A4948" stop-opacity="0.5"/>
</linearGradient>
<clipPath id="clip0_296_11643">
<rect width="21" height="22" fill="white"/>
</clipPath>
</defs>
</svg>
