<svg width="15" height="15" viewBox="0 0 15 15" fill="none" xmlns="http://www.w3.org/2000/svg">
<path d="M15 2.14313C15 0.959516 14.0405 0 12.8569 0H2.14313C0.959516 0 0 0.959516 0 2.14313V12.8569C0 14.0405 0.959516 15 2.14313 15H12.8569C14.0405 15 15 14.0405 15 12.8569V2.14313ZM1.38593 1.38508C1.48552 1.2851 1.60393 1.20584 1.73431 1.15185C1.8647 1.09787 2.00449 1.07025 2.14561 1.07056H12.8583C12.9992 1.07071 13.1386 1.09859 13.2686 1.15263C13.3987 1.20666 13.5168 1.28578 13.6163 1.38548C13.7157 1.48518 13.7946 1.60349 13.8483 1.73367C13.9021 1.86384 13.9296 2.00332 13.9294 2.14415V6.96774C13.9294 6.96774 13.9299 6.96774 13.9294 6.96774H13.0834L12.1665 6.05171C12.102 5.98721 12.022 5.94027 11.9343 5.91535C11.8465 5.89044 11.7538 5.88837 11.665 5.90935C11.5762 5.93033 11.4942 5.97366 11.4269 6.03522C11.3596 6.09679 11.3091 6.17455 11.2802 6.26111L10.6175 8.25L9.05232 5.1196C9.00617 5.02729 8.93433 4.9503 8.84544 4.89788C8.75655 4.84546 8.6544 4.81985 8.55129 4.82414C8.44819 4.82843 8.34852 4.86243 8.26429 4.92205C8.18006 4.98167 8.11485 5.06437 8.07653 5.16018L6.5149 9.06417L4.80194 3.06865C4.7723 2.96496 4.71205 2.87265 4.62906 2.80379C4.54607 2.73493 4.44422 2.69275 4.33684 2.68276C4.22947 2.67277 4.12159 2.69544 4.02732 2.74781C3.93305 2.80017 3.8568 2.87979 3.80855 2.97623L1.81167 6.96563L1.07056 6.96774V2.14415C1.07038 2.00307 1.09815 1.86335 1.15228 1.73306C1.20641 1.60277 1.28582 1.4845 1.38593 1.38508ZM13.6158 13.6166C13.5165 13.7163 13.3984 13.7953 13.2683 13.849C13.1382 13.9027 12.9988 13.93 12.8581 13.9293H2.14561C1.85909 13.9293 1.58855 13.8192 1.38593 13.6166C1.18331 13.414 1.07056 13.1463 1.07056 12.8598V8.03831L2.1444 8.03528C2.24361 8.03501 2.34081 8.00721 2.42517 7.95498C2.50953 7.90276 2.57774 7.82815 2.62222 7.73946L4.15022 4.68556L5.91532 10.8637C5.94602 10.971 6.00951 11.0661 6.09691 11.1356C6.18431 11.2051 6.29125 11.2455 6.40276 11.2512C6.41196 11.2517 6.42113 11.2519 6.43028 11.2519C6.53724 11.2519 6.64173 11.2198 6.7303 11.1599C6.81886 11.0999 6.88742 11.0148 6.92716 10.9155L8.6276 6.66435L10.2377 9.88446C10.285 9.97916 10.3594 10.0577 10.4514 10.1101C10.5433 10.1626 10.6488 10.1866 10.7544 10.179C10.86 10.1715 10.961 10.1329 11.0447 10.068C11.1283 10.0031 11.1908 9.9148 11.2243 9.81435L12.0221 7.42089L12.4834 7.88171C12.5839 7.98202 12.72 8.03834 12.8619 8.03831H13.9294C13.9299 8.03831 13.9294 8.03831 13.9294 8.03831V12.8598C13.9299 13.0004 13.9025 13.1398 13.8487 13.2697C13.7949 13.3997 13.7158 13.5176 13.616 13.6167L13.6158 13.6166Z" fill="#2A4948"/>
</svg>
