<svg width="12" height="9" viewBox="0 0 12 9" fill="none" xmlns="http://www.w3.org/2000/svg">
<g clip-path="url(#clip0_348_9129)">
<path d="M0 0H12V9H0V0Z" fill="#B81C22"/>
<path d="M1.44002 3.32999L2.25001 0.899994L3.06 3.32999L0.900024 1.84499H3.59999L1.44002 3.32999Z" fill="#FFFF00"/>
<path d="M4.95321 0.946568L4.11963 1.1313L4.67566 0.483358L4.62112 1.3554L4.15854 0.58338L4.95321 0.946568Z" fill="#FFFF00"/>
<path d="M5.79447 2.01277L4.95449 1.85974L5.71829 1.47817L5.32982 2.2608L5.20286 1.3698L5.79447 2.01277Z" fill="#FFFF00"/>
<path d="M5.67189 3.50858L4.96736 3.02627L5.82037 2.9894L5.14648 3.54554L5.39395 2.68023L5.67189 3.50858Z" fill="#FFFF00"/>
<path d="M4.6123 4.48577L4.14873 3.76876L4.94978 4.06422L4.11339 4.31692L4.67586 3.61434L4.6123 4.48577Z" fill="#FFFF00"/>
</g>
<defs>
<clipPath id="clip0_348_9129">
<rect width="12" height="9" rx="0.3" fill="white"/>
</clipPath>
</defs>
</svg>
