<svg width="15" height="15" viewBox="0 0 15 15" fill="none" xmlns="http://www.w3.org/2000/svg">
<path d="M15 2.86325C15 1.2819 13.7181 0 12.1368 0H2.86325C1.2819 0 0 1.2819 0 2.86325V12.1368C0 13.7181 1.2819 15 2.86325 15H12.1368C13.718 15 15 13.7181 15 12.1368V2.86325ZM13.9294 12.1397C13.9294 12.6185 13.7444 13.0672 13.4058 13.4058C13.0672 13.7444 12.6185 13.9294 12.1397 13.9294H2.86421C2.38536 13.9294 1.9347 13.7444 1.59611 13.4058C1.25752 13.0672 1.07056 12.6185 1.07056 12.1397V2.86421C1.07076 2.38857 1.25979 1.93246 1.59612 1.59612C1.93246 1.25979 2.38857 1.07076 2.86421 1.07056H12.1397C12.6185 1.07056 13.0672 1.25752 13.4058 1.59611C13.7444 1.9347 13.9294 2.38536 13.9294 2.86421V12.1397Z" fill="#2A4948"/>
<path d="M12.324 3.77417H2.67994C2.53797 3.77417 2.40182 3.83057 2.30143 3.93095C2.20105 4.03134 2.14465 4.16749 2.14465 4.30945C2.14465 4.45142 2.20105 4.58757 2.30143 4.68795C2.40182 4.78834 2.53797 4.84473 2.67994 4.84473H12.324C12.466 4.84473 12.6021 4.78834 12.7025 4.68795C12.8029 4.58757 12.8593 4.45142 12.8593 4.30945C12.8593 4.16749 12.8029 4.03134 12.7025 3.93095C12.6021 3.83057 12.466 3.77417 12.324 3.77417ZM12.324 6.96772H2.67994C2.53797 6.96772 2.40182 7.02411 2.30143 7.1245C2.20105 7.22488 2.14465 7.36104 2.14465 7.503C2.14465 7.64497 2.20105 7.78112 2.30143 7.8815C2.40182 7.98189 2.53797 8.03828 2.67994 8.03828H12.324C12.3943 8.03828 12.4639 8.02444 12.5289 7.99754C12.5938 7.97064 12.6528 7.93121 12.7025 7.8815C12.7522 7.8318 12.7917 7.77279 12.8186 7.70784C12.8455 7.6429 12.8593 7.57329 12.8593 7.503C12.8593 7.43271 12.8455 7.3631 12.8186 7.29816C12.7917 7.23321 12.7522 7.1742 12.7025 7.1245C12.6528 7.07479 12.5938 7.03536 12.5289 7.00846C12.4639 6.98156 12.3943 6.96772 12.324 6.96772ZM12.324 10.1613H2.67994C2.53797 10.1613 2.40182 10.2177 2.30143 10.318C2.20105 10.4184 2.14465 10.5546 2.14465 10.6965C2.14465 10.8385 2.20105 10.9747 2.30143 11.0751C2.40182 11.1754 2.53797 11.2318 2.67994 11.2318H12.324C12.466 11.2318 12.6021 11.1754 12.7025 11.0751C12.8029 10.9747 12.8593 10.8385 12.8593 10.6965C12.8593 10.5546 12.8029 10.4184 12.7025 10.318C12.6021 10.2177 12.466 10.1613 12.324 10.1613Z" fill="#2A4948"/>
</svg>
