<svg width="12" height="16" viewBox="0 0 12 16" fill="none" xmlns="http://www.w3.org/2000/svg">
<path d="M6.00005 0.85376C2.9689 0.85376 0.50293 3.22723 0.50293 6.14425C0.50293 7.11144 0.777304 8.05844 1.30417 8.89465L5.62022 14.9444C5.70549 15.0708 5.84799 15.1462 6.00005 15.1462C6.1526 15.1462 6.29503 15.0703 6.37985 14.9444L10.7066 8.87874C11.2237 8.05608 11.4972 7.11048 11.4972 6.14461C11.4972 3.22723 9.03127 0.85376 6.00005 0.85376ZM6.00005 9.09943C4.48201 9.09943 3.25149 7.86879 3.25149 6.35088C3.25149 4.83284 4.48201 3.60232 6.00005 3.60232C7.51806 3.60232 8.7486 4.83284 8.7486 6.35088C8.7486 7.86881 7.51806 9.09943 6.00005 9.09943Z" fill="#2A4948"/>
</svg>
