<svg width="29" height="38" viewBox="0 0 29 38" fill="none" xmlns="http://www.w3.org/2000/svg">
<path d="M6.44444 12.6667V8.41542C6.44444 3.8475 9.3525 0 13.224 0H15.776C19.6427 0 22.5556 3.85225 22.5556 8.41542V12.6667H25.7858C27.5613 12.6667 29 14.0837 29 15.8238V34.8428C29 35.2576 28.9168 35.6682 28.7553 36.0514C28.5938 36.4345 28.357 36.7827 28.0585 37.0758C27.76 37.369 27.4057 37.6016 27.0157 37.7601C26.6258 37.9187 26.2078 38.0002 25.7858 38H3.21417C2.36213 37.9996 1.54508 37.6669 0.942448 37.0749C0.339813 36.483 0.000853648 35.6802 0 34.8428V15.8238C0 14.0806 1.43872 12.6667 3.21417 12.6667H6.44444ZM9.66667 12.6667H19.3333V8.41542C19.3333 5.43083 17.6191 3.16667 15.776 3.16667H13.224C11.3744 3.16667 9.66667 5.42767 9.66667 8.41542V12.6667ZM16.1111 24.9122C17.0778 24.3659 17.7222 23.3415 17.7222 22.1667C17.7222 20.406 16.2803 19 14.5 19C12.7084 19 11.2778 20.4171 11.2778 22.1667C11.2778 23.3462 11.9254 24.3675 12.8889 24.9122V28.4858C12.8878 28.6937 12.9285 28.8998 13.0084 29.0923C13.0884 29.2848 13.2062 29.4599 13.3551 29.6077C13.5039 29.7554 13.6809 29.8729 13.876 29.9534C14.0711 30.034 14.2804 30.076 14.4919 30.077C14.7035 30.078 14.9132 30.0381 15.1091 29.9595C15.305 29.8809 15.4832 29.7651 15.6335 29.6188C15.7839 29.4726 15.9034 29.2986 15.9854 29.1069C16.0673 28.9152 16.1101 28.7095 16.1111 28.5016V24.9122Z" fill="url(#paint0_linear_360_4731)"/>
<defs>
<linearGradient id="paint0_linear_360_4731" x1="-2.2522e-07" y1="5.01887" x2="21.3564" y2="38.3399" gradientUnits="userSpaceOnUse">
<stop stop-color="#2A4948"/>
<stop offset="0.739583" stop-color="#2A4948" stop-opacity="0.6"/>
</linearGradient>
</defs>
</svg>
