<svg width="130" height="31" viewBox="0 0 130 31" fill="none" xmlns="http://www.w3.org/2000/svg">
<g clip-path="url(#clip0_140_3025)">
<path d="M6.27151 18.8192V31H0V0H6.27151V12.1808H23.0035V0H29.275V31H23.0035V18.8192H6.27151Z" fill="#2A4948"/>
<path d="M36.6889 0H42.9604V19.9277H36.6889V0ZM42.9604 24.3616V31H36.6889V24.3616H42.9604Z" fill="#C8E3E2"/>
<path d="M50.3506 0H56.6221V19.9277H50.3506V0ZM56.6221 24.3616V31H50.3506V24.3616H56.6221Z" fill="#D2693F"/>
<path d="M70.3076 24.3616H93.323V31H64.0361V0H70.3076V24.3616Z" fill="#2A4948"/>
<path d="M121.634 0C127.215 0 130 2.94758 130 8.85534V9.96383C130 15.8716 127.215 18.8192 121.634 18.8192H106.997V31H100.725V0H121.646H121.634ZM123.728 8.85534C123.728 7.38155 123.026 6.63836 121.634 6.63836H106.997V12.1682H121.634C123.026 12.1682 123.728 11.425 123.728 9.95124V8.84275V8.85534Z" fill="#2A4948"/>
</g>
<defs>
<clipPath id="clip0_140_3025">
<rect width="130" height="31" fill="white"/>
</clipPath>
</defs>
</svg>
