<svg width="22" height="27" viewBox="0 0 22 27" fill="none" xmlns="http://www.w3.org/2000/svg">
<g clip-path="url(#clip0_4418_9109)">
<path fill-rule="evenodd" clip-rule="evenodd" d="M12.45 0C13.13 0 13.6 0 14.05 0.09C14.65 0.21 15.23 0.45 15.74 0.79C16.13 1.05 16.46 1.38 16.94 1.86L20.02 4.94C20.5 5.42 20.83 5.75 21.09 6.14C21.43 6.65 21.67 7.23 21.79 7.83C21.88 8.28 21.88 8.75 21.88 9.43V20.35C21.88 21.2 21.88 21.88 21.84 22.43C21.8 23 21.72 23.5 21.52 23.98C21.04 25.13 20.13 26.04 18.98 26.52C18.5 26.72 18 26.8 17.43 26.84C16.88 26.88 16.19 26.88 15.35 26.88H6.53C5.68 26.88 5 26.88 4.45 26.84C3.88 26.8 3.38 26.72 2.9 26.52C1.75 26.04 0.84 25.13 0.36 23.98C0.16 23.5 0.08 23 0.04 22.43C0 21.87 0 21.19 0 20.35V6.53C0 5.68 0 5 0.04 4.45C0.08 3.88 0.16 3.38 0.36 2.9C0.83 1.75 1.75 0.83 2.89 0.36C3.37 0.16 3.87 0.08 4.44 0.04C4.99 0 5.68 0 6.52 0H12.44L12.45 0ZM13.69 1.93C13.44 1.88 13.17 1.87 12.37 1.87H6.57C5.68 1.87 5.07 1.87 4.58 1.9C4.11 1.93 3.83 1.99 3.62 2.08C2.93 2.37 2.38 2.91 2.1 3.6C2.01 3.81 1.95 4.09 1.92 4.56C1.89 5.04 1.89 5.66 1.89 6.55V20.3C1.89 21.19 1.89 21.8 1.92 22.29C1.95 22.76 2.01 23.04 2.1 23.25C2.39 23.94 2.93 24.49 3.62 24.77C3.83 24.86 4.11 24.92 4.58 24.95C5.06 24.98 5.68 24.98 6.57 24.98H15.32C16.21 24.98 16.82 24.98 17.31 24.95C17.79 24.92 18.06 24.86 18.27 24.77C18.96 24.48 19.51 23.94 19.79 23.25C19.88 23.04 19.94 22.76 19.97 22.29C20 21.81 20 21.19 20 20.3V9.51C20 8.71 20 8.44 19.95 8.19C19.95 8.17 19.95 8.15 19.94 8.12H14.7C14.18 8.12 13.76 7.7 13.76 7.18V1.94C13.76 1.94 13.72 1.94 13.69 1.93ZM15.63 3.2V6.25H18.68C18.68 6.25 18.65 6.22 18.63 6.2L15.67 3.24C15.67 3.24 15.64 3.21 15.62 3.19L15.63 3.2Z" fill="#2A4948"/>
<path d="M21.8799 22.71C21.8799 24.01 20.8299 25.06 19.5299 25.06H4.22988C2.92988 25.06 1.87988 24.01 1.87988 22.71V3.79C1.87988 2.49 2.92988 1.44 4.22988 1.44H15.2899L21.3199 8.25L21.8799 22.71Z" fill="#2A4948"/>
<path d="M5 8.44C5 7.92 5.42 7.5 5.94 7.5H10.94C11.46 7.5 11.88 7.92 11.88 8.44C11.88 8.96 11.46 9.38 10.94 9.38H5.94C5.42 9.38 5 8.96 5 8.44Z" fill="white"/>
<path d="M5.94 12.5C5.42 12.5 5 12.92 5 13.44C5 13.96 5.42 14.38 5.94 14.38H15.94C16.46 14.38 16.88 13.96 16.88 13.44C16.88 12.92 16.46 12.5 15.94 12.5H5.94Z" fill="white"/>
<path d="M5 18.44C5 17.92 5.42 17.5 5.94 17.5H15.94C16.46 17.5 16.88 17.92 16.88 18.44C16.88 18.96 16.46 19.38 15.94 19.38H5.94C5.42 19.38 5 18.96 5 18.44Z" fill="white"/>
</g>
<defs>
<clipPath id="clip0_4418_9109">
<rect width="21.88" height="26.88" fill="white"/>
</clipPath>
</defs>
</svg>
