<svg width="27" height="24" viewBox="0 0 27 24" fill="none" xmlns="http://www.w3.org/2000/svg">
<g clip-path="url(#clip0_4418_9112)">
<path d="M23 0H4C1.79086 0 0 1.79086 0 4V20C0 22.2091 1.79086 24 4 24H23C25.2091 24 27 22.2091 27 20V4C27 1.79086 25.2091 0 23 0Z" fill="#2A4948"/>
<path d="M20.3199 21.28V19.4C20.3199 18.4 19.9599 17.45 19.3199 16.75C18.6799 16.05 17.8099 15.65 16.9099 15.65H10.0899C9.18993 15.65 8.31993 16.05 7.67993 16.75C7.03993 17.45 6.67993 18.41 6.67993 19.4V21.28" fill="white"/>
<path d="M13.5001 13.34C15.3801 13.34 16.9101 11.73 16.9101 9.75C16.9101 7.77 15.3801 6.16 13.5001 6.16C11.6201 6.16 10.0901 7.77 10.0901 9.75C10.0901 11.73 11.6201 13.34 13.5001 13.34Z" fill="white"/>
</g>
<defs>
<clipPath id="clip0_4418_9112">
<rect width="27" height="24" fill="white"/>
</clipPath>
</defs>
</svg>
