<svg width="29" height="26" viewBox="0 0 29 26" fill="none" xmlns="http://www.w3.org/2000/svg">
<rect x="1" y="1" width="27" height="24" rx="4" stroke="#868C8C" stroke-width="2"/>
<path d="M21.3236 23.3103V21.5172C21.3236 20.5661 20.9641 19.654 20.3243 18.9814C19.6845 18.3089 18.8167 17.931 17.9118 17.931H11.0883C10.1834 17.931 9.31563 18.3089 8.6758 18.9814C8.03597 19.654 7.67651 20.5661 7.67651 21.5172V23.3103" stroke="#868C8C" stroke-width="2" stroke-linecap="round" stroke-linejoin="round"/>
<path d="M14.4999 14.3448C16.3842 14.3448 17.9117 12.7392 17.9117 10.7586C17.9117 8.77801 16.3842 7.17241 14.4999 7.17241C12.6156 7.17241 11.0881 8.77801 11.0881 10.7586C11.0881 12.7392 12.6156 14.3448 14.4999 14.3448Z" stroke="#868C8C" stroke-width="2" stroke-linecap="round" stroke-linejoin="round"/>
</svg>
