<svg width="73" height="71" viewBox="0 0 73 71" fill="none" xmlns="http://www.w3.org/2000/svg">
<path d="M36.5 67.9462C55.5538 67.9462 71 52.736 71 33.9731C71 15.2103 55.5538 0 36.5 0C17.4462 0 2 15.2103 2 33.9731C2 52.736 17.4462 67.9462 36.5 67.9462Z" fill="url(#paint0_linear_348_9116)"/>
<path d="M54.9809 4.08046H17.996C16.6199 4.08046 15.3001 4.63194 14.327 5.61358C13.3539 6.59522 12.8072 7.92661 12.8072 9.31486V51.8298H12.8706V66.7595C12.8706 67.3359 13.017 67.9028 13.2959 68.406C13.5747 68.9091 13.9768 69.3318 14.4636 69.6336C14.9505 69.9355 15.5059 70.1064 16.0768 70.1302C16.6478 70.1539 17.2153 70.0297 17.7251 69.7693L34.7848 61.0453C35.2496 60.8102 35.7624 60.6877 36.2823 60.6877C36.8023 60.6877 37.3151 60.8102 37.7799 61.0453L55.3643 69.8332C55.8744 70.0882 56.4407 70.2076 57.0094 70.18C57.5781 70.1524 58.1304 69.9788 58.614 69.6757C59.0975 69.3725 59.4963 68.9498 59.7726 68.4476C60.0489 67.9454 60.1935 67.3804 60.1928 66.806L60.1466 51.8298V9.30032C60.1428 7.91861 59.5977 6.59446 58.63 5.61662C57.6623 4.63879 56.3505 4.0866 54.9809 4.08046Z" fill="url(#paint1_linear_348_9116)"/>
<path fill-rule="evenodd" clip-rule="evenodd" d="M44.9481 55.9483C45.1012 56.2185 44.9979 56.5618 44.7213 56.7028L17.1354 70.763C16.8754 70.8956 16.5572 70.7999 16.4134 70.546C16.2603 70.2758 16.3635 69.9325 16.6402 69.7914L44.226 55.7312C44.486 55.5987 44.8043 55.6943 44.9481 55.9483Z" fill="white"/>
<ellipse cx="36.4466" cy="27.5227" rx="16.9091" ry="16.6509" fill="white"/>
<path fill-rule="evenodd" clip-rule="evenodd" d="M36.2995 14.0572C31.1151 14.0572 26.6582 17.1296 24.7063 21.5286C24.5763 21.8217 24.2296 21.9555 23.9319 21.8274C23.6343 21.6993 23.4984 21.3579 23.6284 21.0648C25.7607 16.2591 30.6309 12.8988 36.2995 12.8988C36.6243 12.8988 36.8877 13.1581 36.8877 13.478C36.8877 13.7979 36.6243 14.0572 36.2995 14.0572Z" fill="white"/>
<path d="M37.3234 18.0887L39.7016 23.0519C39.7721 23.1991 39.8763 23.3264 40.0052 23.4229C40.1341 23.5194 40.2838 23.5822 40.4414 23.6059L45.7573 24.3956C45.9373 24.424 46.1061 24.5033 46.2449 24.6247C46.3838 24.7461 46.4872 24.9048 46.5436 25.0831C46.6 25.2614 46.6073 25.4524 46.5646 25.6348C46.5219 25.8171 46.4309 25.9837 46.3018 26.1159L42.4606 29.9782C42.3463 30.0927 42.2609 30.2341 42.2117 30.3903C42.1625 30.5465 42.1511 30.7127 42.1783 30.8745L43.0868 36.3281C43.118 36.5145 43.0978 36.7062 43.0287 36.8815C42.9595 37.0568 42.8441 37.2086 42.6955 37.3198C42.5469 37.431 42.371 37.4971 42.1878 37.5106C42.0046 37.5242 41.8214 37.4846 41.6589 37.3964L36.9042 34.8159C36.763 34.7396 36.606 34.6998 36.4466 34.6998C36.2872 34.6998 36.1301 34.7396 35.989 34.8159L31.2342 37.3964C31.0718 37.4841 30.8888 37.5233 30.7058 37.5095C30.5229 37.4958 30.3474 37.4296 30.1991 37.3185C30.0507 37.2073 29.9355 37.0557 29.8664 36.8807C29.7973 36.7057 29.777 36.5143 29.808 36.3281L30.7148 30.8745C30.7421 30.7127 30.7306 30.5465 30.6814 30.3903C30.6322 30.2341 30.5468 30.0927 30.4326 29.9782L26.5914 26.1159C26.4622 25.9837 26.3712 25.8171 26.3285 25.6348C26.2858 25.4524 26.2931 25.2614 26.3495 25.0831C26.406 24.9048 26.5094 24.7461 26.6482 24.6247C26.787 24.5033 26.9558 24.424 27.1358 24.3956L32.4517 23.6007C32.6094 23.577 32.7591 23.5142 32.8879 23.4177C33.0168 23.3212 33.121 23.1939 33.1916 23.0468L35.5698 18.0835C35.6525 17.9171 35.7784 17.7775 35.9334 17.6801C36.0884 17.5828 36.2666 17.5316 36.4481 17.5321C36.6296 17.5327 36.8075 17.5849 36.962 17.6832C37.1165 17.7814 37.2415 17.9217 37.3234 18.0887Z" fill="url(#paint2_linear_348_9116)"/>
<g filter="url(#filter0_f_348_9116)">
<ellipse cx="36.3408" cy="45.9611" rx="15.333" ry="3.23546" fill="#6B6B6B" fill-opacity="0.39"/>
</g>
<defs>
<filter id="filter0_f_348_9116" x="0.317215" y="22.0351" width="72.0471" height="47.8521" filterUnits="userSpaceOnUse" color-interpolation-filters="sRGB">
<feFlood flood-opacity="0" result="BackgroundImageFix"/>
<feBlend mode="normal" in="SourceGraphic" in2="BackgroundImageFix" result="shape"/>
<feGaussianBlur stdDeviation="10.3453" result="effect1_foregroundBlur_348_9116"/>
</filter>
<linearGradient id="paint0_linear_348_9116" x1="36.234" y1="-11.0625" x2="36.9194" y2="108.246" gradientUnits="userSpaceOnUse">
<stop stop-color="#A5C4C3" stop-opacity="0.5"/>
<stop offset="1" stop-color="#EFEFEF"/>
</linearGradient>
<linearGradient id="paint1_linear_348_9116" x1="36.5" y1="4.08046" x2="36.5" y2="70.1839" gradientUnits="userSpaceOnUse">
<stop stop-color="#90A9A8"/>
<stop offset="1" stop-color="#2A4948"/>
</linearGradient>
<linearGradient id="paint2_linear_348_9116" x1="26.3011" y1="17.5001" x2="46.492" y2="33.9043" gradientUnits="userSpaceOnUse">
<stop stop-color="#406564" stop-opacity="0.5"/>
<stop offset="1" stop-color="#2A4948" stop-opacity="0.8"/>
</linearGradient>
</defs>
</svg>
