<svg width="17" height="19" viewBox="0 0 17 19" fill="none" xmlns="http://www.w3.org/2000/svg">
<path d="M11.172 3.53198C11.0364 3.53198 10.9223 3.48451 10.8298 3.38956C10.7373 3.29462 10.6603 3.18385 10.5986 3.05725C10.5369 2.93066 10.4907 2.8009 10.4599 2.66798C10.4291 2.53505 10.4136 2.42428 10.4136 2.33567V0H10.4506C10.5616 0 10.6664 0.0126594 10.7651 0.0379783C10.8637 0.0632972 10.984 0.123429 11.1258 0.218375C11.2676 0.313321 11.4402 0.446245 11.6437 0.617147C11.8471 0.78805 12.103 1.01275 12.4113 1.29126C12.7442 1.59509 13.0093 1.85144 13.2066 2.06032C13.4039 2.2692 13.555 2.44644 13.6598 2.59202C13.7646 2.7376 13.8294 2.86103 13.854 2.96231C13.8787 3.06358 13.891 3.1522 13.891 3.22816V3.53198H11.172V3.53198ZM16.9245 12.4759C16.9615 12.5771 16.9861 12.7037 16.9985 12.8557C17.0108 13.0076 16.9491 13.1531 16.8135 13.2924C16.7518 13.3557 16.6963 13.4158 16.647 13.4728C16.5977 13.5298 16.5545 13.5772 16.5175 13.6152C16.4682 13.6659 16.4251 13.7038 16.3881 13.7292L14.8158 12.1341C14.8898 12.0708 14.9731 11.9948 15.0656 11.9062C15.158 11.8176 15.2351 11.748 15.2968 11.6973C15.4447 11.5581 15.605 11.4979 15.7777 11.5169C15.9503 11.5359 16.0921 11.5771 16.2031 11.6403C16.3264 11.7036 16.459 11.8144 16.6008 11.9727C16.7426 12.1309 16.8505 12.2986 16.9245 12.4759V12.4759ZM10.3951 14.2419C10.6664 14.2419 10.8946 14.1659 11.0795 14.014L7.49116 17.8498H2.38607C2.15178 17.8498 1.89591 17.7802 1.61846 17.6409C1.34101 17.5017 1.08206 17.3181 0.8416 17.0902C0.601143 16.8624 0.400762 16.5997 0.240457 16.3022C0.0801524 16.0047 0 15.6977 0 15.3812V2.4496C0 2.18375 0.0585729 1.90524 0.175719 1.61408C0.292864 1.32291 0.453169 1.06023 0.656633 0.826028C0.860096 0.591829 1.0913 0.395607 1.35026 0.237364C1.60921 0.0791215 1.8805 1.85812e-08 2.16411 1.85812e-08H9.24834V2.37364C9.24834 2.61417 9.28534 2.87369 9.35932 3.1522C9.43331 3.43071 9.54737 3.68706 9.70151 3.92126C9.85565 4.15546 10.056 4.35168 10.3027 4.50992C10.5493 4.66817 10.8452 4.74729 11.1905 4.74729H13.891V11.0327L11.357 13.7292C11.4926 13.5266 11.5604 13.3051 11.5604 13.0645C11.5604 12.7354 11.4464 12.4537 11.2182 12.2195C10.9901 11.9853 10.7157 11.8682 10.3951 11.8682H3.45888C3.13827 11.8682 2.86699 11.9853 2.64503 12.2195C2.42307 12.4537 2.31209 12.7354 2.31209 13.0645C2.31209 13.3937 2.42307 13.6722 2.64503 13.9001C2.86699 14.1279 3.13827 14.2419 3.45888 14.2419H10.3951V14.2419ZM3.45888 7.12093C3.13827 7.12093 2.86699 7.23803 2.64503 7.47223C2.42307 7.70643 2.31209 7.9881 2.31209 8.31725C2.31209 8.64639 2.42307 8.9249 2.64503 9.15277C2.86699 9.38064 3.13827 9.49457 3.45888 9.49457H10.3951C10.7157 9.49457 10.9901 9.38064 11.2182 9.15277C11.4464 8.9249 11.5604 8.64639 11.5604 8.31725C11.5604 7.9881 11.4464 7.70643 11.2182 7.47223C10.9901 7.23803 10.7157 7.12093 10.3951 7.12093H3.45888V7.12093ZM10.4321 16.6345L10.6726 16.3876L11.135 15.9129C11.32 15.723 11.5234 15.511 11.7454 15.2768C11.9674 15.0426 12.1893 14.8115 12.4113 14.5837C12.9415 14.0393 13.5396 13.4317 14.2055 12.7607L15.7592 14.3558L13.965 16.1977L13.2991 16.8814L12.6887 17.508C12.5161 17.6852 12.3712 17.8371 12.2541 17.9637C12.1369 18.0903 12.0722 18.16 12.0598 18.1726C11.9982 18.2233 11.9304 18.2771 11.8564 18.334C11.7824 18.391 11.7084 18.4385 11.6344 18.4764C11.5604 18.5144 11.4464 18.5619 11.2922 18.6189C11.1381 18.6758 10.9809 18.7296 10.8206 18.7803C10.6603 18.8309 10.5061 18.8752 10.3581 18.9132C10.2102 18.9512 10.0992 18.9765 10.0252 18.9891C9.87723 19.0145 9.77858 18.9955 9.72926 18.9322C9.67993 18.8689 9.6676 18.7613 9.69227 18.6094C9.7046 18.5334 9.72926 18.4195 9.76625 18.2676C9.80325 18.1156 9.84641 17.9606 9.89573 17.8023C9.94505 17.6441 9.9913 17.4953 10.0345 17.3561C10.0776 17.2168 10.1115 17.1219 10.1362 17.0712C10.2102 16.9067 10.3088 16.7611 10.4321 16.6345V16.6345Z" fill="#2A4948"/>
</svg>
