<svg width="209" height="108" viewBox="0 0 209 108" fill="none" xmlns="http://www.w3.org/2000/svg">
<path d="M75.9039 19.8773C74.4373 19.881 72.9765 20.0728 71.5525 20.4485C68.967 15.027 63.2384 11.25 56.568 11.25C48.8247 11.25 42.352 16.3407 40.5928 23.1926C40.4307 23.1926 40.2707 23.1616 40.1086 23.1616C34.5555 23.1616 29.8309 27.5931 28.125 33.75H92.25C91.3193 25.9438 84.3602 19.8773 75.9039 19.8773Z" fill="url(#paint0_linear_345_3928)"/>
<path d="M48.6171 50.5167C47.1256 50.5199 45.6398 50.6925 44.1916 51.0308C41.5585 46.1514 35.7294 42.75 28.9442 42.75C21.0629 42.75 14.4789 47.3338 12.6866 53.4983C12.5216 53.4983 12.3611 53.4705 12.1938 53.4705C6.54331 53.4705 1.73584 57.4609 0 63H65.25C64.303 55.9765 57.2217 50.5167 48.6171 50.5167Z" fill="url(#paint1_linear_345_3928)"/>
<path d="M166.556 69.1971C167.747 70.2545 168.798 71.234 169.586 72.465C171.112 74.838 171.454 78.0036 170.496 80.7372C170.081 81.9237 169.414 83.0501 168.778 84.1454C168.676 84.3279 168.555 84.5038 168.468 84.6752C168.009 85.4299 167.603 86.2154 167.252 87.0259C167.115 87.3514 166.996 87.6843 166.897 88.0232C166.796 88.3339 166.715 88.6507 166.654 88.9715L166.5 89.7618C166.663 89.8509 166.821 89.9221 166.962 90L167.069 89.7418L167.292 89.1853C167.393 88.9404 167.515 88.6888 167.638 88.4551C167.792 88.143 167.965 87.8404 168.156 87.5491C169.524 85.4076 171.59 83.6556 173.511 82.1753C174.241 81.6254 174.986 81.0489 175.832 80.755C177.133 80.2809 178.612 80.5101 179.917 80.7083L180 79.9737C178.625 79.7689 177.075 79.5284 175.615 80.0605C174.68 80.3877 173.89 80.9999 173.13 81.5809C171.605 82.7429 170.006 84.0697 168.707 85.628C168.91 85.2629 169.124 84.9045 169.327 84.5394C169.997 83.4108 170.666 82.2599 171.123 80.9977C172.159 78.037 171.777 74.611 170.137 72.0465C169.287 70.7331 168.147 69.6891 166.973 68.625L166.556 69.1971Z" fill="url(#paint2_linear_345_3928)"/>
<path d="M161.145 73.125L160.875 73.8408C163.146 74.6901 164.999 75.9651 166.232 77.5233C167.66 79.3047 168.27 81.5579 167.863 83.5372C167.735 84.1019 167.568 84.6585 167.363 85.2036L167.26 85.4982C167.105 85.9293 166.963 86.3666 166.835 86.81C166.72 87.1622 166.617 87.5212 166.522 87.8688C166.352 88.4557 166.207 89.0564 166.065 89.6594L166.195 89.7261C166.377 89.8182 166.555 89.8918 166.712 89.9724L166.765 90C166.779 89.9004 166.802 89.8019 166.832 89.7054C166.935 89.2152 167.082 88.7249 167.207 88.2347C167.297 87.8688 167.418 87.5028 167.52 87.1438C167.663 86.6835 167.818 86.2093 167.975 85.7467L168.075 85.4521C168.19 85.1322 168.313 84.8008 168.4 84.4671C168.494 84.2132 168.567 83.9532 168.618 83.6891C169.053 81.4935 168.4 79.0032 166.837 77.0376C165.514 75.3874 163.549 74.0387 161.145 73.125Z" fill="#2A4948"/>
<path d="M168.829 85.5L169.116 85.2274C169.038 85.0003 169.424 84.6573 169.527 84.3666C170.175 82.411 171.129 79.9398 172.764 78.1932C173.419 77.5311 174.121 76.9281 174.862 76.3898C175.322 76.0354 175.798 75.672 176.249 75.2745C177.73 73.9776 178.614 72.549 178.875 71.0249L178.26 70.875C178.032 72.2083 177.234 73.487 175.878 74.6726C175.441 75.0542 174.975 75.4131 174.524 75.7583C173.755 76.3179 173.027 76.9453 172.349 77.6344C170.616 79.4856 169.621 82.0567 168.946 84.0918C168.798 84.5188 168.657 85.0139 168.829 85.5Z" fill="#2A4948"/>
<path d="M165.135 75.3882C166.351 73.429 162.713 69.9992 159.598 71.0815C156.484 72.1637 154.465 74.268 155.543 74.5871C156.62 74.9062 163.402 78.1642 165.135 75.3882Z" fill="#2A4948" fill-opacity="0.18"/>
<path d="M171.341 72.8923C173.235 71.9329 171.493 68.031 168.305 67.6175C165.117 67.204 162.463 67.9647 163.272 68.611C164.08 69.2573 168.657 74.2491 171.341 72.8923Z" fill="#2A4948" fill-opacity="0.18"/>
<path d="M174.443 80.8938C173.658 77.7019 179.831 74.7916 183.461 77.6925C187.091 80.5934 188.856 84.3486 187.318 84.2782C185.78 84.2077 175.555 85.4188 174.443 80.8938Z" fill="#2A4948" fill-opacity="0.18"/>
<path d="M178.352 71.7651C176.78 70.9028 178.479 67.7539 181.227 67.5388C183.975 67.3237 186.213 68.0506 185.487 68.5532C184.761 69.0557 180.58 72.9891 178.352 71.7651Z" fill="#2A4948" fill-opacity="0.18"/>
<path d="M79.8398 76.8684C79.0747 77.4631 78.3981 78.1578 77.8292 78.9326C77.3242 79.7005 77.006 80.5701 76.8989 81.4752C76.7918 82.3804 76.8985 83.2973 77.2109 84.1564C77.5217 84.9082 77.9055 85.6296 78.357 86.3109C78.4248 86.428 78.5002 86.5378 78.5631 86.6451C78.8692 87.1214 79.1404 87.6179 79.3749 88.131C79.4666 88.3369 79.5455 88.5479 79.6111 88.763C79.6779 88.9589 79.7324 89.1585 79.7745 89.3607L79.875 89.8487C79.7669 89.9048 79.6614 89.9512 79.5684 90L79.4955 89.8365L79.3422 89.4852C79.2753 89.332 79.2007 89.1822 79.1185 89.0362C79.0147 88.8386 78.8989 88.6471 78.7717 88.4629C77.8619 87.1087 76.4821 86.001 75.2003 85.0665C74.7346 84.6921 74.2125 84.3892 73.6522 84.1686C72.7876 83.8685 71.7999 84.0149 70.9303 84.1393L70.875 83.6758C71.7898 83.5465 72.8253 83.3952 73.7979 83.7294C74.3984 83.9639 74.9572 84.2883 75.4542 84.6908C76.531 85.4349 77.5197 86.2925 78.4022 87.2478C78.2665 87.0184 78.1233 86.7915 77.9875 86.5597C77.5157 85.8521 77.1151 85.102 76.7912 84.3199C76.4519 83.3904 76.3348 82.3982 76.4489 81.4184C76.563 80.4385 76.9052 79.4967 77.4497 78.6642C78.0152 77.8346 78.7742 77.1734 79.5583 76.5L79.8398 76.8684Z" fill="url(#paint3_linear_345_3928)"/>
<path d="M82.0106 79.875L82.125 80.3062C81.219 80.7487 80.4225 81.511 79.8225 82.5098C79.5237 83.016 79.3074 83.5981 79.1871 84.2197C79.0668 84.8412 79.0451 85.4889 79.1234 86.122C79.1794 86.4609 79.2522 86.7945 79.3413 87.1208L79.3849 87.2981C79.4521 87.5568 79.512 87.8179 79.5665 88.0837C79.6155 88.2969 79.6591 88.5125 79.7009 88.7209C79.7735 89.073 79.8352 89.4395 79.897 89.794L79.8407 89.8347C79.7626 89.8898 79.6863 89.9353 79.6191 89.9832L79.5974 90C79.5903 89.94 79.5799 89.8808 79.5665 89.8227C79.5229 89.5281 79.4648 89.2335 79.4067 88.9413C79.3686 88.7209 79.3159 88.5005 79.2723 88.2849C79.2106 88.0023 79.1434 87.7244 79.0762 87.4466L79.0326 87.2693C78.9836 87.0777 78.9309 86.8789 78.8928 86.6777C78.8532 86.526 78.8223 86.3707 78.8002 86.213C78.7148 85.5138 78.7386 84.799 78.87 84.1124C79.0015 83.4258 79.2378 82.7818 79.5647 82.22C80.2049 81.1619 81.05 80.3517 82.0106 79.875Z" fill="#2A4948"/>
<path d="M78.6972 86.625L78.473 86.4577C78.5351 86.3172 78.2353 86.1063 78.1597 85.9293C77.6546 84.7174 76.9091 83.2049 75.6369 82.1286C75.1249 81.7203 74.5776 81.3491 74.0001 81.0185C73.6435 80.8003 73.2708 80.5773 72.9197 80.3325C71.7663 79.5351 71.0776 78.6552 70.875 77.7171L71.3504 77.625C71.5286 78.4443 72.1607 79.2321 73.2087 79.9617C73.5463 80.204 73.9109 80.4174 74.2621 80.6307C74.8617 80.9741 75.4298 81.3599 75.961 81.7844C77.3115 82.9237 78.0867 84.5065 78.6107 85.7597C78.7595 86.0282 78.7904 86.337 78.6972 86.625Z" fill="#2A4948"/>
<path d="M80.0086 80.5556C79.333 79.7724 81.3532 78.3993 83.0855 78.8327C84.8178 79.2662 85.9351 80.1083 85.3374 80.2352C84.7398 80.3621 80.9678 81.6655 80.0086 80.5556Z" fill="#2A4948" fill-opacity="0.18"/>
<path d="M75.8645 79.7346C74.6819 79.1597 75.7696 76.8079 77.7634 76.5675C79.7572 76.3271 81.4138 76.7766 80.9081 77.1633C80.4025 77.55 77.5422 80.552 75.8645 79.7346Z" fill="#2A4948" fill-opacity="0.18"/>
<path d="M74.2147 84.1377C74.6145 81.8599 71.5205 79.7796 69.7056 81.8512C67.8908 83.9227 67.0093 86.6044 67.7789 86.555C68.5484 86.5057 73.6571 87.3715 74.2147 84.1377Z" fill="#2A4948" fill-opacity="0.18"/>
<path d="M71.7422 78.6329C72.4154 78.2005 71.6884 76.6271 70.5069 76.5194C69.3253 76.4118 68.3762 76.775 68.6833 77.0273C68.9904 77.2796 70.7879 79.2436 71.7422 78.6329Z" fill="#2A4948" fill-opacity="0.18"/>
<path d="M66.3104 69.1966C65.219 70.2555 64.2567 71.2371 63.5414 72.4764C62.1431 74.8496 61.8316 78.0146 62.7061 80.7486C63.0868 81.9364 63.696 83.0632 64.2798 84.1596C64.3721 84.3423 64.4759 84.518 64.5636 84.6891C64.9845 85.4448 65.3567 86.2273 65.6781 87.0318C65.8027 87.3527 65.9089 87.6877 66.0035 88.0274C66.0986 88.3388 66.1757 88.6556 66.2342 88.9762L66.375 89.7657C66.225 89.8571 66.0819 89.9274 65.9527 90L65.8535 89.74L65.6412 89.1847C65.5466 88.9505 65.4382 88.6857 65.3228 88.4538C65.1823 88.1422 65.0235 87.8395 64.8474 87.5472C63.5968 85.4059 61.7047 83.6536 59.9418 82.1589C59.2726 81.6107 58.5919 81.0344 57.8166 80.7392C56.6259 80.2707 55.2783 80.5049 54.0738 80.6924L54 79.9591C55.2576 79.7553 56.679 79.5163 58.015 80.0458C58.8711 80.3714 59.5956 80.9829 60.2925 81.5662C61.677 82.7376 63.1515 84.0565 64.3398 85.6144C64.1529 85.249 63.9568 84.8905 63.7722 84.5251C63.1162 83.4033 62.5624 82.2232 62.1177 80.9993C61.1716 78.0381 61.5178 74.613 63.0222 72.0477C63.7999 70.7334 64.8428 69.6886 65.9181 68.625L66.3104 69.1966Z" fill="url(#paint4_linear_345_3928)"/>
<path d="M70.6326 74.25L70.875 74.9282C69.0237 75.6436 67.427 76.8325 66.269 78.3576C65.0502 79.9947 64.5497 82.0049 64.8702 83.9754C64.981 84.501 65.1267 85.0197 65.3066 85.5284L65.3939 85.8042C65.528 86.2036 65.65 86.612 65.7599 87.0295C65.8569 87.3573 65.9442 87.6941 66.0266 88.0174C66.172 88.5645 66.2957 89.1274 66.4193 89.688L66.3078 89.7491C66.1502 89.8372 65.9999 89.9051 65.8642 89.9751L65.8181 90C65.8053 89.907 65.7858 89.8148 65.7599 89.7242C65.6727 89.2721 65.5539 88.8199 65.4375 88.352C65.3624 88.0106 65.2581 87.6738 65.1708 87.3347C65.0472 86.8939 64.9139 86.4621 64.7805 86.028L64.6933 85.7545C64.5939 85.4561 64.4896 85.1464 64.4145 84.8344C64.3338 84.597 64.2714 84.3545 64.2278 84.1087C63.8789 81.9329 64.4253 79.7145 65.7575 77.8987C66.99 76.286 68.6774 75.0231 70.6326 74.25Z" fill="#2A4948"/>
<path d="M65.1629 85.5L64.8438 85.2276C64.9313 85.0005 64.5016 84.6588 64.3961 84.3673C63.6755 82.4101 62.6153 79.9392 60.7935 78.1947C60.0702 77.5356 59.2905 76.9322 58.4621 76.3904C57.9474 76.0368 57.4328 75.6735 56.9181 75.2768C55.2712 73.9768 54.2908 72.5478 54 71.0256L54.6793 70.875C54.9367 72.2085 55.8245 73.487 57.3273 74.6722C57.811 75.0546 58.3283 75.4131 58.83 75.7596C59.6909 76.3216 60.5 76.949 61.2489 77.6355C63.1737 79.4875 64.2803 82.0588 65.0291 84.0877C65.2066 84.5178 65.3482 85.0125 65.1629 85.5Z" fill="#2A4948"/>
<path d="M67.6871 75.6102C66.7409 74.0448 69.5695 71.2932 71.9929 72.1679C74.4162 73.0425 75.9845 74.7167 75.1477 74.972C74.3109 75.2273 69.0305 77.8306 67.6871 75.6102Z" fill="#2A4948" fill-opacity="0.18"/>
<path d="M62.4627 74.0175C61.0431 73.0602 62.3486 69.1677 64.74 68.746C67.1313 68.3243 69.1213 69.0897 68.515 69.7371C67.9087 70.3844 64.4717 75.3733 62.4627 74.0175Z" fill="#2A4948" fill-opacity="0.18"/>
<path d="M58.449 80.9012C59.0364 77.7074 54.4078 74.7929 51.6856 77.6876C48.9634 80.5823 47.6384 84.3619 48.7931 84.2804C49.9477 84.1988 57.6151 85.4323 58.449 80.9012Z" fill="#2A4948" fill-opacity="0.18"/>
<path d="M55.7354 72.8889C57.0798 72.0271 55.6265 68.8805 53.2669 68.6641C50.9073 68.4477 48.9973 69.1769 49.6185 69.6779C50.2397 70.1789 53.8278 74.1171 55.7354 72.8889Z" fill="#2A4948" fill-opacity="0.18"/>
<path d="M32.0755 95.5566C68.7801 98.5235 104.564 100.027 80.9243 103.346C57.2844 106.666 74.664 108.085 95.2088 107.996C115.754 107.907 157.889 104.962 167.405 99.3592C176.921 93.7569 253.038 88.8688 169.069 86.936C85.1008 85.0032 -4.62911 92.592 32.0755 95.5566Z" fill="url(#paint5_linear_345_3928)" fill-opacity="0.14"/>
<path d="M50.0272 1.125C51.2087 3.05819 52.1632 5.09733 52.875 7.20927C52.875 8.09272 51.597 9.32186 50.2125 8.92239C48.9345 7.54536 47.2922 5.46542 46.125 4.0423C47.5968 4.41104 49.746 2.31381 50.0272 1.125Z" fill="url(#paint6_linear_345_3928)"/>
<path d="M123.102 16.875C123.379 17.1171 123.581 17.4498 123.681 17.8267C123.78 18.2035 123.772 18.6058 123.658 18.9773C123.543 19.3488 123.328 19.6711 123.042 19.8992C122.756 20.1274 122.414 20.25 122.062 20.25C121.711 20.25 121.369 20.1274 121.083 19.8992C120.797 19.6711 120.582 19.3488 120.467 18.9773C120.353 18.6058 120.345 18.2035 120.444 17.8267C120.544 17.4498 120.746 17.1171 121.023 16.875V18.3929C121.023 18.6059 121.099 18.8099 121.234 18.9603C121.369 19.1107 121.551 19.1951 121.742 19.1951H122.385C122.575 19.1945 122.757 19.1098 122.892 18.9595C123.026 18.8092 123.102 18.6055 123.102 18.3929V16.875Z" fill="url(#paint7_linear_345_3928)"/>
<path d="M131.275 0H121.151C120.945 -9.0427e-07 120.748 0.0790275 120.603 0.219773C120.458 0.360519 120.376 0.5515 120.375 0.750845V18.3038C120.376 18.5218 120.465 18.7307 120.624 18.8846C120.783 19.0386 120.998 19.125 121.223 19.125H121.982C122.206 19.1244 122.421 19.0377 122.579 18.8838C122.738 18.73 122.827 18.5214 122.828 18.3038V3.80186H131.275C131.368 3.80186 131.457 3.76601 131.522 3.7022C131.588 3.63839 131.625 3.55184 131.625 3.4616V0.340262C131.625 0.250019 131.588 0.16347 131.522 0.0996585C131.457 0.035847 131.368 0 131.275 0Z" fill="url(#paint8_linear_345_3928)"/>
<path d="M124.875 51.75V89.9011C124.875 90.5241 124.637 91.1215 124.214 91.562C123.791 92.0025 123.218 92.25 122.62 92.25H118.13C117.532 92.25 116.959 92.0025 116.536 91.562C116.113 91.1215 115.875 90.5241 115.875 89.9011V51.75H124.875Z" fill="url(#paint9_linear_345_3928)"/>
<path d="M117 41.1631V50.625H79.875V24.4515C79.875 19.4584 81.8307 14.6698 85.3118 11.1392C88.793 7.6085 93.5144 5.625 98.4375 5.625C103.361 5.625 108.082 7.6085 111.563 11.1392C115.044 14.6698 117 19.4584 117 24.4515V41.1631Z" fill="url(#paint10_linear_345_3928)"/>
<path d="M116.976 41.7347V50.625H93.375V26.0307C93.375 16.2581 98.6586 6.75 105.175 6.75C109.08 8.45284 111.725 10.8532 113.54 13.4292C115.911 16.7345 117.195 20.7238 116.976 26.0307V41.7347Z" fill="url(#paint11_linear_345_3928)"/>
<path d="M151.875 40.5H117V50.625H151.875V40.5Z" fill="url(#paint12_linear_345_3928)"/>
<path d="M151.875 50.625V51.75H125.29H117V50.625H151.875Z" fill="url(#paint13_linear_345_3928)"/>
<path d="M117 50.625V51.75H115.696H65.25V50.625H78.865H117Z" fill="url(#paint14_linear_345_3928)"/>
<path d="M151.875 24.1026V40.5H117.037V24.1026C117.036 19.2022 115.017 14.5027 111.424 11.0376C107.83 7.57252 102.957 5.62559 97.875 5.625H120.898V17.0517C120.577 17.2942 120.343 17.6271 120.227 18.0042C120.112 18.3812 120.121 18.7835 120.255 19.1551C120.388 19.5267 120.637 19.849 120.969 20.0771C121.301 20.3052 121.699 20.4279 122.106 20.4279C122.514 20.4279 122.912 20.3052 123.244 20.0771C123.576 19.849 123.825 19.5267 123.958 19.1551C124.092 18.7835 124.101 18.3812 123.986 18.0042C123.87 17.6271 123.636 17.2942 123.315 17.0517V5.62944H132.718C137.798 5.63121 142.67 7.57805 146.262 11.0421C149.854 14.5061 151.873 19.2038 151.875 24.1026Z" fill="url(#paint15_linear_345_3928)"/>
<path d="M77.1476 28.125C73.6621 28.125 70.3401 27.4077 68.4226 26.4715C67.2954 25.94 66.2523 25.277 65.3207 24.4999C62.6817 24.6336 59.8883 24.2142 57.8211 23.4361C51.7511 21.1504 51.7511 16.2001 51.7511 14.0866C51.746 14.0113 51.7582 13.9359 51.787 13.8649C51.8157 13.7939 51.8605 13.729 51.9184 13.674C51.9763 13.6191 52.0462 13.5753 52.1238 13.5454C52.2014 13.5154 52.285 13.5 52.3695 13.5C52.454 13.5 52.5376 13.5154 52.6152 13.5454C52.6928 13.5753 52.7627 13.6191 52.8206 13.674C52.8785 13.729 52.9232 13.7939 52.952 13.8649C52.9807 13.9359 52.9929 14.0113 52.9878 14.0866C52.9878 17.3733 53.63 20.66 58.3022 22.4189C59.8225 22.9923 62.035 23.3895 64.2451 23.4179C63.6494 22.7186 63.2298 21.9126 63.0152 21.0552C62.8434 20.3574 62.8403 19.635 63.0062 18.9361C63.1722 18.2372 63.5032 17.578 63.9774 17.0025C65.7927 14.8688 68.5157 15.2295 69.3053 15.3815C70.05 15.5298 70.7505 15.8184 71.3602 16.228C71.9699 16.6375 72.4746 17.1586 72.8407 17.7563C73.1201 18.2485 73.2708 18.791 73.2814 19.3427C73.292 19.8945 73.1623 20.4412 72.902 20.9417C71.9762 22.8687 69.6684 23.9204 67.0022 24.3175C67.6379 24.7534 68.3117 25.143 69.0172 25.4827C72.2984 27.0794 79.807 27.8636 84.5836 25.5212C84.6547 25.4862 84.7328 25.464 84.8134 25.456C84.8941 25.448 84.9757 25.4542 85.0537 25.4743C85.1316 25.4944 85.2044 25.5281 85.2678 25.5733C85.3312 25.6186 85.384 25.6745 85.4232 25.738C85.4624 25.8015 85.4872 25.8712 85.4962 25.9432C85.5052 26.0152 85.4982 26.0881 85.4757 26.1578C85.4531 26.2274 85.4155 26.2924 85.3648 26.349C85.3141 26.4056 85.2515 26.4527 85.1804 26.4877C82.8068 27.6691 79.9227 28.125 77.1476 28.125ZM68.0119 16.3723C67.4244 16.3582 66.8416 16.4691 66.3116 16.696C65.7817 16.923 65.3199 17.2593 64.9644 17.6773C64.5984 18.1258 64.3434 18.6387 64.2163 19.1819C64.0891 19.7252 64.0928 20.2863 64.227 20.8282C64.4871 21.7881 65.0364 22.6661 65.8154 23.3672C68.4839 23.1646 70.9006 22.3439 71.7765 20.5202C71.9652 20.1685 72.0609 19.7828 72.0562 19.3928C72.0515 19.0028 71.9465 18.619 71.7492 18.271C71.2636 17.4159 70.1994 16.7107 69.0399 16.4716C68.7006 16.4062 68.3544 16.3743 68.0074 16.3764L68.0119 16.3723Z" fill="url(#paint16_linear_345_3928)"/>
<path d="M146.253 43.875C146.698 43.8757 147.133 44.0083 147.503 44.256C147.872 44.5038 148.16 44.8556 148.33 45.267C148.5 45.6784 148.544 46.1309 148.456 46.5672C148.369 47.0035 148.154 47.4041 147.839 47.7183C147.524 48.0325 147.122 48.2462 146.686 48.3324C146.249 48.4186 145.797 48.3734 145.386 48.2025C144.975 48.0316 144.624 47.7426 144.377 47.3723C144.131 47.0019 143.999 46.5667 144 46.1217C144 45.8261 144.058 45.5334 144.172 45.2604C144.285 44.9874 144.451 44.7394 144.66 44.5307C144.87 44.322 145.118 44.1567 145.392 44.0441C145.665 43.9316 145.958 43.8741 146.253 43.875Z" fill="url(#paint17_linear_345_3928)"/>
<path d="M135 48.375C135.621 48.375 136.125 47.3676 136.125 46.125C136.125 44.8824 135.621 43.875 135 43.875C134.379 43.875 133.875 44.8824 133.875 46.125C133.875 47.3676 134.379 48.375 135 48.375Z" fill="#2A4948"/>
<path d="M123.188 48.375C124.119 48.375 124.875 47.3676 124.875 46.125C124.875 44.8824 124.119 43.875 123.188 43.875C122.256 43.875 121.5 44.8824 121.5 46.125C121.5 47.3676 122.256 48.375 123.188 48.375Z" fill="#2A4948"/>
<path d="M191.25 57.375C188.944 57.9936 188.494 58.4439 187.875 60.75C187.267 58.4439 186.806 57.9936 184.5 57.375C186.749 56.7665 187.256 56.2514 187.875 54C188.437 56.2514 188.944 56.7564 191.25 57.375Z" fill="url(#paint18_linear_345_3928)"/>
<path d="M143.256 16.4617C143.36 16.5565 143.461 16.6591 143.563 16.7538C143.664 16.8486 143.662 16.8525 143.563 16.7538L143.704 16.9078C143.892 17.1051 144.067 17.3262 144.233 17.5433C144.398 17.7604 144.554 17.9834 144.698 18.2103C144.768 18.3235 144.838 18.438 144.905 18.5538C144.937 18.611 144.972 18.6702 145.002 18.7274C144.952 18.6327 144.947 18.6189 144.982 18.6919C145.21 19.1496 145.399 19.6191 145.548 20.0971C145.622 20.3458 145.677 20.5964 145.733 20.8471C145.756 20.9734 145.756 20.9714 145.733 20.8471C145.733 20.9102 145.753 20.9734 145.761 21.0444C145.778 21.1708 145.79 21.2971 145.803 21.4234C145.85 21.9839 146.386 22.5266 147.15 22.499C147.837 22.4753 148.549 22.0253 148.497 21.4234C148.298 19.0298 147.127 16.7532 145.162 14.9381C144.7 14.5098 143.723 14.5316 143.256 14.9381C143.011 15.1433 142.875 15.4157 142.875 15.6989C142.875 15.9822 143.011 16.2546 143.256 16.4598V16.4617Z" fill="white"/>
<path d="M146.812 27C149.062 27 149.062 24.75 146.812 24.75C144.562 24.75 144.562 27 146.812 27Z" fill="white"/>
<defs>
<linearGradient id="paint0_linear_345_3928" x1="60.1864" y1="33.75" x2="60.1864" y2="11.25" gradientUnits="userSpaceOnUse">
<stop stop-color="#EBEBEB" stop-opacity="0"/>
<stop offset="0.01" stop-color="#EBEBEB" stop-opacity="0.02"/>
<stop offset="0.12" stop-color="#EAEAEA" stop-opacity="0.25"/>
<stop offset="0.23" stop-color="#E9E9E9" stop-opacity="0.45"/>
<stop offset="0.34" stop-color="#E8E8E8" stop-opacity="0.62"/>
<stop offset="0.46" stop-color="#E7E7E7" stop-opacity="0.76"/>
<stop offset="0.58" stop-color="#E7E7E7" stop-opacity="0.86"/>
<stop offset="0.71" stop-color="#E6E6E6" stop-opacity="0.94"/>
<stop offset="0.84" stop-color="#E6E6E6" stop-opacity="0.99"/>
<stop offset="1" stop-color="#E6E6E6"/>
</linearGradient>
<linearGradient id="paint1_linear_345_3928" x1="32.6261" y1="63" x2="32.6261" y2="42.75" gradientUnits="userSpaceOnUse">
<stop stop-color="#2A4948" stop-opacity="0"/>
<stop offset="1" stop-color="#2A4948" stop-opacity="0.4"/>
</linearGradient>
<linearGradient id="paint2_linear_345_3928" x1="166.5" y1="79.3125" x2="180.016" y2="79.3125" gradientUnits="userSpaceOnUse">
<stop stop-color="#8C8C8C"/>
<stop offset="0.23" stop-color="#878787"/>
<stop offset="0.51" stop-color="#777777"/>
<stop offset="0.82" stop-color="#5E5E5E"/>
<stop offset="1" stop-color="#4D4D4D"/>
</linearGradient>
<linearGradient id="paint3_linear_345_3928" x1="70.8675" y1="83.261" x2="79.875" y2="83.261" gradientUnits="userSpaceOnUse">
<stop stop-color="#8C8C8C"/>
<stop offset="0.23" stop-color="#878787"/>
<stop offset="0.51" stop-color="#777777"/>
<stop offset="0.82" stop-color="#5E5E5E"/>
<stop offset="1" stop-color="#4D4D4D"/>
</linearGradient>
<linearGradient id="paint4_linear_345_3928" x1="53.9862" y1="79.3148" x2="66.3612" y2="79.3148" gradientUnits="userSpaceOnUse">
<stop stop-color="#8C8C8C"/>
<stop offset="0.23" stop-color="#878787"/>
<stop offset="0.51" stop-color="#777777"/>
<stop offset="0.82" stop-color="#5E5E5E"/>
<stop offset="1" stop-color="#4D4D4D"/>
</linearGradient>
<linearGradient id="paint5_linear_345_3928" x1="115.875" y1="86.625" x2="115.875" y2="108" gradientUnits="userSpaceOnUse">
<stop stop-color="#2A4948"/>
<stop offset="1" stop-color="#2A4948" stop-opacity="0"/>
</linearGradient>
<linearGradient id="paint6_linear_345_3928" x1="46.125" y1="5.05634" x2="52.875" y2="5.05634" gradientUnits="userSpaceOnUse">
<stop stop-color="#2A4948" stop-opacity="0.25"/>
<stop offset="1" stop-color="#2A4948" stop-opacity="0.74"/>
</linearGradient>
<linearGradient id="paint7_linear_345_3928" x1="120.377" y1="18.5591" x2="123.75" y2="18.5591" gradientUnits="userSpaceOnUse">
<stop stop-color="#BCD9D8" stop-opacity="0.15"/>
<stop offset="1" stop-color="#2A4948"/>
</linearGradient>
<linearGradient id="paint8_linear_345_3928" x1="120.375" y1="9.56363" x2="131.625" y2="9.56363" gradientUnits="userSpaceOnUse">
<stop stop-color="#2A4948" stop-opacity="0.24"/>
<stop offset="1" stop-color="#2A4948"/>
</linearGradient>
<linearGradient id="paint9_linear_345_3928" x1="115.875" y1="72.0034" x2="124.875" y2="72.0034" gradientUnits="userSpaceOnUse">
<stop stop-color="#2A4948" stop-opacity="0.18"/>
<stop offset="1" stop-color="#2A4948" stop-opacity="0.56"/>
</linearGradient>
<linearGradient id="paint10_linear_345_3928" x1="79.875" y1="28.1273" x2="117" y2="28.1273" gradientUnits="userSpaceOnUse">
<stop stop-color="#2A4948" stop-opacity="0.21"/>
<stop offset="1" stop-color="#2A4948"/>
</linearGradient>
<linearGradient id="paint11_linear_345_3928" x1="92.3682" y1="12.9892" x2="114.594" y2="51.9866" gradientUnits="userSpaceOnUse">
<stop stop-color="#2A4948" stop-opacity="0.8"/>
<stop offset="1" stop-color="#2A4948" stop-opacity="0.11"/>
</linearGradient>
<linearGradient id="paint12_linear_345_3928" x1="127.991" y1="33.8339" x2="141.855" y2="56.6999" gradientUnits="userSpaceOnUse">
<stop stop-color="#2A4948" stop-opacity="0.07"/>
<stop offset="0.99" stop-color="#2A4948" stop-opacity="0.15"/>
</linearGradient>
<linearGradient id="paint13_linear_345_3928" x1="117" y1="51.1875" x2="151.875" y2="51.1875" gradientUnits="userSpaceOnUse">
<stop stop-color="#2A4948" stop-opacity="0.09"/>
<stop offset="1" stop-color="#2A4948"/>
</linearGradient>
<linearGradient id="paint14_linear_345_3928" x1="65.25" y1="51.1875" x2="117" y2="51.1875" gradientUnits="userSpaceOnUse">
<stop stop-color="#2A4948" stop-opacity="0.22"/>
<stop offset="1" stop-color="#2A4948" stop-opacity="0.31"/>
</linearGradient>
<linearGradient id="paint15_linear_345_3928" x1="114.445" y1="-3.59493" x2="142.044" y2="45.976" gradientUnits="userSpaceOnUse">
<stop stop-color="#2A4948" stop-opacity="0.12"/>
<stop offset="0.2" stop-color="#2A4948" stop-opacity="0.8"/>
<stop offset="0.2001" stop-color="#2A4948" stop-opacity="0.4"/>
<stop offset="0.99" stop-color="#2A4948" stop-opacity="0.61"/>
</linearGradient>
<linearGradient id="paint16_linear_345_3928" x1="51.7511" y1="20.8282" x2="85.4958" y2="20.8282" gradientUnits="userSpaceOnUse">
<stop stop-color="#2A4948" stop-opacity="0.12"/>
<stop offset="1" stop-color="#2A4948" stop-opacity="0.65"/>
</linearGradient>
<linearGradient id="paint17_linear_345_3928" x1="144" y1="46.1217" x2="148.5" y2="46.1217" gradientUnits="userSpaceOnUse">
<stop stop-color="#2A4948"/>
<stop offset="1" stop-color="#666666"/>
</linearGradient>
<linearGradient id="paint18_linear_345_3928" x1="184.5" y1="57.375" x2="191.25" y2="57.375" gradientUnits="userSpaceOnUse">
<stop stop-color="#F2F2F2"/>
<stop offset="0.31" stop-color="#EDEDED"/>
<stop offset="0.69" stop-color="#DEDEDE"/>
<stop offset="1" stop-color="#CCCCCC"/>
</linearGradient>
</defs>
</svg>
