<svg width="23" height="11" viewBox="0 0 23 11" fill="none" xmlns="http://www.w3.org/2000/svg">
  <rect x="0.25" y="0.25" width="22.5" height="9.5" rx="4.75" fill="white" stroke="#C9C9C9" stroke-width="0.5"/>
  <path d="M6.6025 2.9V6.875H4.8475V7.335H9.3275V6.875H7.0925V4.865H8.9425V4.405H7.0925V2.9H6.6025ZM11.4025 6.45C10.9125 6.63 10.3325 6.775 9.6725 6.885L9.7325 7.35C10.3575 7.235 10.9125 7.085 11.4025 6.895V6.45ZM10.4425 2.87C10.2625 3.42 10.0575 3.925 9.8175 4.375C9.7575 4.46 9.6925 4.52 9.6225 4.55L9.7375 4.98C9.9925 4.945 10.2375 4.91 10.4775 4.88C10.2475 5.285 10.0575 5.57 9.9075 5.735C9.8475 5.79 9.7775 5.835 9.6925 5.87L9.8225 6.3C10.3025 6.24 10.8125 6.115 11.3525 5.935V5.51C11.0225 5.62 10.7025 5.71 10.3825 5.78C10.6625 5.42 11.0025 4.85 11.4075 4.07L10.9825 3.91C10.8875 4.1 10.7975 4.285 10.7075 4.455C10.5275 4.48 10.3525 4.5 10.1775 4.52C10.4175 4.145 10.6575 3.655 10.8975 3.05L10.4425 2.87ZM13.8375 3.745L12.6425 3.91V2.9H12.1675V3.975L11.4425 4.08L11.5125 4.52L12.1775 4.425C12.1875 4.625 12.1975 4.815 12.2175 5L11.3575 5.135L11.4225 5.585L12.2775 5.45C12.2975 5.56 12.3175 5.67 12.3425 5.775C12.4025 6.025 12.4725 6.255 12.5625 6.465C12.2125 6.725 11.8125 6.925 11.3625 7.065L11.6375 7.445C12.0375 7.325 12.4175 7.135 12.7775 6.875C12.8025 6.915 12.8325 6.96 12.8675 7.005C13.0925 7.305 13.3325 7.46 13.5825 7.465C13.8625 7.465 14.0725 7.14 14.2225 6.5L13.8175 6.23C13.7375 6.705 13.6425 6.945 13.5275 6.945C13.4075 6.945 13.2725 6.825 13.1225 6.595C13.4125 6.335 13.6775 6.02 13.9275 5.66L13.5525 5.405C13.3675 5.685 13.1575 5.935 12.9275 6.155C12.8625 5.97 12.8075 5.76 12.7675 5.525L12.7475 5.38L14.0425 5.175L13.9725 4.725L12.6925 4.925C12.6725 4.745 12.6625 4.56 12.6525 4.36L13.9025 4.185L13.8375 3.745ZM13.2025 2.88L12.8425 3.11C13.0725 3.335 13.2575 3.54 13.3925 3.73L13.7625 3.47C13.6325 3.305 13.4425 3.11 13.2025 2.88Z" fill="#C9C9C9"/>
  <circle cx="18" cy="5" r="1" fill="#648C51"/>
</svg>
