<svg width="169" height="169" viewBox="0 0 169 169" fill="none" xmlns="http://www.w3.org/2000/svg">
<g clip-path="url(#clip0_345_2607)">
<g opacity="0.9">
<path opacity="0.331" d="M84.5 141.115C97.5411 141.115 108.113 140.064 108.113 138.768C108.113 137.471 97.5411 136.421 84.5 136.421C71.4589 136.421 60.887 137.471 60.887 138.768C60.887 140.064 71.4589 141.115 84.5 141.115Z" fill="url(#paint0_linear_345_2607)"/>
<g opacity="0.7794">
<path opacity="0.5988" d="M32.8182 105.687C34.3479 105.687 35.5879 105.309 35.5879 104.842C35.5879 104.376 34.3479 103.997 32.8182 103.997C31.2885 103.997 30.0485 104.376 30.0485 104.842C30.0485 105.309 31.2885 105.687 32.8182 105.687Z" fill="#2A4948" fill-opacity="0.8"/>
<path opacity="0.5765" d="M30.3771 104.842C31.1752 105.171 34.8368 99.3969 35.4002 97.8478C35.9166 96.2986 35.3532 94.6086 34.1327 94.0922C32.9121 93.5758 31.4568 94.3739 30.9405 95.923C30.4241 97.4722 29.626 104.514 30.3771 104.842Z" fill="url(#paint1_linear_345_2607)"/>
<path d="M30.5179 104.842C31.4568 104.561 31.316 96.3455 30.8935 94.4677C30.471 92.59 28.8279 91.4633 27.3257 91.8858C25.8235 92.3083 24.9785 94.1861 25.4479 96.0639C25.9174 97.9416 29.5791 105.124 30.5179 104.842Z" fill="url(#paint2_linear_345_2607)"/>
</g>
<path opacity="0.7" d="M45.677 37.7434C45.4892 37.7434 45.3014 37.7434 45.1136 37.6964C44.8789 37.7434 44.6442 37.7434 44.4095 37.7434C40.7478 37.7434 37.7433 34.7859 37.7433 31.0772C37.7433 27.3686 40.7008 24.4111 44.4095 24.4111C44.832 24.4111 45.2545 24.4581 45.63 24.505C47.1322 21.6414 50.1367 19.6697 53.6106 19.6697C58.5867 19.6697 62.6239 23.707 62.6239 28.6831H67.9756C70.4636 28.6831 72.4822 30.7017 72.4822 33.1897C72.4822 35.6778 70.4636 37.6964 67.9756 37.6964H45.677V37.7434Z" fill="url(#paint3_linear_345_2607)"/>
<path d="M15.8705 125.672C23.3347 114.734 30.4233 109.288 37.2303 109.288C44.0372 109.288 51.783 114.734 60.5147 125.672H15.8705Z" fill="url(#paint4_linear_345_2607)"/>
<path d="M42.3003 125.672C50.14 110.79 58.59 103.373 67.5564 103.373C76.5228 103.373 92.8125 110.79 116.426 125.672H42.3003Z" fill="url(#paint5_linear_345_2607)"/>
<path d="M153.136 125.672C144.921 114.076 137.175 108.255 129.899 108.255C122.622 108.255 110.933 114.076 94.7842 125.672H153.136Z" fill="url(#paint6_linear_345_2607)"/>
<path opacity="0.6699" d="M127.397 93.9294C128.564 93.9294 129.51 93.6351 129.51 93.2722C129.51 92.9092 128.564 92.6149 127.397 92.6149C126.23 92.6149 125.285 92.9092 125.285 93.2722C125.285 93.6351 126.23 93.9294 127.397 93.9294Z" fill="#2A4948" fill-opacity="0.8"/>
<path opacity="0.5765" d="M125.566 93.2253C126.177 93.46 128.993 89.3289 129.416 88.2022C129.791 87.1225 129.369 85.9019 128.43 85.5264C127.491 85.1508 126.364 85.7611 125.942 86.8878C125.519 87.9675 124.956 92.9905 125.566 93.2253Z" fill="url(#paint7_linear_345_2607)"/>
<path d="M125.426 93.2722C126.177 93.0375 126.083 87.2633 125.707 85.9488C125.379 84.6344 124.111 83.8363 122.938 84.118C121.764 84.3997 121.107 85.7141 121.482 87.0286C121.858 88.343 124.721 93.46 125.426 93.2722Z" fill="url(#paint8_linear_345_2607)"/>
<g opacity="0.8969">
<path opacity="0.5969" d="M134.215 140.252C135.745 140.252 136.985 139.873 136.985 139.407C136.985 138.94 135.745 138.562 134.215 138.562C132.685 138.562 131.445 138.94 131.445 139.407C131.445 139.873 132.685 140.252 134.215 140.252Z" fill="#2A4948" fill-opacity="0.8"/>
<path opacity="0.5765" d="M132.196 139.547C133.229 139.97 138.018 132.928 138.722 131.051C139.426 129.173 138.675 127.154 137.079 126.497C135.483 125.84 133.605 126.872 132.901 128.75C132.196 130.628 131.164 139.172 132.196 139.547Z" fill="url(#paint9_linear_345_2607)"/>
<path d="M132.197 139.594C133.464 139.266 133.276 129.407 132.666 127.201C132.056 124.995 129.943 123.539 127.925 124.056C125.906 124.572 124.779 126.826 125.39 129.032C126 131.238 130.929 139.923 132.197 139.594Z" fill="url(#paint10_linear_345_2607)"/>
</g>
<path d="M53.1254 59.6279L83.4611 51.4995C88.449 50.163 93.6236 53.1505 94.9601 58.1384L106.636 101.715C107.973 106.703 104.985 111.877 99.9974 113.214L69.6617 121.342C64.6737 122.679 59.4992 119.691 58.1627 114.703L46.4864 71.1269C45.1499 66.139 48.1374 60.9644 53.1254 59.6279Z" fill="#2A4948" fill-opacity="0.8"/>
<g opacity="0.3976">
<path d="M52.7396 55.6952L72.3155 52.2213L79.5449 93.5324L59.9691 97.0063L52.7396 55.6952Z" fill="#2A4948" fill-opacity="0.8"/>
</g>
<path d="M69.0107 52.5099H105.158C110.322 52.5099 114.547 56.7349 114.547 61.8988V113.444C114.547 118.608 110.322 122.833 105.158 122.833H69.0107C63.8468 122.833 59.6218 118.608 59.6218 113.444V61.8988C59.6218 56.7349 63.8468 52.5099 69.0107 52.5099Z" fill="url(#paint11_linear_345_2607)"/>
<path d="M69.1156 56.3704H105.028C108.126 56.3704 110.661 58.9054 110.661 62.0037V113.361C110.661 116.459 108.126 118.994 105.028 118.994H69.1156C66.0172 118.994 63.4822 116.459 63.4822 113.361V62.0037C63.4822 58.9054 66.0172 56.3704 69.1156 56.3704Z" fill="white"/>
<g opacity="0.1004">
<path d="M62.6373 117.492H89.2078C92.1184 117.163 93.9962 116.882 94.8412 116.6C100.709 114.581 106.108 110.122 108.549 104.535C111.788 97.1651 112.633 92.3298 111.084 90.0765L62.6373 91.5318V117.492Z" fill="#2A4948" fill-opacity="0.8"/>
</g>
<path d="M68.7554 56.3704H105.513C108.377 56.3704 110.677 58.6706 110.677 61.5342V89.9356L107.907 98.902C105.137 107.915 96.7813 114.112 87.3454 114.066L59.1318 114.018C56.7846 114.018 54.8599 112.093 54.8599 109.699C54.8599 109.136 54.9538 108.573 55.1885 108.103L63.6385 87.5415V61.5342C63.6385 58.6706 65.9388 56.3704 68.7554 56.3704Z" fill="url(#paint12_linear_345_2607)"/>
<g opacity="0.6515">
<path d="M111.85 85.3351C111.146 85.9454 109.644 91.0623 105.748 94.7709C102.931 97.4468 96.7343 98.3387 93.4012 101.343C91.101 103.409 91.6173 106.085 88.1904 108.948C85.7493 111.014 80.914 113.783 73.7315 117.21L106.217 117.962C110.771 95.5221 112.648 84.6309 111.85 85.3351Z" fill="#2A4948" fill-opacity="0.8"/>
</g>
<g opacity="0.5973">
<path d="M91.2887 75.4767C91.8051 75.4767 92.2276 76.0401 92.2276 76.7442C92.2276 77.4484 91.8051 78.0117 91.2887 78.0117H80.2568C79.7404 78.0117 79.3179 77.4484 79.3179 76.7442C79.3179 76.0401 79.7404 75.4767 80.2568 75.4767H91.2887ZM104.152 70.7823C104.668 70.7823 105.09 71.3456 105.09 72.0498C105.09 72.754 104.668 73.3173 104.152 73.3173H80.2568C79.7404 73.3173 79.3179 72.754 79.3179 72.0498C79.3179 71.3456 79.7404 70.7823 80.2568 70.7823H104.152ZM68.1921 66.2287H77.2054V78.2465H68.1921V66.2287ZM104.152 66.0409C104.668 66.0409 105.09 66.6042 105.09 67.3084C105.09 68.0126 104.668 68.5759 104.152 68.5759H80.2568C79.7404 68.5759 79.3179 68.0126 79.3179 67.3084C79.3179 66.6042 79.7404 66.0409 80.2568 66.0409H104.152Z" fill="url(#paint13_linear_345_2607)"/>
</g>
<g opacity="0.5973">
<path d="M91.2887 94.8179C91.8051 94.8179 92.2276 95.3812 92.2276 96.0854C92.2276 96.7895 91.8051 97.3529 91.2887 97.3529H80.2568C79.7404 97.3529 79.3179 96.7895 79.3179 96.0854C79.3179 95.3812 79.7404 94.8179 80.2568 94.8179H91.2887ZM104.152 90.0765C104.668 90.0765 105.09 90.6398 105.09 91.344C105.09 92.0481 104.668 92.6115 104.152 92.6115H80.2568C79.7404 92.6115 79.3179 92.0481 79.3179 91.344C79.3179 90.6398 79.7404 90.0765 80.2568 90.0765H104.152ZM68.1921 85.5229H77.2054V97.5406H68.1921V85.5229ZM104.152 85.3351C104.668 85.3351 105.09 85.8984 105.09 86.6026C105.09 87.3067 104.668 87.8701 104.152 87.8701H80.2568C79.7404 87.8701 79.3179 87.3067 79.3179 86.6026C79.3179 85.8984 79.7404 85.3351 80.2568 85.3351H104.152Z" fill="url(#paint14_linear_345_2607)"/>
</g>
<path d="M112.977 85.3351C110.865 93.2687 106.358 98.2448 99.504 100.31C89.2232 103.362 97.5793 108.103 81.3834 113.22C75.0929 115.614 83.449 115.004 106.405 111.389L112.977 85.3351Z" fill="url(#paint15_linear_345_2607)"/>
<g opacity="0.3574">
<path d="M109.362 96.0853C109.362 97.0242 104.762 105.521 99.8327 108.807C94.9035 112.093 88.8477 114.675 82.698 114.675C79.271 114.675 82.9796 115.896 93.7299 115.286C95.1382 115.192 97.4855 114.581 100.819 113.361C104.668 108.995 106.921 106.085 107.579 104.676C110.959 97.5876 109.362 95.6159 109.362 96.0853Z" fill="white"/>
</g>
<path d="M87.0638 45.6406C90.5846 45.6406 93.4013 48.5042 93.4013 52.025H102.086C102.555 52.025 102.931 52.4006 102.931 52.87V58.4564C102.931 58.9258 102.555 59.3014 102.086 59.3014H72.0415C71.5721 59.3014 71.1965 58.9258 71.1965 58.4564V52.917C71.1965 52.4475 71.5721 52.072 72.0415 52.072H80.7263C80.7263 48.5042 83.5899 45.6406 87.0638 45.6406Z" fill="#2A4948" fill-opacity="0.8"/>
<path d="M72.0481 57.6584C71.5786 57.6584 71.2031 57.2828 71.2031 56.8134V52.3067C71.2031 51.8372 71.5786 51.4617 72.0481 51.4617H80.7328C80.7328 47.9878 83.5495 45.2181 87.0703 45.2181C90.5911 45.2181 93.4078 47.9878 93.4078 51.4147H102.093C102.562 51.4147 102.938 51.7903 102.938 52.2597V56.7664C102.938 57.2359 102.562 57.6114 102.093 57.6114H72.0481V57.6584Z" fill="url(#paint16_linear_345_2607)"/>
<path d="M86.876 54.2314C88.665 54.2314 90.1152 52.7812 90.1152 50.9922C90.1152 49.2033 88.665 47.7531 86.876 47.7531C85.0871 47.7531 83.6368 49.2033 83.6368 50.9922C83.6368 52.7812 85.0871 54.2314 86.876 54.2314Z" fill="url(#paint17_linear_345_2607)"/>
<path d="M79.8557 89.57C73.3304 83.0447 62.8148 83.0447 56.2896 89.57C49.7643 96.0953 49.7643 106.611 56.2896 113.136C62.8148 119.661 73.3304 119.661 79.8557 113.136C86.381 106.611 86.381 96.0953 79.8557 89.57ZM77.5085 91.9172C82.7193 97.128 82.7193 105.578 77.5085 110.789C72.2976 116 63.8476 116 58.6368 110.789C53.426 105.578 53.426 97.128 58.6368 91.9172C63.8476 86.7064 72.2976 86.7064 77.5085 91.9172Z" fill="url(#paint18_linear_345_2607)"/>
<path d="M55.7054 111.366L52.7479 114.323L52.4662 114.042C51.9498 113.525 51.1518 113.525 50.6354 114.042L37.9134 126.764C37.444 127.233 37.3971 128.031 37.8665 128.501L37.9134 128.548L40.824 131.458C41.3404 131.975 42.1384 131.975 42.6548 131.458L55.3768 118.736C55.8462 118.267 55.8932 117.469 55.4237 116.999L55.3768 116.952L55.0951 116.671L58.0526 113.713L55.7054 111.366Z" fill="url(#paint19_linear_345_2607)"/>
<path d="M58.6416 110.775C53.435 105.569 53.435 97.127 58.6416 91.9205C63.8481 86.7139 72.2896 86.7139 77.4962 91.9205C82.7027 97.127 82.7027 105.569 77.4962 110.775C72.2896 115.982 63.8481 115.982 58.6416 110.775Z" fill="url(#paint20_linear_345_2607)"/>
</g>
</g>
<defs>
<linearGradient id="paint0_linear_345_2607" x1="117.98" y1="138.748" x2="49.0975" y2="138.748" gradientUnits="userSpaceOnUse">
<stop stop-color="#2A4948" stop-opacity="0.15"/>
<stop offset="1" stop-color="#2A4948"/>
</linearGradient>
<linearGradient id="paint1_linear_345_2607" x1="32.927" y1="94.979" x2="32.0721" y2="104.81" gradientUnits="userSpaceOnUse">
<stop stop-color="#F4F5F5"/>
<stop offset="1" stop-color="#B3B5B9"/>
</linearGradient>
<linearGradient id="paint2_linear_345_2607" x1="28.2246" y1="92.7618" x2="28.9218" y2="104.794" gradientUnits="userSpaceOnUse">
<stop stop-color="#F3F4F4"/>
<stop offset="1" stop-color="#B3B5B9"/>
</linearGradient>
<linearGradient id="paint3_linear_345_2607" x1="55.1022" y1="37.7571" x2="55.1022" y2="11.7881" gradientUnits="userSpaceOnUse">
<stop stop-color="#2A4948" stop-opacity="0.17"/>
<stop offset="1" stop-color="#2A4948"/>
</linearGradient>
<linearGradient id="paint4_linear_345_2607" x1="38.1677" y1="125.638" x2="38.1677" y2="109.774" gradientUnits="userSpaceOnUse">
<stop stop-color="#F4F5F5" stop-opacity="0"/>
<stop offset="1" stop-color="#EEEFF0"/>
</linearGradient>
<linearGradient id="paint5_linear_345_2607" x1="79.3699" y1="125.61" x2="79.3699" y2="104.008" gradientUnits="userSpaceOnUse">
<stop stop-color="#F4F5F5" stop-opacity="0"/>
<stop offset="1" stop-color="#EEEFF0"/>
</linearGradient>
<linearGradient id="paint6_linear_345_2607" x1="123.98" y1="125.676" x2="123.98" y2="108.251" gradientUnits="userSpaceOnUse">
<stop offset="0.00290329" stop-color="#F4F5F5" stop-opacity="0"/>
<stop offset="0.9798" stop-color="#F0F1F2"/>
</linearGradient>
<linearGradient id="paint7_linear_345_2607" x1="127.519" y1="86.2145" x2="126.766" y2="93.223" gradientUnits="userSpaceOnUse">
<stop stop-color="#F4F5F5"/>
<stop offset="1" stop-color="#B3B5B9"/>
</linearGradient>
<linearGradient id="paint8_linear_345_2607" x1="123.634" y1="84.7522" x2="124.29" y2="93.202" gradientUnits="userSpaceOnUse">
<stop stop-color="#F3F4F4"/>
<stop offset="1" stop-color="#B3B5B9"/>
</linearGradient>
<linearGradient id="paint9_linear_345_2607" x1="135.532" y1="127.636" x2="134.253" y2="139.496" gradientUnits="userSpaceOnUse">
<stop stop-color="#F4F5F5"/>
<stop offset="1" stop-color="#B3B5B9"/>
</linearGradient>
<linearGradient id="paint10_linear_345_2607" x1="129.09" y1="125.12" x2="130.231" y2="139.489" gradientUnits="userSpaceOnUse">
<stop stop-color="#F3F4F4"/>
<stop offset="1" stop-color="#B3B5B9"/>
</linearGradient>
<linearGradient id="paint11_linear_345_2607" x1="87.0775" y1="52.5105" x2="87.0775" y2="122.856" gradientUnits="userSpaceOnUse">
<stop stop-color="#C9D7D6"/>
<stop offset="1" stop-color="#2A4948"/>
</linearGradient>
<linearGradient id="paint12_linear_345_2607" x1="82.7453" y1="56.63" x2="82.7453" y2="113.217" gradientUnits="userSpaceOnUse">
<stop stop-color="white"/>
<stop offset="1" stop-color="#E9E9E9"/>
</linearGradient>
<linearGradient id="paint13_linear_345_2607" x1="105.046" y1="72.1962" x2="70.3413" y2="71.3494" gradientUnits="userSpaceOnUse">
<stop stop-color="#98C1C0"/>
<stop offset="1" stop-color="#2A4948"/>
</linearGradient>
<linearGradient id="paint14_linear_345_2607" x1="105.046" y1="91.4913" x2="70.3413" y2="90.6445" gradientUnits="userSpaceOnUse">
<stop stop-color="#9DC6C4"/>
<stop offset="1" stop-color="#2A4948"/>
</linearGradient>
<linearGradient id="paint15_linear_345_2607" x1="93.5575" y1="97.5383" x2="101.207" y2="106.797" gradientUnits="userSpaceOnUse">
<stop stop-color="#2A4948"/>
<stop offset="0.6622" stop-color="#2A4948"/>
<stop offset="1" stop-color="#7A9190"/>
</linearGradient>
<linearGradient id="paint16_linear_345_2607" x1="87.0791" y1="45.2066" x2="87.0791" y2="57.6457" gradientUnits="userSpaceOnUse">
<stop stop-color="#D4E0E0"/>
<stop offset="1" stop-color="#2A4948"/>
</linearGradient>
<linearGradient id="paint17_linear_345_2607" x1="86.8526" y1="47.8154" x2="86.8526" y2="54.2212" gradientUnits="userSpaceOnUse">
<stop stop-color="white"/>
<stop offset="1" stop-color="white" stop-opacity="0.4778"/>
</linearGradient>
<linearGradient id="paint18_linear_345_2607" x1="68.0828" y1="84.6942" x2="68.0828" y2="118.014" gradientUnits="userSpaceOnUse">
<stop stop-color="#EFF0F1"/>
<stop offset="1" stop-color="#BBBDC1"/>
</linearGradient>
<linearGradient id="paint19_linear_345_2607" x1="38.7236" y1="128.063" x2="19.4403" y2="115.062" gradientUnits="userSpaceOnUse">
<stop stop-color="#698887"/>
<stop offset="1" stop-color="#2A4948"/>
</linearGradient>
<linearGradient id="paint20_linear_345_2607" x1="77.4367" y1="92.0124" x2="50.8923" y2="92.0124" gradientUnits="userSpaceOnUse">
<stop stop-color="white" stop-opacity="0.6357"/>
<stop offset="1" stop-color="white" stop-opacity="0.0974377"/>
</linearGradient>
<clipPath id="clip0_345_2607">
<rect width="169" height="169" fill="white"/>
</clipPath>
</defs>
</svg>
