<svg width="33" height="34" viewBox="0 0 33 34" fill="none" xmlns="http://www.w3.org/2000/svg">
<g clip-path="url(#clip0_196_6970)">
<path d="M16.2915 21.0667C18.5409 21.0667 20.3644 19.2432 20.3644 16.9938C20.3644 14.7444 18.5409 12.9209 16.2915 12.9209C14.0421 12.9209 12.2186 14.7444 12.2186 16.9938C12.2186 19.2432 14.0421 21.0667 16.2915 21.0667Z" stroke="white" stroke-width="2.3" stroke-linecap="round" stroke-linejoin="round"/>
<path d="M26.338 21.0667C26.1573 21.4761 26.1033 21.9304 26.1832 22.3708C26.2631 22.8112 26.473 23.2176 26.786 23.5375L26.8675 23.619C27.1199 23.8712 27.3202 24.1706 27.4568 24.5003C27.5935 24.8299 27.6638 25.1832 27.6638 25.54C27.6638 25.8969 27.5935 26.2502 27.4568 26.5798C27.3202 26.9095 27.1199 27.2089 26.8675 27.4611C26.6153 27.7135 26.3158 27.9138 25.9862 28.0505C25.6566 28.1871 25.3032 28.2574 24.9464 28.2574C24.5896 28.2574 24.2363 28.1871 23.9066 28.0505C23.577 27.9138 23.2775 27.7135 23.0254 27.4611L22.9439 27.3796C22.6239 27.0666 22.2176 26.8567 21.7771 26.7768C21.3367 26.697 20.8825 26.7509 20.473 26.9316C20.0715 27.1037 19.729 27.3895 19.4878 27.7537C19.2466 28.1179 19.1171 28.5448 19.1154 28.9816V29.2124C19.1154 29.9326 18.8293 30.6232 18.3201 31.1324C17.8109 31.6416 17.1203 31.9277 16.4001 31.9277C15.68 31.9277 14.9894 31.6416 14.4802 31.1324C13.971 30.6232 13.6849 29.9326 13.6849 29.2124V29.0902C13.6744 28.6409 13.5289 28.2051 13.2674 27.8395C13.0059 27.4739 12.6405 27.1954 12.2186 27.0402C11.8092 26.8595 11.3549 26.8056 10.9145 26.8854C10.4741 26.9653 10.0677 27.1753 9.74777 27.4882L9.66631 27.5697C9.41413 27.8222 9.11467 28.0224 8.78505 28.1591C8.45542 28.2957 8.10209 28.366 7.74527 28.366C7.38844 28.366 7.03511 28.2957 6.70548 28.1591C6.37586 28.0224 6.0764 27.8222 5.82422 27.5697C5.57177 27.3175 5.37149 27.0181 5.23485 26.6884C5.09821 26.3588 5.02787 26.0055 5.02787 25.6487C5.02787 25.2918 5.09821 24.9385 5.23485 24.6089C5.37149 24.2792 5.57177 23.9798 5.82422 23.7276L5.90568 23.6462C6.21866 23.3262 6.42862 22.9198 6.50847 22.4794C6.58833 22.039 6.53442 21.5848 6.3537 21.1753C6.1816 20.7737 5.89584 20.4313 5.53161 20.1901C5.16737 19.9488 4.74055 19.8194 4.30368 19.8176H4.07288C3.35275 19.8176 2.66212 19.5316 2.15291 19.0224C1.6437 18.5132 1.35763 17.8225 1.35763 17.1024C1.35763 16.3823 1.6437 15.6916 2.15291 15.1824C2.66212 14.6732 3.35275 14.3871 4.07288 14.3871H4.19507C4.64444 14.3766 5.08025 14.2312 5.44585 13.9697C5.81145 13.7082 6.08993 13.3428 6.24509 12.9209C6.42581 12.5114 6.47972 12.0572 6.39986 11.6168C6.32001 11.1764 6.11005 10.77 5.79707 10.45L5.71561 10.3686C5.46316 10.1164 5.26288 9.81692 5.12624 9.48729C4.9896 9.15767 4.91926 8.80434 4.91926 8.44751C4.91926 8.09069 4.9896 7.73736 5.12624 7.40773C5.26288 7.07811 5.46316 6.77864 5.71561 6.52647C5.96779 6.27402 6.26725 6.07374 6.59687 5.9371C6.9265 5.80045 7.27983 5.73012 7.63666 5.73012C7.99348 5.73012 8.34681 5.80045 8.67644 5.9371C9.00606 6.07374 9.30552 6.27402 9.5577 6.52647L9.63916 6.60793C9.95912 6.92091 10.3655 7.13087 10.8059 7.21072C11.2463 7.29057 11.7006 7.23667 12.11 7.05594H12.2186C12.6202 6.88385 12.9627 6.59809 13.2039 6.23385C13.4451 5.86962 13.5745 5.44279 13.5763 5.00593V4.77513C13.5763 4.055 13.8623 3.36436 14.3716 2.85516C14.8808 2.34595 15.5714 2.05988 16.2915 2.05988C17.0117 2.05988 17.7023 2.34595 18.2115 2.85516C18.7207 3.36436 19.0068 4.055 19.0068 4.77513V4.89732C19.0085 5.33418 19.138 5.76101 19.3792 6.12524C19.6204 6.48948 19.9629 6.77524 20.3644 6.94733C20.7739 7.12806 21.2281 7.18196 21.6685 7.10211C22.1089 7.02226 22.5153 6.8123 22.8353 6.49932L22.9168 6.41786C23.1689 6.16541 23.4684 5.96513 23.798 5.82849C24.1276 5.69184 24.481 5.62151 24.8378 5.62151C25.1946 5.62151 25.5479 5.69184 25.8776 5.82849C26.2072 5.96513 26.5067 6.16541 26.7588 6.41786C27.0113 6.67003 27.2116 6.9695 27.3482 7.29912C27.4849 7.62875 27.5552 7.98208 27.5552 8.3389C27.5552 8.69573 27.4849 9.04906 27.3482 9.37868C27.2116 9.70831 27.0113 10.0078 26.7588 10.2599L26.6774 10.3414C26.3644 10.6614 26.1544 11.0678 26.0746 11.5082C25.9947 11.9486 26.0486 12.4028 26.2294 12.8123V12.9209C26.4015 13.3224 26.6872 13.6649 27.0515 13.9061C27.4157 14.1473 27.8425 14.2768 28.2794 14.2785H28.5102C29.2303 14.2785 29.9209 14.5646 30.4302 15.0738C30.9394 15.583 31.2254 16.2736 31.2254 16.9938C31.2254 17.7139 30.9394 18.4045 30.4302 18.9138C29.9209 19.423 29.2303 19.709 28.5102 19.709H28.388C27.9511 19.7108 27.5243 19.8402 27.1601 20.0814C26.7958 20.3227 26.5101 20.6651 26.338 21.0667V21.0667Z" stroke="white" stroke-width="2.3" stroke-linecap="round" stroke-linejoin="round"/>
</g>
<defs>
<clipPath id="clip0_196_6970">
<rect width="32.5831" height="32.5831" fill="white" transform="translate(0 0.702271)"/>
</clipPath>
</defs>
</svg>
