<svg width="36" height="36" viewBox="0 0 36 36" fill="none" xmlns="http://www.w3.org/2000/svg">
<path d="M19.0937 5.44324C18.662 5.01151 17.962 5.01151 17.5303 5.44324L11.6343 11.3392C11.2026 11.7709 11.2026 12.4709 11.6343 12.9026C12.066 13.3344 12.766 13.3344 13.1977 12.9026L17.2065 8.89385V23.9129C17.2065 24.5234 17.7014 25.0184 18.312 25.0184C18.9225 25.0184 19.4175 24.5234 19.4175 23.9129V8.89385L23.4262 12.9026C23.858 13.3344 24.5579 13.3344 24.9897 12.9026C25.4214 12.4709 25.4214 11.7709 24.9897 11.3392L19.0937 5.44324Z" fill="white"/>
<path d="M4.67751 18.0169C4.67751 17.4064 4.18256 16.9114 3.57202 16.9114C2.96147 16.9114 2.46652 17.4064 2.46652 18.0169V23.2152C2.46651 24.212 2.46651 25.0162 2.51116 25.6707C2.55707 26.3436 2.65388 26.9387 2.88727 27.5022C3.44828 28.8566 4.52434 29.9326 5.87873 30.4936C6.4422 30.727 7.03727 30.8238 7.71023 30.8697C8.36469 30.9144 9.16884 30.9144 10.1657 30.9144H26.4582C27.4551 30.9144 28.2593 30.9144 28.9137 30.8697C29.5867 30.8238 30.1817 30.727 30.7452 30.4936C32.0996 29.9326 33.1757 28.8566 33.7367 27.5022C33.9701 26.9387 34.0669 26.3436 34.1128 25.6707C34.1574 25.0162 34.1574 24.2121 34.1574 23.2152V18.0169C34.1574 17.4064 33.6625 16.9114 33.0519 16.9114C32.4414 16.9114 31.9464 17.4064 31.9464 18.0169V23.1759C31.9464 24.2212 31.9458 24.9498 31.9069 25.5202C31.8687 26.0805 31.7972 26.4069 31.694 26.6561C31.3574 27.4687 30.7117 28.1143 29.8991 28.4509C29.6499 28.5541 29.3236 28.6256 28.7632 28.6639C28.1929 28.7028 27.4643 28.7034 26.4189 28.7034H10.205C9.15968 28.7034 8.43105 28.7028 7.86073 28.6639C7.30034 28.6256 6.974 28.5541 6.72484 28.4509C5.9122 28.1143 5.26657 27.4687 4.92997 26.6561C4.82676 26.4069 4.75526 26.0805 4.71702 25.5202C4.67811 24.9498 4.67751 24.2212 4.67751 23.1759V18.0169Z" fill="white"/>
</svg>
