<svg width="30" height="30" viewBox="0 0 30 30" fill="none" xmlns="http://www.w3.org/2000/svg">
<path d="M14.8465 5.80759C15.4088 5.80759 15.8647 6.26346 15.8647 6.82581V14.5498L19.6393 18.3245C20.037 18.7221 20.037 19.3668 19.6393 19.7644C19.2417 20.1621 18.597 20.1621 18.1994 19.7644L14.1265 15.6916C14.0288 15.5939 13.9552 15.4814 13.9055 15.3613C13.8557 15.2413 13.8282 15.1096 13.8282 14.9716V6.82581C13.8282 6.26346 14.2841 5.80759 14.8465 5.80759Z" fill="white"/>
<path fill-rule="evenodd" clip-rule="evenodd" d="M14.8465 0.377075C6.78614 0.377075 0.251965 6.91125 0.251965 14.9716C0.251965 23.0319 6.78614 29.5661 14.8465 29.5661C22.9068 29.5661 29.441 23.0319 29.441 14.9716C29.441 6.91125 22.9068 0.377075 14.8465 0.377075ZM2.28841 14.9716C2.28841 8.03595 7.91084 2.41352 14.8465 2.41352C21.7821 2.41352 27.4045 8.03595 27.4045 14.9716C27.4045 21.9072 21.7821 27.5296 14.8465 27.5296C7.91084 27.5296 2.28841 21.9072 2.28841 14.9716Z" fill="white"/>
</svg>
