<svg width="29" height="29" viewBox="0 0 29 29" fill="none" xmlns="http://www.w3.org/2000/svg">
<path d="M26.9286 2.75337e-08H2.07143C1.52205 2.75337e-08 0.995176 0.218239 0.606707 0.606707C0.218239 0.995176 0 1.52205 0 2.07143V26.9286C-3.72445e-09 27.2006 0.0535791 27.47 0.157678 27.7213C0.261777 27.9726 0.414357 28.2009 0.606707 28.3933C0.799057 28.5856 1.02741 28.7382 1.27873 28.8423C1.53004 28.9464 1.7994 29 2.07143 29H26.9286C27.2006 29 27.47 28.9464 27.7213 28.8423C27.9726 28.7382 28.2009 28.5856 28.3933 28.3933C28.5856 28.2009 28.7382 27.9726 28.8423 27.7213C28.9464 27.47 29 27.2006 29 26.9286V2.07109C29 1.79908 28.9464 1.52974 28.8423 1.27844C28.7382 1.02714 28.5856 0.798812 28.3933 0.606489C28.2009 0.414166 27.9726 0.261618 27.7212 0.157555C27.4699 0.0534933 27.2006 -4.43241e-05 26.9286 2.75337e-08ZM2.07143 2.07109H26.9286V8.28538H2.07143V2.07109ZM26.9286 26.9282H2.07143V10.3568H26.9286V26.9282Z" fill="white"/>
<path d="M6.38478 16.4273H22.6152C22.8842 16.4273 23.1423 16.3208 23.3325 16.1312C23.5227 15.9417 23.6296 15.6845 23.6296 15.4164C23.6296 15.1483 23.5227 14.8912 23.3325 14.7016C23.1423 14.512 22.8842 14.4055 22.6152 14.4055H6.38478C6.11574 14.4055 5.85772 14.512 5.66748 14.7016C5.47724 14.8912 5.37036 15.1483 5.37036 15.4164C5.37036 15.6845 5.47724 15.9417 5.66748 16.1312C5.85772 16.3208 6.11574 16.4273 6.38478 16.4273ZM6.38478 21.4814H22.6152C22.8842 21.4814 23.1422 21.3749 23.3324 21.1853C23.5226 20.9957 23.6295 20.7386 23.6295 20.4706C23.6295 20.2025 23.5226 19.9454 23.3324 19.7558C23.1422 19.5662 22.8842 19.4597 22.6152 19.4597H6.38478C6.11577 19.4597 5.85779 19.5662 5.66759 19.7558C5.47738 19.9454 5.37053 20.2025 5.37053 20.4706C5.37053 20.7386 5.47738 20.9957 5.66759 21.1853C5.85779 21.3749 6.11577 21.4814 6.38478 21.4814ZM22.6152 4.29626H20.5864C20.3173 4.29626 20.0593 4.40277 19.8691 4.59235C19.6788 4.78193 19.5719 5.03905 19.5719 5.30716C19.5719 5.57526 19.6788 5.83239 19.8691 6.02197C20.0593 6.21155 20.3173 6.31805 20.5864 6.31805H22.6152C22.8842 6.31805 23.1423 6.21155 23.3325 6.02197C23.5227 5.83239 23.6296 5.57526 23.6296 5.30716C23.6296 5.03905 23.5227 4.78193 23.3325 4.59235C23.1423 4.40277 22.8842 4.29626 22.6152 4.29626Z" fill="white"/>
</svg>
