<svg width="28" height="31" viewBox="0 0 28 31" fill="none" xmlns="http://www.w3.org/2000/svg">
<path d="M12.4888 16.7839C12.4888 16.0529 13.0815 15.4602 13.8125 15.4602H13.8804C14.6115 15.4602 15.2041 16.0529 15.2041 16.7839C15.2041 17.515 14.6115 18.1076 13.8804 18.1076H13.8125C13.0815 18.1076 12.4888 17.515 12.4888 16.7839Z" fill="white"/>
<path d="M13.8125 22.2484C13.0815 22.2484 12.4888 22.841 12.4888 23.572C12.4888 24.3031 13.0815 24.8957 13.8125 24.8957H13.8804C14.6115 24.8957 15.2041 24.3031 15.2041 23.572C15.2041 22.841 14.6115 22.2484 13.8804 22.2484H13.8125Z" fill="white"/>
<path d="M19.277 16.7839C19.277 16.0529 19.8696 15.4602 20.6007 15.4602H20.6685C21.3996 15.4602 21.9922 16.0529 21.9922 16.7839C21.9922 17.515 21.3996 18.1076 20.6685 18.1076H20.6007C19.8696 18.1076 19.277 17.515 19.277 16.7839Z" fill="white"/>
<path d="M20.6007 22.2484C19.8696 22.2484 19.277 22.841 19.277 23.572C19.277 24.3031 19.8696 24.8957 20.6007 24.8957H20.6685C21.3996 24.8957 21.9922 24.3031 21.9922 23.572C21.9922 22.841 21.3996 22.2484 20.6685 22.2484H20.6007Z" fill="white"/>
<path d="M5.7007 16.7839C5.7007 16.0529 6.29333 15.4602 7.02438 15.4602H7.09226C7.82332 15.4602 8.41595 16.0529 8.41595 16.7839C8.41595 17.515 7.82332 18.1076 7.09226 18.1076H7.02438C6.29333 18.1076 5.7007 17.515 5.7007 16.7839Z" fill="white"/>
<path d="M7.02438 22.2484C6.29333 22.2484 5.7007 22.841 5.7007 23.572C5.7007 24.3031 6.29333 24.8957 7.02438 24.8957H7.09226C7.82332 24.8957 8.41595 24.3031 8.41595 23.572C8.41595 22.841 7.82332 22.2484 7.09226 22.2484H7.02438Z" fill="white"/>
<path fill-rule="evenodd" clip-rule="evenodd" d="M7.05832 0.865723C7.62067 0.865723 8.07654 1.3216 8.07654 1.88394V3.58098H19.6164V1.88394C19.6164 1.3216 20.0723 0.865723 20.6346 0.865723C21.1969 0.865723 21.6528 1.3216 21.6528 1.88394V3.5945C21.8671 3.60057 22.0669 3.60936 22.2536 3.62209C22.8734 3.66438 23.4215 3.75354 23.9405 3.96851C25.188 4.48523 26.1791 5.47634 26.6958 6.7238C26.9108 7.24279 26.9999 7.79088 27.0422 8.41071C27.0833 9.0135 27.0833 9.75417 27.0833 10.6724V22.9633C27.0833 23.8815 27.0833 24.6222 27.0422 25.225C26.9999 25.8448 26.9108 26.3929 26.6958 26.9119C26.1791 28.1594 25.188 29.1505 23.9405 29.6672C23.4215 29.8821 22.8734 29.9713 22.2536 30.0136C21.6508 30.0547 20.9101 30.0547 19.992 30.0547H7.70097C6.78278 30.0547 6.04212 30.0547 5.43933 30.0136C4.81949 29.9713 4.2714 29.8821 3.75242 29.6672C2.50495 29.1505 1.51385 28.1594 0.99713 26.9119C0.782159 26.3929 0.692999 25.8448 0.650708 25.225C0.60958 24.6222 0.609586 23.8815 0.609593 22.9633V10.6724C0.609586 9.75417 0.60958 9.01351 0.650708 8.41071C0.692999 7.79088 0.782159 7.24279 0.99713 6.7238C1.51385 5.47634 2.50495 4.48523 3.75242 3.96851C4.2714 3.75354 4.81949 3.66438 5.43933 3.62209C5.62597 3.60936 5.82584 3.60057 6.0401 3.5945V1.88394C6.0401 1.3216 6.49598 0.865723 7.05832 0.865723ZM19.6164 5.61742V7.31445C19.6164 7.8768 20.0723 8.33267 20.6346 8.33267C21.1969 8.33267 21.6528 7.8768 21.6528 7.31445V5.63175C21.8195 5.63698 21.9726 5.6441 22.115 5.65381C22.6311 5.68903 22.9317 5.75488 23.1612 5.84994C23.9097 6.15997 24.5043 6.75463 24.8144 7.50311C24.9094 7.7326 24.9753 8.03319 25.0105 8.54933C25.0463 9.07463 25.0469 9.74573 25.0469 10.7085V11.7267H2.64603V10.7085C2.64603 9.74573 2.64659 9.07463 2.68243 8.54933C2.71764 8.03319 2.7835 7.7326 2.87856 7.50311C3.18859 6.75463 3.78325 6.15997 4.53173 5.84994C4.76122 5.75488 5.0618 5.68903 5.57795 5.65381C5.72032 5.6441 5.8734 5.63698 6.0401 5.63175V7.31445C6.0401 7.8768 6.49598 8.33267 7.05832 8.33267C7.62067 8.33267 8.07654 7.8768 8.07654 7.31445V5.61742H19.6164ZM2.64603 13.7632H25.0469V22.9272C25.0469 23.89 25.0463 24.5611 25.0105 25.0864C24.9753 25.6025 24.9094 25.9031 24.8144 26.1326C24.5043 26.8811 23.9097 27.4757 23.1612 27.7858C22.9317 27.8808 22.6311 27.9467 22.115 27.9819C21.5897 28.0177 20.9186 28.0183 19.9558 28.0183H7.73714C6.77434 28.0183 6.10324 28.0177 5.57795 27.9819C5.0618 27.9467 4.76122 27.8808 4.53173 27.7858C3.78325 27.4757 3.18859 26.8811 2.87856 26.1326C2.7835 25.9031 2.71764 25.6025 2.68243 25.0864C2.64659 24.5611 2.64603 23.89 2.64603 22.9272V13.7632Z" fill="white"/>
</svg>
