<svg width="6" height="7" viewBox="0 0 6 7" fill="none" xmlns="http://www.w3.org/2000/svg">
<path d="M5.34433 1.5H0.281827C0.244249 1.49779 0.206574 1.50274 0.171324 1.51452C0.136074 1.52631 0.104063 1.54465 0.0774336 1.56832C0.0508042 1.59199 0.0301714 1.62044 0.0169165 1.65178C0.00366166 1.68311 -0.00190929 1.7166 0.000576653 1.75C-0.00190929 1.7834 0.00366166 1.81689 0.0169165 1.84822C0.0301714 1.87956 0.0508042 1.90801 0.0774336 1.93168C0.104063 1.95535 0.136074 1.97369 0.171324 1.98548C0.206574 1.99726 0.244249 2.00221 0.281827 2H0.563077V6.5C0.563077 6.63261 0.62234 6.75979 0.727829 6.85355C0.833318 6.94732 0.976392 7 1.12558 7H4.50058C4.64976 7 4.79283 6.94732 4.89832 6.85355C5.00381 6.75979 5.06308 6.63261 5.06308 6.5V2H5.34433C5.3819 2.00221 5.41958 1.99726 5.45483 1.98548C5.49008 1.97369 5.52209 1.95535 5.54872 1.93168C5.57535 1.90801 5.59598 1.87956 5.60924 1.84822C5.62249 1.81689 5.62806 1.7834 5.62558 1.75C5.62806 1.7166 5.62249 1.68311 5.60924 1.65178C5.59598 1.62044 5.57535 1.59199 5.54872 1.56832C5.52209 1.54465 5.49008 1.52631 5.45483 1.51452C5.41958 1.50274 5.3819 1.49779 5.34433 1.5ZM2.25058 5.745C2.23312 5.79933 2.19622 5.84713 2.14548 5.88115C2.09473 5.91518 2.03289 5.93359 1.96933 5.93359C1.90576 5.93359 1.84392 5.91518 1.79318 5.88115C1.74243 5.84713 1.70554 5.79933 1.68808 5.745V2.745C1.70554 2.69067 1.74243 2.64287 1.79318 2.60885C1.84392 2.57482 1.90576 2.55641 1.96933 2.55641C2.03289 2.55641 2.09473 2.57482 2.14548 2.60885C2.19622 2.64287 2.23312 2.69067 2.25058 2.745V5.745ZM3.93808 5.745C3.92062 5.79933 3.88372 5.84713 3.83297 5.88115C3.78223 5.91518 3.72039 5.93359 3.65683 5.93359C3.59326 5.93359 3.53143 5.91518 3.48068 5.88115C3.42993 5.84713 3.39304 5.79933 3.37558 5.745V2.745C3.39304 2.69067 3.42993 2.64287 3.48068 2.60885C3.53143 2.57482 3.59326 2.55641 3.65683 2.55641C3.72039 2.55641 3.78223 2.57482 3.83297 2.60885C3.88372 2.64287 3.92062 2.69067 3.93808 2.745V5.745ZM5.34433 0.5H3.93808V0.25C3.93664 0.184097 3.90654 0.121249 3.85411 0.0746397C3.80167 0.0280302 3.73097 0.00128004 3.65683 0H1.96933C1.89473 0 1.8232 0.0263392 1.77045 0.0732233C1.71771 0.120107 1.68808 0.183696 1.68808 0.25V0.5H0.281827C0.244249 0.49779 0.206574 0.502742 0.171324 0.514524C0.136074 0.526306 0.104063 0.544647 0.0774336 0.568317C0.0508042 0.591988 0.0301714 0.620442 0.0169165 0.651776C0.00366166 0.683109 -0.00190929 0.716598 0.000576653 0.75C-0.00190929 0.783402 0.00366166 0.816891 0.0169165 0.848224C0.0301714 0.879558 0.0508042 0.908012 0.0774336 0.931683C0.104063 0.955353 0.136074 0.973694 0.171324 0.985476C0.206574 0.997258 0.244249 1.00221 0.281827 1H5.34433C5.3819 1.00221 5.41958 0.997258 5.45483 0.985476C5.49008 0.973694 5.52209 0.955353 5.54872 0.931683C5.57535 0.908012 5.59598 0.879558 5.60924 0.848224C5.62249 0.816891 5.62806 0.783402 5.62558 0.75C5.62806 0.716598 5.62249 0.683109 5.60924 0.651776C5.59598 0.620442 5.57535 0.591988 5.54872 0.568317C5.52209 0.544647 5.49008 0.526306 5.45483 0.514524C5.41958 0.502742 5.3819 0.49779 5.34433 0.5Z" fill="#2A4948" fill-opacity="0.4"/>
</svg>
