<svg width="34" height="33" viewBox="0 0 34 33" fill="none" xmlns="http://www.w3.org/2000/svg">
<g clip-path="url(#clip0_196_6974)">
<path d="M33.2071 0.374573H0.624023V32.9576H33.2071V0.374573Z" fill="white" fill-opacity="0.01"/>
<path d="M29.1342 20.739V16.9794C29.1342 10.0582 23.6637 4.44745 16.9156 4.44745C10.1674 4.44745 4.69691 10.0582 4.69691 16.9794V20.739" stroke="white" stroke-width="2.2" stroke-linecap="round" stroke-linejoin="round"/>
<path d="M23.7037 22.0966C23.7037 20.597 24.9194 19.3813 26.4189 19.3813H29.1342V28.8847H26.4189C24.9194 28.8847 23.7037 27.6691 23.7037 26.1695V22.0966Z" stroke="white" stroke-width="2.2" stroke-linejoin="round"/>
<path d="M29.1342 22.0966H30.4918C31.2416 22.0966 31.8495 22.7044 31.8495 23.4542V24.8119C31.8495 25.5617 31.2416 26.1695 30.4918 26.1695H29.1342V22.0966Z" fill="white"/>
<path d="M4.69691 22.0966H3.33928C2.58948 22.0966 1.98165 22.7044 1.98165 23.4542V24.8119C1.98165 25.5617 2.58948 26.1695 3.33928 26.1695H4.69691V22.0966Z" fill="white"/>
<path d="M4.69691 19.3813H7.41216C8.91173 19.3813 10.1274 20.597 10.1274 22.0966V26.1695C10.1274 27.6691 8.91173 28.8847 7.41216 28.8847H4.69691V19.3813Z" stroke="white" stroke-width="2.2" stroke-linejoin="round"/>
</g>
<defs>
<clipPath id="clip0_196_6974">
<rect width="32.5831" height="32.5831" fill="white" transform="translate(0.624023 0.374573)"/>
</clipPath>
</defs>
</svg>
