<svg width="29" height="30" viewBox="0 0 29 30" fill="none" xmlns="http://www.w3.org/2000/svg">
<path d="M23.8985 8.08413C23.9535 8.92288 23.8847 9.87163 23.7197 10.9304L22.716 17.3791C21.8635 22.7554 19.3747 24.5704 13.9985 23.7316L7.54971 22.7141C5.69346 22.4254 4.26346 21.9304 3.21846 21.1879C1.22471 19.7991 0.647215 17.5166 1.19721 13.9966L2.21471 7.54788C3.06721 2.17163 5.55596 0.356629 10.9322 1.19538L17.381 2.21288C21.6985 2.88663 23.7197 4.64663 23.8985 8.08413Z" stroke="white" stroke-width="1.8" stroke-linecap="round" stroke-linejoin="round"/>
<path d="M26.4698 16.7741L24.4073 22.9754C22.6885 28.1454 19.9385 29.5204 14.7685 27.8016L8.56726 25.7391C5.44601 24.7079 3.71351 23.2779 3.21851 21.1879C4.26351 21.9304 5.69351 22.4254 7.54976 22.7141L13.9985 23.7316C19.3748 24.5704 21.8635 22.7554 22.716 17.3791L23.7198 10.9304C23.8848 9.87161 23.9535 8.92286 23.8985 8.08411C27.1848 9.83036 27.8998 12.4704 26.4698 16.7741Z" stroke="white" stroke-width="1.8" stroke-linecap="round" stroke-linejoin="round"/>
<path d="M9.61223 10.6003C10.9336 10.6003 12.0047 9.52915 12.0047 8.20781C12.0047 6.88647 10.9336 5.81531 9.61223 5.81531C8.29088 5.81531 7.21973 6.88647 7.21973 8.20781C7.21973 9.52915 8.29088 10.6003 9.61223 10.6003Z" stroke="white" stroke-width="1.8" stroke-linecap="round" stroke-linejoin="round"/>
</svg>
