<svg width="34" height="34" viewBox="0 0 34 34" fill="none" xmlns="http://www.w3.org/2000/svg">
<path fill-rule="evenodd" clip-rule="evenodd" d="M25.0628 5.80151C25.2084 5.25832 25.7667 4.93597 26.3099 5.08152C27.3924 5.37158 28.349 6.01075 29.0313 6.89988C29.7135 7.78901 30.0833 8.87842 30.0833 9.99915C30.0833 11.1199 29.7135 12.2093 29.0313 13.0984C28.349 13.9875 27.3924 14.6267 26.3099 14.9168C25.7667 15.0623 25.2084 14.74 25.0628 14.1968C24.9173 13.6536 25.2396 13.0953 25.7828 12.9497C26.4324 12.7757 27.0063 12.3922 27.4157 11.8587C27.825 11.3252 28.0469 10.6716 28.0469 9.99915C28.0469 9.32671 27.825 8.67306 27.4157 8.13959C27.0063 7.60611 26.4324 7.22261 25.7828 7.04857C25.2396 6.90302 24.9173 6.34469 25.0628 5.80151Z" fill="white"/>
<path fill-rule="evenodd" clip-rule="evenodd" d="M26.6893 19.5025C26.6893 18.9402 27.1451 18.4843 27.7075 18.4843H28.1248C29.929 18.4843 31.5515 19.5828 32.2215 21.2579C33.3809 24.1562 31.2464 27.3089 28.1248 27.3089H27.7075C27.1451 27.3089 26.6893 26.853 26.6893 26.2907C26.6893 25.7283 27.1451 25.2725 27.7075 25.2725H28.1248C29.8057 25.2725 30.955 23.5748 30.3308 22.0142C29.97 21.1122 29.0963 20.5208 28.1248 20.5208H27.7075C27.1451 20.5208 26.6893 20.0649 26.6893 19.5025Z" fill="white"/>
<path fill-rule="evenodd" clip-rule="evenodd" d="M8.63008 5.80151C8.48454 5.25832 7.92621 4.93597 7.38302 5.08152C6.30049 5.37158 5.34391 6.01075 4.66165 6.89988C3.9794 7.78901 3.60959 8.87842 3.60959 9.99915C3.60959 11.1199 3.9794 12.2093 4.66165 13.0984C5.34391 13.9875 6.30049 14.6267 7.38302 14.9168C7.92621 15.0623 8.48454 14.74 8.63008 14.1968C8.77563 13.6536 8.45328 13.0953 7.91009 12.9497C7.26057 12.7757 6.68662 12.3922 6.27727 11.8587C5.86792 11.3252 5.64604 10.6716 5.64604 9.99915C5.64604 9.32671 5.86792 8.67306 6.27727 8.13959C6.68662 7.60611 7.26057 7.22261 7.91009 7.04857C8.45328 6.90302 8.77563 6.34469 8.63008 5.80151Z" fill="white"/>
<path fill-rule="evenodd" clip-rule="evenodd" d="M7.00366 19.5025C7.00366 18.9402 6.54779 18.4843 5.98544 18.4843H5.56808C3.76388 18.4843 2.14144 19.5828 1.47138 21.2579C0.312066 24.1562 2.44655 27.3089 5.56808 27.3089H5.98544C6.54779 27.3089 7.00366 26.853 7.00366 26.2907C7.00366 25.7283 6.54779 25.2725 5.98544 25.2725H5.56808C3.88726 25.2725 2.73792 23.5748 3.36216 22.0142C3.72297 21.1122 4.59659 20.5208 5.56808 20.5208H5.98544C6.54779 20.5208 7.00366 20.0649 7.00366 19.5025Z" fill="white"/>
<path fill-rule="evenodd" clip-rule="evenodd" d="M16.8465 5.58686C14.4096 5.58686 12.4342 7.56231 12.4342 9.99915C12.4342 12.436 14.4096 14.4114 16.8465 14.4114C19.2833 14.4114 21.2588 12.436 21.2588 9.99915C21.2588 7.56231 19.2833 5.58686 16.8465 5.58686ZM10.3977 9.99915C10.3977 6.43761 13.2849 3.55042 16.8465 3.55042C20.408 3.55042 23.2952 6.43761 23.2952 9.99915C23.2952 13.5607 20.408 16.4479 16.8465 16.4479C13.2849 16.4479 10.3977 13.5607 10.3977 9.99915Z" fill="white"/>
<path fill-rule="evenodd" clip-rule="evenodd" d="M12.3795 18.1826H21.3135C21.3981 18.1826 21.4563 18.1826 21.5114 18.1838C23.4679 18.2261 25.227 19.386 26.0366 21.1677C26.0594 21.2179 26.0823 21.2714 26.1157 21.3492L26.1307 21.3843C26.2003 21.5466 26.2468 21.6552 26.2805 21.7424C27.5393 25.0043 25.211 28.5352 21.717 28.6631C21.6236 28.6665 21.5054 28.6665 21.3286 28.6665H12.3643C12.1876 28.6665 12.0694 28.6665 11.9759 28.6631C8.48189 28.5352 6.15363 25.0043 7.41244 21.7424C7.44611 21.6552 7.49268 21.5466 7.5623 21.3841L7.57729 21.3492C7.61063 21.2714 7.63354 21.2179 7.65635 21.1677C8.46589 19.386 10.225 18.2261 12.1815 18.1838C12.2367 18.1826 12.2948 18.1826 12.3795 18.1826ZM12.3909 20.2191C12.2905 20.2191 12.2558 20.2191 12.2255 20.2198C11.0516 20.2451 9.9961 20.9411 9.51038 22.0101C9.49783 22.0377 9.48409 22.0696 9.44457 22.1619C9.36075 22.3574 9.33063 22.4282 9.31231 22.4756C8.55703 24.4328 9.95399 26.5513 12.0504 26.628C12.1012 26.6299 12.1781 26.6301 12.3909 26.6301H21.302C21.5148 26.6301 21.5917 26.6299 21.6425 26.628C23.7389 26.5513 25.1359 24.4328 24.3806 22.4756C24.3623 22.4282 24.3322 22.3574 24.2484 22.1619C24.2088 22.0696 24.1951 22.0377 24.1825 22.0101C23.6968 20.9411 22.6413 20.2451 21.4674 20.2198C21.4371 20.2191 21.4024 20.2191 21.302 20.2191H12.3909Z" fill="white"/>
</svg>
