<svg width="34" height="33" viewBox="0 0 34 33" fill="none" xmlns="http://www.w3.org/2000/svg">
<path d="M10.3977 10.8681C10.3977 10.3058 10.8536 9.84991 11.416 9.84991H16.8465C17.4088 9.84991 17.8647 10.3058 17.8647 10.8681C17.8647 11.4305 17.4088 11.8864 16.8465 11.8864H11.416C10.8536 11.8864 10.3977 11.4305 10.3977 10.8681Z" fill="white"/>
<path d="M11.416 15.2804C10.8536 15.2804 10.3977 15.7363 10.3977 16.2986C10.3977 16.861 10.8536 17.3169 11.416 17.3169H22.277C22.8393 17.3169 23.2952 16.861 23.2952 16.2986C23.2952 15.7363 22.8393 15.2804 22.277 15.2804H11.416Z" fill="white"/>
<path d="M10.3977 21.7292C10.3977 21.1668 10.8536 20.7109 11.416 20.7109H22.277C22.8393 20.7109 23.2952 21.1668 23.2952 21.7292C23.2952 22.2915 22.8393 22.7474 22.277 22.7474H11.416C10.8536 22.7474 10.3977 22.2915 10.3977 21.7292Z" fill="white"/>
<path fill-rule="evenodd" clip-rule="evenodd" d="M18.4854 1.70412C19.2224 1.70394 19.7321 1.70382 20.2255 1.80196C20.8813 1.93239 21.5049 2.1907 22.0608 2.56214C22.479 2.84162 22.8394 3.20216 23.3604 3.72337L26.7065 7.06947C27.2277 7.59043 27.5882 7.95079 27.8677 8.36907C28.2391 8.92497 28.4974 9.54858 28.6279 10.2043C28.726 10.6977 28.7259 11.2075 28.7257 11.9444L28.7257 23.8018C28.7257 24.7199 28.7257 25.4606 28.6846 26.0634C28.6423 26.6832 28.5531 27.2313 28.3382 27.7503C27.8215 28.9978 26.8303 29.9889 25.5829 30.5056C25.0639 30.7206 24.5158 30.8097 23.896 30.852C23.2932 30.8931 22.5525 30.8931 21.6343 30.8931H12.0586C11.1404 30.8931 10.3997 30.8931 9.79695 30.852C9.17712 30.8097 8.62903 30.7206 8.11004 30.5056C6.86258 29.9889 5.87147 28.9978 5.35476 27.7503C5.13979 27.2313 5.05063 26.6832 5.00834 26.0634C4.96721 25.4606 4.96721 24.7199 4.96722 23.8017V8.79552C4.96721 7.87733 4.96721 7.13666 5.00834 6.53386C5.05063 5.91403 5.13979 5.36594 5.35476 4.84695C5.87147 3.59949 6.86258 2.60839 8.11004 2.09167C8.62903 1.8767 9.17712 1.78754 9.79695 1.74525C10.3997 1.70412 11.1404 1.70412 12.0586 1.70413L18.4854 1.70412ZM19.8282 3.79927C19.556 3.74512 19.2587 3.74057 18.3888 3.74057H12.0948C11.132 3.74057 10.4609 3.74112 9.93558 3.77697C9.41943 3.81218 9.11885 3.87804 8.88936 3.9731C8.14088 4.28313 7.54621 4.87779 7.23618 5.62627C7.14113 5.85576 7.07527 6.15634 7.04005 6.67249C7.00421 7.19778 7.00366 7.86888 7.00366 8.83168V23.7656C7.00366 24.7284 7.00421 25.3995 7.04005 25.9248C7.07527 26.4409 7.14113 26.7415 7.23618 26.971C7.54621 27.7195 8.14088 28.3141 8.88936 28.6242C9.11885 28.7192 9.41943 28.7851 9.93558 28.8203C10.4609 28.8561 11.132 28.8567 12.0948 28.8567H21.5982C22.561 28.8567 23.2321 28.8561 23.7573 28.8203C24.2735 28.7851 24.5741 28.7192 24.8036 28.6242C25.552 28.3141 26.1467 27.7195 26.4567 26.971C26.5518 26.7415 26.6177 26.4409 26.6529 25.9248C26.6887 25.3995 26.6893 24.7284 26.6893 23.7656V12.0411C26.6893 11.1711 26.6847 10.8738 26.6306 10.6016C26.6257 10.5772 26.6206 10.5529 26.6151 10.5287H20.9193C20.357 10.5287 19.9011 10.0728 19.9011 9.5105V3.81469C19.8769 3.80926 19.8526 3.80412 19.8282 3.79927ZM21.9376 5.18057V8.49228H25.2493C25.2325 8.47553 25.2155 8.45848 25.1981 8.4411L21.9887 5.23172C21.9714 5.21435 21.9543 5.1973 21.9376 5.18057Z" fill="white"/>
</svg>
