<svg width="34" height="25" viewBox="0 0 34 25" fill="none" xmlns="http://www.w3.org/2000/svg">
<path d="M22.4009 12.9166L17.8787 17.3958V7.29154C17.8787 6.66662 17.458 6.25 16.8271 6.25C16.1962 6.25 15.7756 6.66662 15.7756 7.29154V17.2918L11.2533 12.9166C10.8327 12.5 10.2018 12.5 9.78077 12.9166C9.36015 13.3332 9.36015 13.9582 9.78077 14.3748L15.9859 20.5208C16.1962 20.7291 16.5115 20.8335 16.8271 20.8335C17.1424 20.8335 17.458 20.7291 17.6684 20.5208L23.8735 14.3748C24.2945 13.9582 24.2945 13.3332 23.8735 12.9166C23.4529 12.5 22.8215 12.5 22.4009 12.9166ZM24.2945 5.20808C22.7166 2.08307 19.5619 0 15.7756 0C10.8327 0 6.73108 3.85427 6.31046 8.64612C2.62946 9.68727 0 12.8123 0 16.6665C0 21.1457 3.68101 24.6873 8.41356 25H26.2922C29.8679 23.4375 33.6538 19.1666 33.6538 15.104C33.6542 9.79162 29.5526 5.52073 24.2945 5.20808ZM26.2926 22.9165H8.41356C8.41356 22.9165 2.10349 22.2916 2.10349 16.6665C2.10349 13.5415 4.94325 10.6248 8.41356 10.4165C8.41356 6.14565 11.2533 2.08307 15.7752 2.08307C19.3508 2.08307 21.77 4.2705 22.6112 7.29154C27.8697 7.08323 31.3404 11.1458 31.5504 14.5835C31.6561 17.4998 29.132 21.354 26.2926 22.9165Z" fill="white"/>
</svg>
