<svg width="25" height="26" viewBox="0 0 25 26" fill="none" xmlns="http://www.w3.org/2000/svg">
<path d="M23.4833 24.1654H3.12664C2.43147 24.1654 2.08388 24.1654 1.81836 24.0301C1.58481 23.9111 1.39492 23.7212 1.27591 23.4877C1.14062 23.2222 1.14062 22.8746 1.14062 22.1794V1.82275M22.242 8.02905L17.3777 13.2208C17.1934 13.4176 17.1012 13.516 16.99 13.5668C16.8918 13.6117 16.7837 13.6302 16.6762 13.6205C16.5544 13.6095 16.4348 13.5474 16.1955 13.4232L12.1522 11.3238C11.9129 11.1995 11.7933 11.1374 11.6715 11.1264C11.564 11.1167 11.4559 11.1352 11.3577 11.1801C11.2465 11.231 11.1543 11.3293 10.97 11.5261L6.10566 16.7179" stroke="white" stroke-width="2.2" stroke-linecap="round" stroke-linejoin="round"/>
</svg>
