<svg width="31" height="31" viewBox="0 0 31 31" fill="none" xmlns="http://www.w3.org/2000/svg">
<path d="M9.7264 18.2065C9.7264 18.2065 11.821 20.9993 15.3121 20.9993C18.8031 20.9993 20.8977 18.2065 20.8977 18.2065M19.5013 11.2244H19.5153M11.1228 11.2244H11.1368M29.2762 15.4136C29.2762 23.1258 23.0243 29.3778 15.3121 29.3778C7.59987 29.3778 1.3479 23.1258 1.3479 15.4136C1.3479 7.70143 7.59987 1.44946 15.3121 1.44946C23.0243 1.44946 29.2762 7.70143 29.2762 15.4136ZM20.1995 11.2244C20.1995 11.61 19.8869 11.9226 19.5013 11.9226C19.1157 11.9226 18.8031 11.61 18.8031 11.2244C18.8031 10.8388 19.1157 10.5262 19.5013 10.5262C19.8869 10.5262 20.1995 10.8388 20.1995 11.2244ZM11.821 11.2244C11.821 11.61 11.5084 11.9226 11.1228 11.9226C10.7372 11.9226 10.4246 11.61 10.4246 11.2244C10.4246 10.8388 10.7372 10.5262 11.1228 10.5262C11.5084 10.5262 11.821 10.8388 11.821 11.2244Z" stroke="white" stroke-width="2.2" stroke-linecap="round" stroke-linejoin="round"/>
</svg>
