<svg width="24" height="22" viewBox="0 0 24 22" fill="currentColor" xmlns="http://www.w3.org/2000/svg">
<path d="M18 14.75C18.4142 14.75 18.75 14.4142 18.75 14C18.75 13.5858 18.4142 13.25 18 13.25L12 13.25C11.5858 13.25 11.25 13.5858 11.25 14C11.25 14.4142 11.5858 14.75 12 14.75L18 14.75Z" fill="currentColor"/>
<path fill-rule="evenodd" clip-rule="evenodd" d="M18.3451 0.320612C17.4807 0.249992 16.4053 0.249995 15.0336 0.25H8.96644C7.59472 0.249995 6.51929 0.249992 5.65494 0.320612C4.77479 0.392522 4.04769 0.541379 3.38955 0.876713C2.30762 1.42798 1.42798 2.30762 0.876713 3.38955C0.541379 4.04769 0.392522 4.7748 0.320612 5.65494C0.249992 6.51929 0.249995 7.59472 0.25 8.96644V9.03356C0.249995 10.4053 0.249992 11.4807 0.320612 12.3451C0.392522 13.2252 0.541379 13.9523 0.876713 14.6104C1.42798 15.6924 2.30762 16.572 3.38955 17.1233C4.04769 17.4586 4.77479 17.6075 5.65494 17.6794C6.51927 17.75 7.59469 17.75 8.96637 17.75H11.25V19.584C10.6256 19.6276 10.0041 19.7259 9.39274 19.8787L7.8181 20.2724C7.41625 20.3729 7.17193 20.7801 7.27239 21.1819C7.37285 21.5837 7.78006 21.8281 8.1819 21.7276L9.75655 21.3339C10.493 21.1498 11.2465 21.0578 12 21.0578C12.7535 21.0578 13.507 21.1498 14.2435 21.3339L15.8181 21.7276C16.2199 21.8281 16.6271 21.5837 16.7276 21.1819C16.8281 20.7801 16.5837 20.3729 16.1819 20.2724L14.6073 19.8787C13.9959 19.7259 13.3744 19.6276 12.75 19.584V17.75H15.0336C16.4053 17.75 17.4807 17.75 18.3451 17.6794C19.2252 17.6075 19.9523 17.4586 20.6104 17.1233C21.6924 16.572 22.572 15.6924 23.1233 14.6104C23.4586 13.9523 23.6075 13.2252 23.6794 12.3451C23.75 11.4807 23.75 10.4053 23.75 9.03363V8.96642C23.75 7.59473 23.75 6.51927 23.6794 5.65494C23.6075 4.77479 23.4586 4.04769 23.1233 3.38955C22.572 2.30762 21.6924 1.42798 20.6104 0.876713C19.9523 0.541379 19.2252 0.392522 18.3451 0.320612ZM18.2229 16.1844C17.4268 16.2494 16.4125 16.25 15 16.25H9C7.58749 16.25 6.57322 16.2494 5.77708 16.1844C4.9897 16.12 4.48197 15.9964 4.07054 15.7868C3.27085 15.3793 2.62068 14.7291 2.21322 13.9295C2.00359 13.518 1.87996 13.0103 1.81563 12.2229C1.75058 11.4268 1.75 10.4125 1.75 9C1.75 7.58749 1.75058 6.57322 1.81563 5.77708C1.87996 4.9897 2.00359 4.48197 2.21322 4.07054C2.62068 3.27085 3.27085 2.62068 4.07054 2.21322C4.48197 2.00359 4.9897 1.87996 5.77708 1.81563C6.57322 1.75058 7.58749 1.75 9 1.75H15C16.4125 1.75 17.4268 1.75058 18.2229 1.81563C19.0103 1.87996 19.518 2.00359 19.9295 2.21322C20.7291 2.62068 21.3793 3.27085 21.7868 4.07054C21.9964 4.48197 22.12 4.9897 22.1844 5.77708C22.2494 6.57322 22.25 7.58749 22.25 9C22.25 10.4125 22.2494 11.4268 22.1844 12.2229C22.12 13.0103 21.9964 13.518 21.7868 13.9295C21.3793 14.7291 20.7291 15.3793 19.9295 15.7868C19.518 15.9964 19.0103 16.12 18.2229 16.1844Z" fill="currentColor"/>
<path d="M8 14C8 14.5523 7.55228 15 7 15C6.44772 15 6 14.5523 6 14C6 13.4477 6.44772 13 7 13C7.55228 13 8 13.4477 8 14Z" fill="currentColor"/>
</svg>
