<svg width="17" height="23" viewBox="0 0 17 23" fill="currentColor" xmlns="http://www.w3.org/2000/svg">
<path d="M10.4584 1.80518C11.073 1.49964 11.7954 1.40873 12.5104 1.60032C14.0663 2.01723 14.9897 3.61655 14.5728 5.17249L12.2003 14.0268C11.7834 15.5828 10.184 16.5061 8.62811 16.0892C7.07216 15.6723 6.1488 14.073 6.56571 12.517L7.51472 8.9753C7.62192 8.5752 7.38448 8.16395 6.98439 8.05674C6.58429 7.94954 6.17303 8.18698 6.06583 8.58708L5.11682 12.1288C4.4855 14.4849 5.88374 16.9068 8.23988 17.5381C10.596 18.1694 13.0178 16.7712 13.6492 14.415L16.0217 5.56072C16.653 3.20458 15.2548 0.782754 12.8986 0.151427C11.8172 -0.138348 10.7201 -1.17421e-05 9.7907 0.461984C9.22083 0.74527 8.71281 1.1507 8.30828 1.65504C8.04911 1.97815 8.10094 2.45019 8.42406 2.70936C8.74717 2.96853 9.21921 2.9167 9.47838 2.59358C9.74495 2.26125 10.0807 1.99292 10.4584 1.80518Z" fill="currentColor"/>
<path d="M3.97299 8.0263C4.3899 6.47036 5.98922 5.54699 7.54516 5.96391C9.1011 6.38082 10.0245 7.98013 9.60755 9.53608L8.65855 13.0778C8.55134 13.4779 8.78878 13.8892 9.18888 13.9964C9.58898 14.1036 10.0002 13.8661 10.1074 13.466L11.0564 9.92431C11.6878 7.56816 10.2895 5.14634 7.93339 4.51502C5.57725 3.88369 3.15542 5.28193 2.5241 7.63807L0.15159 16.4924C-0.479736 18.8485 0.918503 21.2704 3.27465 21.9017C4.3561 22.1915 5.45319 22.0531 6.38256 21.5911C6.95244 21.3078 7.46046 20.9024 7.86499 20.3981C8.12416 20.075 8.07232 19.6029 7.74921 19.3437C7.4261 19.0846 6.95406 19.1364 6.69489 19.4595C6.42832 19.7919 6.09253 20.0602 5.71485 20.2479C5.10022 20.5535 4.37787 20.6444 3.66287 20.4528C2.10693 20.0359 1.18357 18.4366 1.60048 16.8806L3.97299 8.0263Z" fill="currentColor"/>
</svg>
