<svg width="27" height="31" viewBox="0 0 27 31" fill="none" xmlns="http://www.w3.org/2000/svg">
<path d="M11.2907 1.33717L4.03779 4.06351C2.36628 4.68709 1 6.65933 1 8.42855V19.2034C1 20.9146 2.13372 23.1624 3.51453 24.192L9.76453 28.8471C11.814 30.3843 15.186 30.3843 17.2355 28.8471L23.4855 24.192C24.8663 23.1624 26 20.9146 26 19.2034V8.42855C26 6.64483 24.6337 4.67258 22.9622 4.04901L15.7093 1.33717C14.4738 0.887611 12.4971 0.887611 11.2907 1.33717Z" stroke="white" stroke-width="2" stroke-linecap="round" stroke-linejoin="round"/>
<path d="M14 16C15.6569 16 17 14.6569 17 13C17 11.3431 15.6569 10 14 10C12.3431 10 11 11.3431 11 13C11 14.6569 12.3431 16 14 16Z" stroke="white" stroke-width="2" stroke-miterlimit="10" stroke-linecap="round" stroke-linejoin="round"/>
<path d="M14 16V21" stroke="white" stroke-width="1.9" stroke-miterlimit="10" stroke-linecap="round" stroke-linejoin="round"/>
</svg>
