<svg width="19" height="21" viewBox="0 0 19 21" fill="none" xmlns="http://www.w3.org/2000/svg">
<path d="M12.7958 11.7989C14.621 10.8601 15.8811 8.9228 15.8811 6.67259C15.8811 3.51915 13.4018 0.95 10.3449 0.95C7.29611 0.95 4.81683 3.5192 4.81683 6.67259C4.81683 8.92426 6.07857 10.8708 7.90703 11.8015C4.74119 12.774 2.10242 15.5862 0.974419 19.3934C0.883269 19.6941 1.05539 20.0126 1.35322 20.1033C1.4081 20.1225 1.46298 20.1307 1.5173 20.1307C1.75433 20.1307 1.97977 19.966 2.05194 19.7207L12.7958 11.7989ZM12.7958 11.7989C13.0784 11.9006 13.228 12.2098 13.1411 12.5004C13.059 12.802 12.741 12.9751 12.4422 12.8839C11.762 12.6773 11.0575 12.5699 10.3449 12.5699C6.66003 12.5699 3.32708 15.4357 2.05199 19.7205L12.7958 11.7989ZM14.7573 6.67259V6.6726C14.7582 9.20025 12.774 11.2556 10.3441 11.2556C7.91582 11.2556 5.939 9.20035 5.939 6.67259C5.939 4.14478 7.91582 2.0897 10.3441 2.0897C12.7732 2.0897 14.7573 4.14492 14.7573 6.67259Z" fill="white" stroke="white" stroke-width="0.1"/>
<path d="M15.7156 13.5138C15.6942 13.4912 15.6587 13.4812 15.6273 13.4937C15.596 13.507 15.5762 13.5354 15.5762 13.5669V15.7436L11.9025 15.7387C11.8406 15.7387 11.7788 15.7612 11.7308 15.8086C11.683 15.8543 11.6599 15.9134 11.6599 15.974V18.1059C11.6599 18.1658 11.683 18.2273 11.7308 18.2722C11.7788 18.3188 11.8406 18.3413 11.9025 18.3413L15.5762 18.3363V20.5138C15.5762 20.5447 15.5951 20.5746 15.6273 20.587C15.6587 20.5987 15.6942 20.5904 15.7156 20.5671L18.9356 17.2001C18.9761 17.1577 19 17.1019 19 17.0404C19 16.9797 18.9761 16.9231 18.9356 16.8815L15.7156 13.5138Z" fill="white"/>
</svg>
