<svg width="76" height="72" viewBox="0 0 76 72" fill="none" xmlns="http://www.w3.org/2000/svg">
<path d="M36.5198 72C56.6892 72 73.0397 55.8822 73.0397 36C73.0397 16.1178 56.6892 0 36.5198 0C16.3505 0 0 16.1178 0 36C0 55.8822 16.3505 72 36.5198 72Z" fill="url(#paint0_linear_348_9083)"/>
<g filter="url(#filter0_d_348_9083)">
<path d="M17.4001 17.8882C17.4001 15.1268 19.6387 12.8882 22.4001 12.8882H47.5234C50.2848 12.8882 52.5234 15.1268 52.5234 17.8882V50.9887C52.5234 53.7501 50.2848 55.9887 47.5234 55.9887H22.4001C19.6387 55.9887 17.4001 53.7501 17.4001 50.9887V17.8882Z" fill="url(#paint1_linear_348_9083)"/>
</g>
<g filter="url(#filter1_d_348_9083)">
<path d="M73.5664 8.12511H56.6219C55.8323 8.12511 55.1922 8.78915 55.1922 9.60829V17.8707C55.1922 18.6898 55.8323 19.3539 56.6219 19.3539H73.5664C74.356 19.3539 74.9961 18.6898 74.9961 17.8707V9.60829C74.9961 8.78915 74.356 8.12511 73.5664 8.12511Z" fill="white"/>
</g>
<path d="M59.4227 15.5137C60.3572 15.5137 61.1148 14.7668 61.1148 13.8456C61.1148 12.9243 60.3572 12.1775 59.4227 12.1775C58.4881 12.1775 57.7305 12.9243 57.7305 13.8456C57.7305 14.7668 58.4881 15.5137 59.4227 15.5137Z" fill="#C8E3E2"/>
<rect x="63.3711" y="12.1775" width="9.02497" height="3.33619" rx="1.66809" fill="#D5D5D5"/>
<rect x="37.1739" y="26.0585" width="11.5652" height="3.25731" rx="1.62866" fill="#E0E0E0"/>
<rect x="37.1739" y="18.7295" width="11.5652" height="3.66448" rx="1.83224" fill="#E0E0E0"/>
<rect x="22.3044" y="37.4591" width="16.5217" height="3.66448" rx="1.83224" fill="#D5D5D5" fill-opacity="0.7"/>
<rect x="22.3044" y="46.4167" width="16.5217" height="3.66448" rx="1.83224" fill="#D5D5D5" fill-opacity="0.7"/>
<g clip-path="url(#clip0_348_9083)">
<path d="M28.4716 18.7295C28.7585 18.7295 29.0429 18.7612 29.3249 18.8246C29.6068 18.888 29.8715 18.9733 30.1188 19.0806C30.3661 19.1879 30.5863 19.3098 30.7792 19.4463C30.9721 19.5829 31.123 19.7194 31.2318 19.8559C31.489 20.168 31.677 20.5118 31.7957 20.8873C31.9144 21.2627 31.9985 21.6211 32.048 21.9625C32.0975 22.3526 32.1222 22.7475 32.1222 23.1474C32.1915 23.1962 32.2459 23.2595 32.2854 23.3376C32.325 23.4058 32.3572 23.4936 32.3819 23.6009C32.4066 23.7082 32.4091 23.8398 32.3893 23.9958C32.3695 24.2007 32.3275 24.364 32.2632 24.4859C32.1989 24.6078 32.1271 24.7029 32.048 24.7712C31.959 24.8492 31.865 24.9028 31.766 24.9321C31.7166 25.0979 31.6671 25.2539 31.6176 25.4002C31.5682 25.527 31.5113 25.6513 31.447 25.7732C31.3827 25.8951 31.311 25.9902 31.2318 26.0585C31.0438 26.2048 30.8905 26.3291 30.7718 26.4315C30.6531 26.5339 30.5739 26.707 30.5343 26.9508C30.5047 27.0971 30.4948 27.2458 30.5047 27.397C30.5145 27.5482 30.5566 27.6993 30.6308 27.8505C30.705 28.0017 30.8188 28.1455 30.9721 28.282C31.1255 28.4186 31.3406 28.5405 31.6176 28.6478C31.865 28.7453 32.1346 28.8331 32.4264 28.9111C32.7183 28.9891 33.0027 29.0793 33.2797 29.1817C33.5567 29.2841 33.8016 29.4109 34.0143 29.562C34.227 29.7132 34.3779 29.9205 34.4669 30.1838C34.5164 30.3398 34.5535 30.5324 34.5782 30.7616C34.6029 30.9908 34.6153 31.2224 34.6153 31.4565C34.6153 31.6905 34.598 31.9099 34.5634 32.1147C34.5287 32.3195 34.4768 32.4756 34.4075 32.5829C34.3581 32.6511 34.2171 32.7194 33.9846 32.7877C33.7521 32.8559 33.4652 32.9218 33.1239 32.9852C32.7826 33.0485 32.4017 33.1046 31.9812 33.1534C31.5608 33.2021 31.1378 33.2436 30.7124 33.2777C30.287 33.3119 29.8789 33.3387 29.4881 33.3582C29.0973 33.3777 28.7585 33.3874 28.4716 33.3874C28.1847 33.3874 27.8508 33.3777 27.4699 33.3582C27.089 33.3387 26.6957 33.3119 26.2901 33.2777C25.8845 33.2436 25.4814 33.2046 25.0807 33.1607C24.68 33.1168 24.3164 33.0705 23.9899 33.0217C23.6635 32.973 23.3865 32.9242 23.1589 32.8754C22.9314 32.8267 22.7879 32.7779 22.7286 32.7291C22.6296 32.6511 22.5529 32.4122 22.4985 32.0123C22.4441 31.6125 22.4664 31.0956 22.5653 30.4617C22.6148 30.1009 22.7607 29.8254 23.0031 29.6352C23.2455 29.445 23.5274 29.2939 23.849 29.1817C24.1705 29.0696 24.5044 28.9696 24.8507 28.8818C25.1969 28.794 25.5036 28.6673 25.7707 28.5015C25.9785 28.3747 26.1368 28.2528 26.2456 28.1358C26.3544 28.0187 26.4336 27.9017 26.483 27.7847C26.5325 27.6676 26.5572 27.5457 26.5572 27.419C26.5572 27.2922 26.5523 27.1508 26.5424 26.9947C26.5226 26.7704 26.4435 26.5924 26.305 26.4608C26.1665 26.3291 26.0131 26.195 25.8449 26.0585C25.7658 25.9902 25.6965 25.8951 25.6372 25.7732C25.5778 25.6513 25.5234 25.527 25.4739 25.4002C25.4245 25.2539 25.375 25.0979 25.3255 24.9321C25.2563 24.9126 25.187 24.8784 25.1178 24.8297C25.0584 24.7809 24.9941 24.7127 24.9249 24.6249C24.8556 24.5371 24.7962 24.4103 24.7468 24.2445C24.6874 24.0787 24.6652 23.9276 24.68 23.791C24.6948 23.6545 24.722 23.5375 24.7616 23.44C24.8012 23.3327 24.8655 23.2303 24.9545 23.1328C24.9446 22.7622 24.9644 22.3916 25.0139 22.021C25.0535 21.7089 25.1252 21.3724 25.2291 21.0116C25.333 20.6508 25.4888 20.3289 25.6965 20.0461C25.8845 19.773 26.0947 19.5512 26.3272 19.3805C26.5597 19.2098 26.7972 19.0757 27.0395 18.9782C27.2819 18.8807 27.5243 18.8149 27.7667 18.7807C28.0091 18.7466 28.244 18.7295 28.4716 18.7295V18.7295Z" fill="url(#paint2_linear_348_9083)" fill-opacity="0.7"/>
</g>
<path fill-rule="evenodd" clip-rule="evenodd" d="M49.0182 59.9961C52.6507 59.9961 56.0266 58.913 58.8316 57.0564L70.3101 67.8577L74.4729 63.0966L63.3967 52.6738C65.4423 49.836 66.6451 46.3666 66.6451 42.6202C66.6451 33.0237 58.7533 25.2442 49.0182 25.2442C39.2831 25.2442 31.3913 33.0237 31.3913 42.6202C31.3913 52.2166 39.2831 59.9961 49.0182 59.9961ZM64.053 42.6202C64.053 50.7447 57.3716 57.3309 49.1298 57.3309C40.888 57.3309 34.2067 50.7447 34.2067 42.6202C34.2067 34.4957 40.888 27.9095 49.1298 27.9095C57.3716 27.9095 64.053 34.4957 64.053 42.6202Z" fill="#C8E3E2"/>
<g filter="url(#filter2_b_348_9083)">
<path d="M49.1283 57.6154C57.6173 57.6154 64.499 50.8939 64.499 42.6025C64.499 34.3112 57.6173 27.5897 49.1283 27.5897C40.6393 27.5897 33.7577 34.3112 33.7577 42.6025C33.7577 50.8939 40.6393 57.6154 49.1283 57.6154Z" fill="white" fill-opacity="0.3"/>
</g>
<path d="M70.3092 67.8582L74.472 63.0971L75.099 63.6872C75.7074 64.2596 76.0716 65.0594 76.1116 65.9104C76.1516 66.7615 75.864 67.5942 75.3122 68.2253C74.7604 68.8564 73.9895 69.2343 73.1692 69.2757C72.3488 69.3172 71.5461 69.0189 70.9378 68.4464L70.3108 67.8564L70.3092 67.8582Z" fill="#C8E3E2"/>
<defs>
<filter id="filter0_d_348_9083" x="-12.5999" y="2.88819" width="95.1232" height="103.1" filterUnits="userSpaceOnUse" color-interpolation-filters="sRGB">
<feFlood flood-opacity="0" result="BackgroundImageFix"/>
<feColorMatrix in="SourceAlpha" type="matrix" values="0 0 0 0 0 0 0 0 0 0 0 0 0 0 0 0 0 0 127 0" result="hardAlpha"/>
<feOffset dy="20"/>
<feGaussianBlur stdDeviation="15"/>
<feComposite in2="hardAlpha" operator="out"/>
<feColorMatrix type="matrix" values="0 0 0 0 0.570833 0 0 0 0 0.570833 0 0 0 0 0.570833 0 0 0 0.19 0"/>
<feBlend mode="normal" in2="BackgroundImageFix" result="effect1_dropShadow_348_9083"/>
<feBlend mode="normal" in="SourceGraphic" in2="effect1_dropShadow_348_9083" result="shape"/>
</filter>
<filter id="filter1_d_348_9083" x="48.1922" y="-0.874889" width="45.8039" height="37.2288" filterUnits="userSpaceOnUse" color-interpolation-filters="sRGB">
<feFlood flood-opacity="0" result="BackgroundImageFix"/>
<feColorMatrix in="SourceAlpha" type="matrix" values="0 0 0 0 0 0 0 0 0 0 0 0 0 0 0 0 0 0 127 0" result="hardAlpha"/>
<feOffset dx="6" dy="4"/>
<feGaussianBlur stdDeviation="6.5"/>
<feComposite in2="hardAlpha" operator="out"/>
<feColorMatrix type="matrix" values="0 0 0 0 0.104618 0 0 0 0 0.465612 0 0 0 0 0.545833 0 0 0 0.09 0"/>
<feBlend mode="normal" in2="BackgroundImageFix" result="effect1_dropShadow_348_9083"/>
<feBlend mode="normal" in="SourceGraphic" in2="effect1_dropShadow_348_9083" result="shape"/>
</filter>
<filter id="filter2_b_348_9083" x="25.7577" y="19.5897" width="46.7413" height="46.0257" filterUnits="userSpaceOnUse" color-interpolation-filters="sRGB">
<feFlood flood-opacity="0" result="BackgroundImageFix"/>
<feGaussianBlur in="BackgroundImageFix" stdDeviation="4"/>
<feComposite in2="SourceAlpha" operator="in" result="effect1_backgroundBlur_348_9083"/>
<feBlend mode="normal" in="SourceGraphic" in2="effect1_backgroundBlur_348_9083" result="shape"/>
</filter>
<linearGradient id="paint0_linear_348_9083" x1="36.2383" y1="-11.7225" x2="36.9653" y2="114.704" gradientUnits="userSpaceOnUse">
<stop stop-color="#90A9A8"/>
<stop offset="1" stop-color="#2A4948"/>
</linearGradient>
<linearGradient id="paint1_linear_348_9083" x1="34.9618" y1="12.8882" x2="34.9618" y2="55.9887" gradientUnits="userSpaceOnUse">
<stop stop-color="white"/>
<stop offset="0.71875" stop-color="#FAFAFA"/>
</linearGradient>
<linearGradient id="paint2_linear_348_9083" x1="28.5424" y1="18.7295" x2="28.5424" y2="33.3874" gradientUnits="userSpaceOnUse">
<stop stop-color="#2A4948"/>
<stop offset="1" stop-color="#2A4948" stop-opacity="0.7"/>
</linearGradient>
<clipPath id="clip0_348_9083">
<rect width="14.8696" height="14.6579" fill="white" transform="translate(21.4783 18.7295)"/>
</clipPath>
</defs>
</svg>
