<svg width="5" height="3" viewBox="0 0 5 3" fill="none" xmlns="http://www.w3.org/2000/svg">
<path d="M4.51801 0.0905158L2.50009 2.30405L0.481985 0.0905156C0.457241 0.06337 0.427458 0.0414248 0.394338 0.0259329C0.361217 0.0104409 0.325407 0.0017055 0.288953 0.000225624C0.252498 -0.00125425 0.216112 0.00455037 0.181873 0.0173079C0.147634 0.0300654 0.116211 0.049526 0.0894002 0.0745787C0.0625891 0.0996314 0.0409144 0.129786 0.0256134 0.16332C0.0103123 0.196853 0.00168482 0.23311 0.000223189 0.27002C-0.00123845 0.30693 0.00449464 0.343769 0.0170949 0.378436C0.0296952 0.413102 0.048916 0.444917 0.07366 0.472062L2.29584 2.90946C2.32185 2.93801 2.35342 2.96079 2.38856 2.97637C2.42369 2.99196 2.46164 3 2.5 3C2.53836 3 2.57631 2.99196 2.61144 2.97637C2.64658 2.96079 2.67815 2.93801 2.70416 2.90946L4.92634 0.472062C4.97631 0.41724 5.00273 0.344563 4.99978 0.27002C4.99682 0.195477 4.96475 0.125175 4.9106 0.074579C4.85645 0.0239827 4.78467 -0.00276267 4.71105 0.000226063C4.63742 0.0032148 4.56799 0.0356928 4.51801 0.0905158" fill="#494949"/>
</svg>
