<svg width="167" height="167" viewBox="0 0 167 167" fill="none" xmlns="http://www.w3.org/2000/svg">
<g opacity="0.9">
<path opacity="0.331" d="M83.5 138.656C96.1818 138.656 106.462 137.618 106.462 136.337C106.462 135.056 96.1818 134.018 83.5 134.018C70.8181 134.018 60.5375 135.056 60.5375 136.337C60.5375 137.618 70.8181 138.656 83.5 138.656Z" fill="url(#paint0_linear_345_3537)"/>
<g opacity="0.7794">
<path opacity="0.5988" d="M33.2144 104.143C34.7004 104.143 35.905 103.769 35.905 103.308C35.905 102.847 34.7004 102.473 33.2144 102.473C31.7285 102.473 30.5239 102.847 30.5239 103.308C30.5239 103.769 31.7285 104.143 33.2144 104.143Z" fill="#2A4948"/>
<path opacity="0.5765" d="M30.8486 103.308C31.5908 103.633 35.2091 97.9733 35.7194 96.4889C36.2297 95.0044 35.673 93.3344 34.4669 92.8242C33.2608 92.3139 31.8691 93.1025 31.3589 94.6333C30.8486 96.1642 30.06 102.983 30.8486 103.308Z" fill="url(#paint1_linear_345_3537)"/>
<path d="M30.9878 103.308C31.9155 103.03 31.7764 95.0045 31.3125 93.1953C30.8486 91.3861 29.3178 90.2728 27.8333 90.6903C26.3489 91.1078 25.5603 92.917 25.9778 94.7261C26.3953 96.5353 30.06 103.586 30.9878 103.308Z" fill="url(#paint2_linear_345_3537)"/>
</g>
<path opacity="0.7" d="M26.5344 31.73C26.3489 31.73 26.1633 31.73 25.9778 31.6836C25.7458 31.73 25.5139 31.73 25.2819 31.73C21.71 31.73 18.7875 28.8539 18.7875 25.2356C18.7875 21.6172 21.6636 18.7411 25.2819 18.7411C25.6994 18.7411 26.1169 18.7875 26.488 18.8339C27.9725 16.0506 30.895 14.1486 34.2814 14.1486C39.1058 14.1486 43.0489 18.0917 43.0489 22.9161H48.2444C50.6566 22.9161 52.6514 24.8645 52.6514 27.3231C52.6514 29.7817 50.703 31.73 48.2444 31.73H26.5344Z" fill="url(#paint3_linear_345_3537)"/>
<path d="M16.7 123.58C23.9367 112.957 30.895 107.622 37.4822 107.622C44.0695 107.622 51.6308 112.957 60.12 123.58H16.7Z" fill="url(#paint4_linear_345_3537)"/>
<path d="M42.3995 123.58C50.0536 109.107 58.2645 101.87 66.9856 101.87C75.7067 101.87 91.5717 109.107 114.581 123.58H42.3995Z" fill="url(#paint5_linear_345_3537)"/>
<path d="M150.3 123.58C142.321 112.261 134.76 106.602 127.709 106.602C120.658 106.602 109.246 112.261 93.52 123.58H150.3Z" fill="url(#paint6_linear_345_3537)"/>
<path opacity="0.6699" d="M125.25 92.685C126.403 92.685 127.337 92.3942 127.337 92.0356C127.337 91.6769 126.403 91.3861 125.25 91.3861C124.097 91.3861 123.162 91.6769 123.162 92.0356C123.162 92.3942 124.097 92.685 125.25 92.685Z" fill="#2A4948"/>
<path opacity="0.5765" d="M123.441 92.0356C124.044 92.2675 126.781 88.2317 127.198 87.1647C127.616 86.0978 127.152 84.9381 126.271 84.5669C125.389 84.1958 124.276 84.7989 123.858 85.8658C123.441 86.8864 122.884 91.8036 123.441 92.0356Z" fill="url(#paint7_linear_345_3537)"/>
<path d="M123.348 92.0356C124.09 91.85 123.951 86.1906 123.626 84.9381C123.302 83.6856 122.049 82.8506 120.936 83.1289C119.822 83.4072 119.173 84.7061 119.498 85.9586C119.822 87.2111 122.652 92.2211 123.348 92.0356Z" fill="url(#paint8_linear_345_3537)"/>
<g opacity="0.8969">
<path opacity="0.5969" d="M131.884 137.775C133.395 137.775 134.621 137.401 134.621 136.94C134.621 136.479 133.395 136.105 131.884 136.105C130.372 136.105 129.147 136.479 129.147 136.94C129.147 137.401 130.372 137.775 131.884 137.775Z" fill="#2A4948"/>
<path opacity="0.5765" d="M129.935 137.079C130.91 137.45 135.595 130.631 136.291 128.822C136.986 127.013 136.244 125.018 134.667 124.415C133.09 123.812 131.281 124.786 130.585 126.595C129.889 128.404 128.961 136.708 129.935 137.079Z" fill="url(#paint9_linear_345_3537)"/>
<path d="M129.935 137.126C131.188 136.801 131.002 127.198 130.399 125.064C129.796 122.931 127.709 121.492 125.76 122.003C123.812 122.513 122.745 124.693 123.348 126.874C123.951 129.054 128.683 137.45 129.935 137.126Z" fill="url(#paint10_linear_345_3537)"/>
</g>
<path opacity="0.4847" d="M99.3187 47.1775H127.801C129.843 47.1775 131.513 48.8475 131.513 50.8886V70.1864C131.513 72.2275 129.843 73.8975 127.801 73.8975H99.3187C97.2775 73.8975 95.6075 72.2275 95.6075 70.1864V50.8886C95.6075 48.8475 97.2775 47.1775 99.3187 47.1775Z" fill="url(#paint11_linear_345_3537)"/>
<path d="M103.262 53.8575H108.272C109.06 53.8575 109.663 54.4605 109.663 55.2491V55.9914C109.663 56.78 109.06 57.383 108.272 57.383H103.262C102.473 57.383 101.87 56.78 101.87 55.9914V55.2491C101.87 54.4605 102.473 53.8575 103.262 53.8575Z" fill="url(#paint12_linear_345_3537)"/>
<path d="M102.844 62.1147H124.647C125.436 62.1147 126.039 62.7177 126.039 63.5064V64.6661C126.039 65.4547 125.436 66.0577 124.647 66.0577H102.844C102.056 66.0577 101.453 65.4547 101.453 64.6661V63.5064C101.453 62.7177 102.102 62.1147 102.844 62.1147Z" fill="url(#paint13_linear_345_3537)"/>
<path d="M80.763 119.776C98.3895 119.776 112.679 105.487 112.679 87.8606C112.679 70.2341 98.3895 55.945 80.763 55.945C63.1366 55.945 48.8475 70.2341 48.8475 87.8606C48.8475 105.487 63.1366 119.776 80.763 119.776Z" fill="#F3F4F4"/>
<path d="M80.763 122.281C98.3895 122.281 112.679 107.992 112.679 90.3656C112.679 72.7391 98.3895 58.45 80.763 58.45C63.1366 58.45 48.8475 72.7391 48.8475 90.3656C48.8475 107.992 63.1366 122.281 80.763 122.281Z" fill="url(#paint14_linear_345_3537)"/>
<path opacity="0.499" d="M66.2099 84.5671C67.8335 82.9899 70.3849 82.9899 72.0085 84.5671L81.0543 93.4738C82.6316 95.051 82.6316 97.6024 81.1007 99.1796L81.0543 99.226C79.4307 100.803 76.8793 100.803 75.2557 99.226L66.2099 90.273C64.6327 88.6957 64.5863 86.1444 66.2099 84.5671C66.1635 84.5671 66.2099 84.5671 66.2099 84.5671Z" fill="white"/>
<path opacity="0.8544" d="M97.6151 76.913C99.1924 78.4902 99.1924 81.0416 97.6615 82.6188L97.6151 82.6652L80.8224 99.1796C79.1987 100.757 76.6474 100.757 75.0237 99.1796C73.4465 97.6024 73.4465 95.051 74.9774 93.4738L75.0237 93.4274L91.8165 76.913C93.3937 75.3357 95.9915 75.3357 97.6151 76.913Z" fill="white"/>
</g>
<defs>
<linearGradient id="paint0_linear_345_3537" x1="116.08" y1="136.314" x2="49.0339" y2="136.314" gradientUnits="userSpaceOnUse">
<stop stop-color="#2A4948" stop-opacity="0.38"/>
<stop offset="1" stop-color="#2A4948"/>
</linearGradient>
<linearGradient id="paint1_linear_345_3537" x1="33.3029" y1="93.7072" x2="32.4713" y2="103.276" gradientUnits="userSpaceOnUse">
<stop stop-color="#F4F5F5"/>
<stop offset="1" stop-color="#B3B6B9"/>
</linearGradient>
<linearGradient id="paint2_linear_345_3537" x1="28.728" y1="91.5548" x2="29.4066" y2="103.266" gradientUnits="userSpaceOnUse">
<stop stop-color="#2A4948" stop-opacity="0.17"/>
<stop offset="1" stop-color="#2A4948"/>
</linearGradient>
<linearGradient id="paint3_linear_345_3537" x1="35.6979" y1="31.7319" x2="35.6979" y2="6.45342" gradientUnits="userSpaceOnUse">
<stop stop-color="#2A4948" stop-opacity="0.22"/>
<stop offset="1" stop-color="#2A4948"/>
</linearGradient>
<linearGradient id="paint4_linear_345_3537" x1="38.4079" y1="123.522" x2="38.4079" y2="108.081" gradientUnits="userSpaceOnUse">
<stop stop-color="#CCD3D3" stop-opacity="0"/>
<stop offset="1" stop-color="#2A4948" stop-opacity="0.4"/>
</linearGradient>
<linearGradient id="paint5_linear_345_3537" x1="78.4909" y1="123.516" x2="78.4909" y2="102.49" gradientUnits="userSpaceOnUse">
<stop stop-color="#F4F5F5" stop-opacity="0"/>
<stop offset="1" stop-color="#EEEFF0"/>
</linearGradient>
<linearGradient id="paint6_linear_345_3537" x1="121.908" y1="123.579" x2="121.908" y2="106.618" gradientUnits="userSpaceOnUse">
<stop offset="0.00290329" stop-color="#CCD3D3" stop-opacity="0.13"/>
<stop offset="0.9798" stop-color="#2A4948" stop-opacity="0.4"/>
</linearGradient>
<linearGradient id="paint7_linear_345_3537" x1="125.377" y1="85.1678" x2="124.644" y2="91.9889" gradientUnits="userSpaceOnUse">
<stop stop-color="#F4F5F5"/>
<stop offset="1" stop-color="#B3B6B9"/>
</linearGradient>
<linearGradient id="paint8_linear_345_3537" x1="121.602" y1="83.748" x2="122.24" y2="91.9734" gradientUnits="userSpaceOnUse">
<stop stop-color="#2A4948" stop-opacity="0.19"/>
<stop offset="1" stop-color="#2A4948"/>
</linearGradient>
<linearGradient id="paint9_linear_345_3537" x1="133.191" y1="125.495" x2="131.945" y2="137.04" gradientUnits="userSpaceOnUse">
<stop stop-color="#F4F5F5"/>
<stop offset="1" stop-color="#B3B6B9"/>
</linearGradient>
<linearGradient id="paint10_linear_345_3537" x1="126.929" y1="123.035" x2="128.04" y2="137.019" gradientUnits="userSpaceOnUse">
<stop stop-color="#2A4948" stop-opacity="0.21"/>
<stop offset="1" stop-color="#2A4948"/>
</linearGradient>
<linearGradient id="paint11_linear_345_3537" x1="113.561" y1="47.1763" x2="113.561" y2="73.8963" gradientUnits="userSpaceOnUse">
<stop stop-color="#2A4948" stop-opacity="0.13"/>
<stop offset="1" stop-color="#2A4948"/>
</linearGradient>
<linearGradient id="paint12_linear_345_3537" x1="109.651" y1="55.6338" x2="101.846" y2="55.6338" gradientUnits="userSpaceOnUse">
<stop stop-color="white" stop-opacity="0.192"/>
<stop offset="1" stop-color="#FFFFFD"/>
</linearGradient>
<linearGradient id="paint13_linear_345_3537" x1="126.037" y1="64.0708" x2="101.45" y2="64.0708" gradientUnits="userSpaceOnUse">
<stop stop-color="white" stop-opacity="0.192"/>
<stop offset="1" stop-color="#FFFFFD"/>
</linearGradient>
<linearGradient id="paint14_linear_345_3537" x1="80.7843" y1="58.4474" x2="80.7843" y2="122.325" gradientUnits="userSpaceOnUse">
<stop stop-color="#2A4948" stop-opacity="0.15"/>
<stop offset="1" stop-color="#2A4948"/>
</linearGradient>
</defs>
</svg>
