<svg width="19" height="19" viewBox="0 0 19 19" fill="none" xmlns="http://www.w3.org/2000/svg">
<path d="M16.9139 11.8043V15.7154C16.9139 16.3885 16.3466 16.9531 15.6786 16.9531L2.62367 16.9755C1.95562 16.9755 1.41073 16.4296 1.41073 15.7566L1.43313 2.6772C1.43313 2.0079 2.00041 1.43955 2.66845 1.43955H9.89007V0H2.66845C1.14202 0 0 1.54799 0 2.93145V15.7566C0 17.2073 1.17561 18.3889 2.6274 18.3889H15.4285C16.9587 18.3889 18.3507 17.1139 18.3507 15.7154V11.8043H16.9139ZM13.5289 0.759037L18.9143 6.16577L13.5289 11.5688V8.48028C13.5289 8.48028 8.1845 7.88576 5.06446 12.3428C5.06446 12.3428 6.046 3.84753 13.5289 3.84753V0.759037Z" fill="white"/>
</svg>
