<svg width="8" height="8" viewBox="0 0 8 8" fill="none" xmlns="http://www.w3.org/2000/svg">
<path d="M7.98181 2.90228C7.93795 2.76692 7.82101 2.66766 7.68045 2.64735L5.36849 2.31009L4.33396 0.208675C4.27099 0.0812141 4.14167 0 3.99999 0C3.8583 0 3.72899 0.0812141 3.66601 0.208675L2.63148 2.31009L0.31953 2.64735C0.178968 2.66766 0.0620214 2.76579 0.0181663 2.90228C-0.0256889 3.03763 0.0114193 3.18653 0.112623 3.28579L1.78587 4.92135L1.39229 7.23144C1.36868 7.37131 1.42603 7.51343 1.54073 7.5969C1.65542 7.68037 1.80723 7.69165 1.93317 7.6251L4.00111 6.53435L6.06905 7.6251C6.12303 7.6533 6.18262 7.66796 6.24222 7.66796C6.31981 7.66796 6.39628 7.64428 6.4615 7.5969C6.5762 7.51343 6.63354 7.37131 6.60993 7.23144L6.21523 4.92135L7.88848 3.28579C7.98856 3.18653 8.02566 3.03763 7.98181 2.90228Z" fill="#FFD60A"/>
</svg>
