<svg width="7" height="10" viewBox="0 0 7 10" fill="none" xmlns="http://www.w3.org/2000/svg">
<path d="M0.766632 1.44419L4.7914 5.15908L0.766632 8.87431C0.717274 8.91986 0.677372 8.97469 0.649204 9.03566C0.621035 9.09663 0.605152 9.16256 0.602461 9.22967C0.599771 9.29678 0.610325 9.36376 0.633521 9.4268C0.656718 9.48983 0.692102 9.54767 0.737655 9.59703C0.783207 9.64639 0.838035 9.68629 0.899008 9.71446C0.959981 9.74263 1.02591 9.75851 1.09302 9.7612C1.16013 9.76389 1.22711 9.75334 1.29015 9.73014C1.35318 9.70695 1.41102 9.67156 1.46038 9.62601L5.8922 5.5351C5.94411 5.48722 5.98553 5.4291 6.01386 5.36441C6.0422 5.29972 6.05682 5.22987 6.05682 5.15925C6.05682 5.08863 6.0422 5.01877 6.01386 4.95409C5.98553 4.8894 5.94411 4.83128 5.8922 4.7834L1.46038 0.692489C1.3607 0.600492 1.22855 0.551862 1.09302 0.557296C0.957479 0.56273 0.829652 0.621784 0.737655 0.721466C0.645658 0.821148 0.597028 0.953294 0.602462 1.08883C0.607896 1.22437 0.66695 1.3522 0.766632 1.44419" fill="#8F8F8F"/>
</svg>
